/* XPM */
static char *_6bd18f4cb97433fa890e79ff66d4138tt4sckGUg9KWc73X[] = {
/* columns rows colors chars-per-pixel */
"64 64 202 2 ",
"   c #6C5664",
".  c #655C65",
"X  c #6B5A64",
"o  c #6C5669",
"O  c #675B69",
"+  c #6D5A6A",
"@  c #755664",
"#  c #785562",
"$  c #735B66",
"%  c #7A5C65",
"&  c #7E5769",
"*  c #745D6B",
"=  c #7C5D6B",
"-  c #6D5F70",
";  c #745D71",
":  c #6B616B",
">  c #746165",
",  c #7D6266",
"<  c #75616C",
"1  c #7C636D",
"2  c #7E696D",
"3  c #756271",
"4  c #7D6572",
"5  c #7E6972",
"6  c #7E697C",
"7  c #7F7075",
"8  c #845B66",
"9  c #8A5F66",
"0  c #835D69",
"q  c #8E5D6A",
"w  c #805F70",
"e  c #8B5E71",
"r  c #816266",
"t  c #83646D",
"y  c #8A646D",
"u  c #846A6D",
"i  c #8B6A6D",
"p  c #92636D",
"a  c #936C6E",
"s  c #846572",
"d  c #8B6571",
"f  c #836B74",
"g  c #8D6B73",
"h  c #826778",
"j  c #836F78",
"k  c #8D6D79",
"l  c #966674",
"z  c #9B6776",
"x  c #936D74",
"c  c #9B6B75",
"v  c #946E79",
"b  c #9D6A79",
"n  c #8E7275",
"m  c #8D7877",
"M  c #85717A",
"N  c #8D747A",
"B  c #937375",
"V  c #9A7375",
"C  c #947877",
"Z  c #95747A",
"A  c #9A747B",
"S  c #957A7B",
"D  c #9B7B7D",
"F  c #A66D77",
"G  c #AD6E76",
"H  c #A5677C",
"J  c #A46C7B",
"K  c #AC6E7B",
"L  c #B06C76",
"P  c #B16D7C",
"I  c #A27175",
"U  c #AC7176",
"Y  c #A3737B",
"T  c #AD717B",
"R  c #A47B7D",
"E  c #AB7B7D",
"W  c #B27877",
"Q  c #B1727C",
"!  c #B37C7E",
"~  c #96827F",
"^  c #9A807F",
"/  c #AE837E",
"(  c #B3807F",
")  c #967683",
"_  c #9B7582",
"`  c #9D7C82",
"'  c #AE6E80",
"]  c #B26E80",
"[  c #A77580",
"{  c #AD7381",
"}  c #A47D82",
"|  c #AC7D83",
" . c #A77F88",
".. c #B17382",
"X. c #BE7787",
"o. c #B37C83",
"O. c #BB7F84",
"+. c #968385",
"@. c #9B8284",
"#. c #9D8B87",
"$. c #9E8589",
"%. c #A58283",
"&. c #AB8385",
"*. c #AC8884",
"=. c #A58389",
"-. c #AC8489",
";. c #A18D8A",
":. c #AD8B8C",
">. c #B38384",
",. c #BA8385",
"<. c #B38985",
"1. c #BB8A86",
"2. c #B48588",
"3. c #BB858A",
"4. c #B48B8B",
"5. c #BD8D8C",
"6. c #BD9186",
"7. c #BD928C",
"8. c #BC988D",
"9. c #BF8790",
"0. c #B78E90",
"q. c #BE8E91",
"w. c #A49192",
"e. c #B59494",
"r. c #BD9492",
"t. c #B79995",
"y. c #BD9993",
"u. c #BA959C",
"i. c #BB989A",
"p. c #BCA092",
"a. c #C18587",
"s. c #C3858A",
"d. c #C28D8C",
"f. c #C88D8F",
"g. c #C39387",
"h. c #C3948D",
"j. c #C9958E",
"k. c #C4988E",
"l. c #C8998F",
"z. c #C78E97",
"x. c #C38E92",
"c. c #C98E90",
"v. c #C39391",
"b. c #C39191",
"n. c #C59392",
"m. c #C59291",
"M. c #C09491",
"N. c #C19692",
"B. c #C69590",
"V. c #C69592",
"C. c #C59394",
"Z. c #C79395",
"A. c #C69397",
"S. c #C29695",
"D. c #C29494",
"F. c #C59595",
"G. c #C49592",
"H. c #C89691",
"J. c #C99595",
"K. c #C99592",
"L. c #C59990",
"P. c #C59892",
"I. c #C19894",
"U. c #C49993",
"Y. c #C99893",
"T. c #C99A95",
"R. c #CA9A94",
"E. c #C69699",
"W. c #C8979B",
"Q. c #C99599",
"!. c #C69A99",
"~. c #C59B9A",
"^. c #C89898",
"/. c #CA9C9A",
"(. c #D09F9B",
"). c #C7A196",
"_. c #CBA296",
"`. c #C5A19A",
"'. c #CAA39C",
"]. c #CBA29C",
"[. c #CAA89F",
"{. c #D0A295",
"}. c #D2A39B",
"|. c #D6A99C",
" X c #D9A99F",
".X c #C6A3A1",
"XX c #CEA4A1",
"oX c #CDABA3",
"OX c #D7A6A1",
"+X c #D3A4A2",
"@X c #D2ABA4",
"#X c #DAAFA2",
"$X c #D4AEA9",
"%X c #CBB1A4",
"&X c #CDB6A8",
"*X c #D1B1A6",
"=X c #D5B4AC",
"-X c #D6BAAE",
";X c #D5B6B1",
":X c #D4BFB1",
">X c #DABDB3",
",X c #DAC3B5",
/* pixels */
"@ * *   X y J T ] K o.5.A.v.h.A.h.Y.h.V.V.h.J.h.S.v.S.h.h.Q.3.q o X X o +   = z T T K T >.x.v.A.V.V.V.v.k.5.o.K Q K J d @ O - O ",
"X O .   = l K K T T ! h.G.k.h.k.h.Y.h.k.7.F.h.h.5.k.k.5.k.7.4.A X $ X @ + + = J G G K Q d.l.K.h.h.h.k.k.h.h.>.K U K ' b =   o @ ",
"  .   X y b { Q Q U ,.K.h.h.h.d.v.v.v.5.( d.E E X.] T x.Q.V 1 X   X $ # @ $ d { T T T U d.h.7.k.g.h.h.h.j.h.,.K K K T [ y $ @ @ ",
"Y K J F J K K K K H O.Q.v.v.T.S.V.V.V.K.5.|.h.}.'.@XS.d.j.5.4.u = l J J H J K P P P P K x.f.V.S.J.Q.v.x.v.B.3.K T G K T J b J F ",
"L L L K K U T U T T 3.S.v.r.U.G.F.G.G.S.r.^.G.!.y.p.7.k.h.h.G.B d Y ..P T T L L T K T T v.k.7.G.r.I.v.G.y.G.,.Y T G G G T T U T ",
"T G K K T T T T L G ,.h.h.h.h.h.h.h.h.v.J.v.v.V.v.Q.Q.v.B.F.i.B d J ! G G T T T U U T U 3.h.k.V.h.K.K.K.h.h.O.G T T Q K G K K K ",
"{ K { { Q { ' P T T o.5.v.S.J.Q.k.g.k.h.Y.g.h.h.S.S.S.G.J.h.3.l e H P Q { ] K K T Q Q Q 3.d.Q.Q.S.S.A.S.V.7.>.] K K Q ] P ] ....",
"= = = % = % % = = = = , 2 t 1 t 4 4 f 4 4 f 4 1 r s 4 1 f 1 1 * + = 8 % < = % 4 * = = = < 1 1 1 f 1 1 t 2 , = 0 1 = $ 1 = % $ * ",
"b z b c b b b J c Y E &.*.E y * V -.&.&.e.4.t.t.t.t.e.4.&.&.&.&.[ b b J z z J b J l c Y &.4.| V = d R >.&.=.| I b b c b z b b b ",
"G G Q L G G G U U s.J.T.k.5.Y s d.J.J.V./.G./.T./.'.).P.k.h.K.B.O.K G K G G L K K Q ! d.v.d.v.c.t A h.K.Y.G.v.,.Q L Q L G L G G ",
"1.1.5.1.4.d.,.,.7.f.v.7.I./.-.t B.c.v.h.h.h.k.v.h.h.V.h.h.h.v.j.d.1.1.3.1.1.1.<.5.4.3.h.T.F.S.I.u &.h.h.h.h.V.h.5.1.1.1.1.1.1.1.",
"V.v.S.h.J.S.4.>.4.5.0.=.x g s 5 S.v.A.S.S.F.S.S.A.S.v.A.A.S.S.S.S.v.S.T.S.V.A.v.| >.c.<.4.r.V i X %.Q.S.k.G.y.G.S.S.J.S.v.Q.S.S.",
"v.h.G.h.S./.h.1._.B.4.-.R Y g 5 V.7.k.v.7.G.G.G.h.V.v.k.G.k.7.k.J.v.v.v.v.K.T./.3.v.OXd.d.^./ B $  .Q.J.v.v.r.v.v.V.G.G.v.V.V.V.",
"h.h.k.7.k./.T./.{.R.K.T.G.v.R u f.l.h.l.h.h.k.g.l.g.g.h.g.h.h.k.h.h.k.h.k.k.k./.h._._.g.h.P.G.5.u &.B.K.h.k.K.j.k.7.k.k.h.h.7.k.",
"T.V.T.v.v.v.v.S.G.J.J.S.E.x.Y r 1.S.G.S.P.P.U.8.G.G.G.U.G.G.G.V.v.K.S.S.A.S.K.J.S.J.h.V.k.J.Q.s.t Y 5.J.U.U.Q.S.v.S.S.J.J.A.S.J.",
"C B C B Z Z B Z B A v B B v & ; y ` v V Z B Z B B Z Z C C Z B A A S B B B B B B Z n C m B C x d X 1 x V B N S V B B B Z B B C C ",
"B C C ` S ` +.;.w.w.#.S S $.` S A Z C Z v V Z _ B _ _ B ) v d * $ x A B C ` C @.@.w.w.w.@.N @.$.D C Z Z C S Z Z Z _ Z v Z S v Z ",
"v.S.S./.~.[.[.$X=X=X@X'./.]._.P.7.k.k.Y.P.k.V.h.L.h.h.P.l.K.h.i B 4.J.V.~.+X^.[.oX=X$X=XoX~.XXXXF.S.G.V.V.h.v.S.h.k.k.P.k.h.h.V.",
"B.B.f.B.h.h.h.h.h.g.h.g.h.h.j.h.K.V.V.v.h.h.v.K.7.k.P.y.k.f.W.B c h.j.h.G.l.d.h.h.l.k.h.g.g.g.h.j.l.g.l.h.h.j.l.J.h.h.K.h.K.R.j.",
"Q.S.V.S.A.V.A.V.h.v.v.v.v.K.V.V.k.7.k.7.G.V.V.V.d.j.B.7.K.B.A.x V !.S.k.G.A.v.V.h.v.5.h.G.h.V.r.h.v.v.v.v.h.h.v.P.7.h.h.V.r.S.v.",
"G.v.7.G.G.G.V.G.A.S.S.A.D.r.G.S.v.v.G.J.S.v.4.1.J.d.x.&.R R } 1 B !.h.7.G.V.V.U.J.J.G.S.G.G.U.v.D.D.S.S.S.Q.r.q.3.5.T.4.r.R ` ` ",
"h.h.h.h.h.h.h.h.h.h.h.v.v.h.V.K.A.v.v.A.c.x.O.! S.&.u.%.u i k O B K.h.h.V.B.h.g.h.B.h.h.h.h.h.k.v.v.h.V.V.V.h.h...3.x.>.r.V x i ",
"V.k.K.v.K.v.h.K.K.P.P.G.V.V.T.V.h.g.g.l.h.j.h.h.|.Y.|.@XL._.7.B x 5.j.h.G.S.K.P.v.k.K.V.V.V.V.J.K.Y.V.V.V.Y.V.h.K./.}.R.#X_.I.y.",
"&.&.-.&.-.&.&.&.&.&.&.&.&.&.&.&.&.&.&.-.-.-.&.-.%.&.| =.&.>.{ 0 =  .>.&.&.>.-.-.&.&.-.&.&.&.&.&.&.&.&.&.&.&.&.&.&.&.&.%.&.&.&.-.",
"t t s 1 1 t t 1 r s 1 t r t o + = s t 1 f 2 f f 5 M N M 5 j f s s s s 1 s f t t 1 t s 1 t h 1 = O * t y 1 5 2 u j f 5 M M M f k ",
"v.G.y.7.r.G.U.U.z.S.S.P.S.x.b 0 >.7.F.!.'.~.oX@X%X-X>X,X=XoX).y.U.V.G.U.G.r.G.V.G.k.h.T.h.d.J.>.0 v 3.B.^./.'./.oX%X=X>X,X:X*XoX",
"d.d.d.f.x.d.d.d.f.v.k.h.g.h.R y B.B.l.l.l.h.h.h.V.P.P.U.k.G.h.f.h.j.j.K.j.1.3.h.v.h.5.h.h.7.4.4.% | V.l.Y.k.h.h.V.7.7.k.G.k.7.k.",
"K K K T { K K T ! 2.y.I.8.t./ f A.v.d.h.V.V.F.G.A.x.A.v.A.A.Q.A.S.A.A.x.3.o.| o.A.y.>.~.e.i , % $ @.r.k.e.r.I.F.Q.J.A.A.A.A.A.A.",
"T T T K G G T T K T 5.A.h.J.%.1 S.S.G.F.U.r.G.7.h.K.K.P.V.Y.h.7.7.k.7.k.I.F.~./.k.7.@X}./.+X/.3.< -.Q.V.h.S.v.c.h.h.k.P.G.k.h.h.",
"J F K P Q G G G L T ! h.j.T.&.i h.V.7.V.k.h.h.7.k.k.7.h.7.h.k.k.h.P.h.h.k.V.k.h.K.h.d.h.h.5.K.v.t &.B.l.j.k.B.K.k.k.7.7.7.h.k.k.",
"@ = e H { T K K T T >.G.h.7.D t h.R.h.h.h.F.P.k.q.S.S.S.U.v.G.r.V.V.G.v.v.G.v.v.v.S.V.7.P.T.r.e.d } 5.g.7.7.7.h.r.v.S.Q.S.E.r.v.",
". . % d b K T K K K [ 5.d.3.x = U q.x.q.5.5.5.7.5.5.d.7.5.7.5.v.7.5.5.7.7.5.7.7.0.8.1.h.5.5.f.W = v 3.v.5.7.r.r.5.5.5.5.5.d.7.5.",
"$ $ $ $ * < < < 3 < $ * 1 * * * * 1 * 1 * * * = * 4 < X 1 $ * ; * ; = 1 = 1 < > < < < < < 1 < * $ $ < < < < * = * = = * $ $ < $ ",
"7.4.7.y.).[.[.[.[.U.y.G.r.7.5.1.4.4.7.5.7.7.7.7.5.4.7.7.k.5.>.9 y &.4.r.0.i..XoX'.[.[.y.r.I.U.1.r.q.q.q.5.<.| K [ J v d *   o o ",
"h.h.7.h.h.V.h.K.k.h.h.l.Y.h.j.l.l.h.Y.h.h.K.h.d.v.v.v.v.K.v.r.B V v.K.K.d.h.J.K.V.P.l.h.h.l.l.d.v.h.l.h.h.h.! G G L T l = $ + - ",
"E.Q.Q.Q.Q.S.E.S.D.D.D.A.S.A.A.S.V.K.v.v.o.q.E | Q ..T 9.y.B 1 O V E.h.h.S.S.G.h.Q.v.v.S.J.S.A.S.G.k.7.h.G.G.1.K G K T J 0 $ X o ",
"7.k.7.G.G.k.r.G.G.G.U.y.U.k.7.G.7.k.7.G.7.+XS./.'.@XL.7.J.d.O.y Z ~.G.V.G.v.r.G.h.G.k.7.7.P.h.7.S.A.v.c.S.A.3.K T P Q P K J J Y ",
"h.V.h.V.h.h.h.h.h.h.k.h.h.h.V.V.l.h.P.k.v.T.V.P.R.k.7.h.h.k.r.B a r.h.g.P.h.h.Y.v.h.h.V.h.V.Y.V.h.h.v.h.v.v.,.U { K K K K K K L ",
"A.v.S.A.A.A.Q.S.S.A.A.A.S.A.A.D.v.v.V.v.D.x.A.A.V.7.F.I.7.F.~.Z V G.l.j.j.v.h.h.S.v.d.S.V.h.5.v.7.k.k.k.P.G.,.T Y Y T Q T T G G ",
"G.G.h.k.h.k.k.G.v.h.k.k.7.G.k.k.G.V.h.P.h.k.k.V.B.V.G.k.k.S.3.p i 4.J.v.v.!.D.J.k.G.P.k.G.V.G.k.F.Y.G.h.V.d.o.K Q L P P Q K T Q ",
", f , u f t t t u 1 s s s s s 6 t d t i s t t , u t 1 t s s = @ $ 1 s s t f s r g s s f t f s y s s t t t t t 8 0 = 0 = = = 4 w ",
"e.e.=.%.&.%.&.-.&.&.&.%.E R g % V %.=.-.:.:.e.i.e.t.e.:.=.=.=.-.:.t.t.:.%.%.&.=.} &.%.%.%.} &.A = g R | =.=.R A z b c c z z z z ",
"]./.T.G.T./.S.A.h.h.G.V.T.r.A t 5.S.S.S.!.I.).'.).'.'.F.h.k.G.G.T./.'.!.L.U.G.G.P.F.h.h.J.S.S.7.1 R x.S.F.y.q.3.Q Q Q G G L K K ",
"h.h.V.d.h.h.( ! 5.4.4.y.4.a r h G.P.h.k.Y.k.G.7.h.h.h.h.k.K.k.d.8.7.h.k.h.h.h.h.( o.c.,.5.D.Y a = %.B.l.V.V.h.h.3.3.3.3.3.,.3.3.",
"U.U.F.v.J.'.h.5.].S.q.r.4.A t f h.V.v.k.k.h.h.G.V.V.k.h.V.V.K.V.V.V.V.V.h.h.T.}.4.V.+X5.5.W.R x $ %.v.h.h.v.h.h.S.S.S.V.P.V.S.G.",
"k.U.7.7.F././.F.}.Y.h.d.P.V.%.t S.Q.v.v.V.h.v.h.V.V.D.v.v.h.v.S.r.k.V.S.G.S.R./.F._._.k.r.v.y.7.t =.Q.B.k.U.G.V.V.v.V.V.h.V.G.V.",
"7.G.k.h.v.k.k.7.d.Y.Y.h.j.h.&.y v.V.h.v.V.V.V.h.h.h.V.K.V.G.V.h.h.k.v.h.V.V.7.7.k.7.7.P.k.d.h.K.h | r.v.7.7.h.h.V.h.h.v.h.V.V.G.",
"h.Y.h.K.S.h.Y.Y.I.y.h.V.T.7._ t 5.v.V.T.V.h.V.T.Y.V.h.l.k.h.h.h.h.Y.P.h.k.h.Y.R.Q.S.T.V.h./.B.s.y A h.R.k.G.J.K.l.Y.l.k.Y.k.h.k.",
"A B V A A Z Z D Z Z Z A A l 0 @ g v A A S Z A S V A V B V Y V ) ) ) A C n ) Z C Z ) x A A B A x @ 0 k ) S B Z S A A Z A S C B S ",
"B n B C S S D @.#.#.#.S S @.@.N B B B k k v k k N k ) Z n Z h 4 % y x V B D C D ~ ;.;.;.+.n S S A B Z Z B x x x N k B k Z v v x ",
"I.I.~.~.'.'.XX=X;X>X$X~.F.].`.t.G.P.G.h.P.T.P.P.Y.d.h.U.k.V.4.i x 4.I./.~.'.~.XXoX=X=X=XoX~.XXoX/.Q.v.D.S.Q.^.Q.J.K.R.h.h.G.^.T.",
"h.V.h.P.h.h.V.J.v.v.c.v.K.K.j.l.f.B.B.j.K.v.v.B.j.R.h.P.h.f./.B V G.P.V.G.G.h.J.h.V.h.h.h.d.B.h.V.h.h.V.h.h.V.h.7.k.h.k.6.k.k.5.",
"G.7.G.G.U.7.7.7.G.h.h.k.h.h.5.h.7.U.k.r.G.r.r.U.h.h.h.r.G.S.E.B V I.V.h.h.S.h.h.v.G.k.G.V.h.G.h.V.h.v.V.h.h.v.v.y.8.8.U.G.T.P.S.",
"F.F.v.v.K.S.S.v.r.k.r.G.U.k.k.P.h.g.7.k.P.k.1.<.V.3.D.&.E | A = B ~.r.h.K.S.v.h.G.r.G.r.r.G.G.r.V.h.h.k.v.v.v.h.s.s.f.3.5.R %.%.",
"K.v.h.h.h.h.j.h.h.v.V.v.V.V.V.h.S.Q.x.A.Q.x.O.{ i.4.u.` u t k 3 B E.V.h.K.S.V.h.V.h.k.h.V.Y.V.V.V.v.V.V.V.V.v.4...9.Q.4.e.B f 2 ",
"k.k.V.P.P.G.V.U.V.h.h.k.G.7.k.V.k.h.v.k.V.V.k.G.|.l.{.#X_.h.^.a a v.h.l.h.k.V.V.V.h.V.v.h.V.k.V.V.k.V.V.v.K.T.V.8./._.P.#X}.R.V.",
"&.>.>.>.&.>.:.*.<.*.&.&.<.,.&.:.&.&.&.&.>.,.&.( >.<.&.&.:.-.S y q Y 4.&.&.2.2.&.&.-.*.&.:.*.&.>.:.2.>./ *.%.&.<.&.&.&.&.-.-.>.-.",
"2 2 4 4 1 1 1 1 1 1 4 4 1 = + + * s f 5 5 < f 6 2 7 M j 5 s s s 3 5 5 1 1 5 < 1 f 1 s t 1 s s = o * = s 5 5 4 t f u 5 j j j j 5 ",
"k.k.h.v.S.J.J.B.v.A.Q.v.Q.5.A 9 ,.d.A.S.XXI.$XoX&X,X,X,X;XoXT.7.Q.v.h.h.v.v.P.V.d.K.h.V.v.x.E.&.= A 3.h.F.'././.oXoX=X:X,X-X&XoX",
"5.5.q.7.r.5.q.d.h.h.k.7.h.U.D r c.j.l.h.R.h.k.1.d.4.3.1.5.v.j.f.v.h.v.K.v.5.5.h.h.h.5.7.T.D.4.0., } j.l.h.k.k.g.f.d.7.h.7.h.d.d.",
"] T K T T T K Q ..3.x.v.k.r.=.h G.7.8.7.S.d.o.o.] ] { T T Y K H 3.Q.J.v.3.o.o.T T.e./ ~.t.r % , < $.E.S.7.r.y.7...{ K H F K K ] ",
"Q G L L L L U G G ! x.v.h.k.} y G.G.G.k.d.,.G L K G U G G K K T ( h.h.h.V.Y._.L.5.R. X}./.}./.<.r &.A.j.f.v.a.W T U T ! Q Q L P ",
"J J T ..P P G K P K O.x.v.E.-.s v.G.v.S.v.T K K T K K P ] K J J &./.U.7.G.r.F.k.V.V.h.k.6.7./.7.s &.D.v.S.Q.3.T T L L L P { { J ",
"o = y J { T K K K K 1.V.k.8./ t K.B.h.h.h.U T P L T T K z 0 $ X I V.V.h.V.v.V.V.D.v.G.h.Y.V.5.V.t %.P.h.7.y.3.G T T K K T J d $ "
};
