/* XPM */
static char *_79e5b23620b48a7d29088453daeb9895dhk2zaEbtYSXWPH[] = {
/* columns rows colors chars-per-pixel */
"64 64 190 2 ",
"   c #3F3851",
".  c #6C5664",
"X  c #655C65",
"o  c #6B5A64",
"O  c #6C5669",
"+  c #675B69",
"@  c #6D5A6A",
"#  c #755664",
"$  c #785562",
"%  c #735B66",
"&  c #7A5C65",
"*  c #7E5769",
"=  c #745D6B",
"-  c #7C5D6B",
";  c #6D5F70",
":  c #745D71",
">  c #746165",
",  c #7D6266",
"<  c #75616C",
"1  c #7C636D",
"2  c #7E696D",
"3  c #756271",
"4  c #7D6572",
"5  c #7E6972",
"6  c #7E697C",
"7  c #845B66",
"8  c #835D69",
"9  c #8E5D6A",
"0  c #805F70",
"q  c #8B5E71",
"w  c #816266",
"e  c #83646D",
"r  c #8A646D",
"t  c #846A6D",
"y  c #8B6A6D",
"u  c #936C6E",
"i  c #846572",
"p  c #8B6571",
"a  c #836B74",
"s  c #8D6B73",
"d  c #826778",
"f  c #836F78",
"g  c #8D6D79",
"h  c #966674",
"j  c #9B6776",
"k  c #936D74",
"l  c #9B6B75",
"z  c #946E79",
"x  c #9D6A79",
"c  c #8E7275",
"v  c #8D7877",
"b  c #85717A",
"n  c #8D747A",
"m  c #937375",
"M  c #9A7375",
"N  c #947877",
"B  c #95747A",
"V  c #9A747B",
"C  c #957A7B",
"Z  c #9B7B7D",
"A  c #A66D77",
"S  c #AD6E76",
"D  c #A5677C",
"F  c #A46C7B",
"G  c #AC6E7B",
"H  c #B06C76",
"J  c #B16D7C",
"K  c #A27175",
"L  c #AC7176",
"P  c #A3737B",
"I  c #AD717B",
"U  c #A47B7D",
"Y  c #AB7B7D",
"T  c #B27877",
"R  c #B1727C",
"E  c #B37C7E",
"W  c #96827F",
"Q  c #AE837E",
"!  c #B3807F",
"~  c #576789",
"^  c #967683",
"/  c #9B7582",
"(  c #9D7C82",
")  c #AE6E80",
"_  c #B26E80",
"`  c #A77580",
"'  c #AD7381",
"]  c #A47D82",
"[  c #AC7D83",
"{  c #A77F88",
"}  c #B17382",
"|  c #BE7787",
" . c #B37C83",
".. c #BB7F84",
"X. c #6D8A9D",
"o. c #968385",
"O. c #9B8284",
"+. c #9D8B87",
"@. c #9E8589",
"#. c #A58283",
"$. c #AB8385",
"%. c #AC8884",
"&. c #A58389",
"*. c #AC8489",
"=. c #A18D8A",
"-. c #AD8B8C",
";. c #B38384",
":. c #BA8385",
">. c #B38985",
",. c #BB8A86",
"<. c #B48588",
"1. c #BB858A",
"2. c #B48B8B",
"3. c #BD8D8C",
"4. c #BD9186",
"5. c #BD928C",
"6. c #BC988D",
"7. c #B78E90",
"8. c #BE8E91",
"9. c #A49192",
"0. c #B59494",
"q. c #BD9492",
"w. c #B79995",
"e. c #BD9993",
"r. c #BA959C",
"t. c #BB989A",
"y. c #BCA092",
"u. c #82A0AD",
"i. c #8CA9B5",
"p. c #C18587",
"a. c #C3858A",
"s. c #C28D8C",
"d. c #C88D8F",
"f. c #C39387",
"g. c #C3948D",
"h. c #C9958E",
"j. c #C4988E",
"k. c #C8998F",
"l. c #C38E92",
"z. c #C78E97",
"x. c #C98E90",
"c. c #C39391",
"v. c #C49592",
"b. c #C69397",
"n. c #C29494",
"m. c #C29695",
"M. c #C99592",
"N. c #C99595",
"B. c #C49993",
"V. c #C19894",
"C. c #C99893",
"Z. c #C99A95",
"A. c #CA9A94",
"S. c #C69699",
"D. c #C99599",
"F. c #C59B9A",
"G. c #CA9C9A",
"H. c #C7A196",
"J. c #CBA296",
"K. c #C5A19A",
"L. c #CBA29C",
"P. c #CAA39C",
"I. c #CAA89F",
"U. c #D0A295",
"Y. c #D2A39B",
"T. c #D6A99C",
"R. c #D9A99F",
"E. c #E3BE85",
"W. c #C6A3A1",
"Q. c #CEA4A1",
"!. c #CDABA3",
"~. c #D3A4A2",
"^. c #D7A6A1",
"/. c #D2ABA4",
"(. c #DAAFA2",
"). c #D4AEA9",
"_. c #CBB1A4",
"`. c #CDB6A8",
"'. c #D1B1A6",
"]. c #D5B4AC",
"[. c #D6BAAE",
"{. c #D5B6B1",
"}. c #D4BFB1",
"|. c #DABDB3",
" X c #DAC3B5",
".X c #FFEFA9",
"XX c #A7C6C6",
"oX c #C2D2D3",
"OX c #C5DFD7",
"+X c #F2F7F6",
/* pixels */
"# = = . o r F I _ G  .3.b.c.g.b.g.B.g.v.v.h.N.g.V.c.m.g.g.D.1.9 O o o O @ . - j I I G I ;.l.c.b.v.v.v.c.h.3. .G I I F p # + ; + ",
"o + X . - h G G I I E g.v.j.g.j.h.N.g.j.5.v.g.g.3.j.j.3.j.5.2.V o % o # @ @ - F S S G R s.k.v.h.h.g.j.h.g.g.;.G L G ) x - . O # ",
". X . o r x ' R R L :.M.g.g.g.s.c.c.v.3.E s.Y Y | _ I l.D.M 1 o . o % $ # % p ' I I I L s.g.5.j.f.g.g.g.h.g.:.G G G I ` r % # # ",
"P G F A F G G G G D ..D.c.c.Z.m.M.v.v.M.3.T.g.Y.I./.m.s.h.3.2.t - h F F D F G J J J J G l.d.v.m.N.S.c.l.c.h.1.G I S G I F l F F ",
"H H H G G L I L I I 1.m.c.q.B.v.m.c.c.V.q.Z.v.F.q.y.5.j.g.g.v.m p P } J I I H H I G I I c.j.5.v.q.B.c.v.e.v.:.P I S S S I I L I ",
"I S G G I I I I H S :.g.g.g.g.g.g.g.g.c.N.c.c.v.c.D.D.c.M.m.t.m p F E S S I I I L L I L 1.h.j.M.h.v.M.M.g.g...G I I R G S G G G ",
"' G ' ' R ' ) J I I  .3.c.m.N.D.j.f.j.h.N.f.g.g.m.m.m.v.N.g.1.h q D J R ' J G G I R R I 1.s.D.D.q.m.S.m.v.5.;.J G G R _ J _ } } ",
"- - - & - & & - - - - , 2 e 1 e 4 4 a 4 4 a 4 1 w i 4 1 a 1 1 = @ - 7 & < - & 4 = - - - < 1 1 1 a 1 1 e 2 , - 8 1 - % 1 - & % = ",
"x j x l x x x F l P Y $.%.Y r = M *.$.$.0.2.w.w.w.w.0.2.$.$.$.#.` x x D j j F x F h l P $.2.[ M - p U ;.$.&.[ K x x l x j x x x ",
"S S R H S S S L L a.N.Z.j.3.P i s.N.N.v.G.v.G.Z.G.I.J.v.j.g.M.h.:.G S G S S H G G R E s.c.s.c.d.e V g.M.Z.c.g.:.R H R H S H S S ",
",.,.3.,.2.s.:.:.5.d.c.5.V.G.*.e v.d.g.h.g.g.h.c.f.g.v.g.g.g.c.h.s.,.,.1.,.,.,.>.3.2.1.h.Z.m.m.m.t $.g.g.g.g.v.h.3.,.,.,.,.,.,.,.",
"M.c.m.g.m.m.2.;.2.3.7.&.k s i 5 m.c.b.m.m.m.m.m.b.m.c.b.S.m.m.m.m.v.m.Z.m.v.b.c.[ ;.d.>.2.q.M y o #.D.m.j.c.e.v.m.m.N.m.c.D.m.m.",
"c.g.v.g.m.G.h.,.J.h.2.*.U P s 5 v.5.j.c.5.v.v.v.g.v.v.h.v.h.5.j.N.c.c.c.c.M.Z.G.1.c.^.s.s.N.Q m % &.D.N.c.c.q.c.v.v.m.c.c.v.v.v.",
"g.g.h.5.j.G.Z.G.J.Z.M.Z.v.c.U t d.k.h.j.g.g.j.f.v.f.f.g.f.g.g.j.g.g.j.g.j.j.j.G.g.J.J.f.h.B.v.3.t $.v.M.g.h.v.h.j.5.j.h.h.g.5.h.",
"Z.v.Z.c.c.c.c.m.v.N.N.m.S.l.P w ,.m.v.m.B.B.B.6.B.c.c.B.v.v.v.v.c.M.m.m.b.m.M.N.m.m.g.M.j.m.D.a.e P 3.N.B.B.D.m.v.m.m.N.N.m.m.N.",
"N m N m B B m B m V z m m z * : r ( z M B m B m m B B N C B m V V C m m m m m m B c N v m N k p o 1 k M m n C M m m m B m m N N ",
"m N N ( C ( o.+.9.9.+.C C @.( C V B N B z M B / m / / m ^ z p = % k B N N ( C O.O.9.9.9.O.n O.@.Z N B B N C B B B / B z B N B B ",
"c.m.m.G.F.!.I.).].]./.P.G.P.J.v.5.j.j.C.B.j.c.h.j.h.g.B.k.v.g.y m 2.M.v.F.~.Z.P.!.].'.].!.F.Q.P.m.m.c.M.c.g.c.V.g.j.h.B.j.g.g.v.",
"h.v.d.h.g.g.g.g.g.f.g.f.g.g.h.g.M.v.M.c.g.h.c.M.5.j.v.e.j.x.S.m l j.h.g.c.C.s.g.c.M.j.g.f.f.f.g.h.k.f.k.g.g.h.j.N.g.g.M.g.M.Z.h.",
"S.m.v.m.b.v.b.v.g.c.c.c.c.M.c.N.j.5.j.5.c.v.v.v.s.h.v.5.M.h.b.k M G.m.h.v.m.c.v.g.j.3.g.c.h.B.q.g.c.c.c.c.g.h.c.B.5.g.g.v.q.m.c.",
"v.c.5.v.v.v.M.v.m.m.m.b.q.q.v.m.c.c.v.N.V.c.2.,.m.s.x.$.U U ] 1 m S.g.5.v.v.M.B.N.N.v.m.c.c.B.c.c.m.m.m.m.S.q.8.1.3.Z.2.q.U ( ( ",
"g.g.g.g.g.g.g.g.g.h.g.c.c.h.M.M.b.c.c.m.x.l.:.E m.$.r.#.t y g + m M.g.g.v.M.g.f.g.v.g.h.g.h.g.B.c.c.h.v.v.v.g.g.' 1.x.;.q.M k y ",
"v.h.M.c.M.c.g.M.M.C.v.v.v.v.Z.m.g.f.f.h.g.h.g.g.T.Z.T./.j.J.5.m k 3.h.g.v.m.M.B.v.j.v.v.v.M.v.N.M.N.v.M.M.M.v.h.N.G.Y.C.(.J.m.e.",
"$.$.*.$.*.$.$.$.$.$.$.$.$.$.$.$.$.$.$.*.*.*.$.*.#.$.[ &.$.;.' 8 - { ;.$.$.;.*.$.$.$.*.$.$.$.$.$.$.$.$.$.$.$.$.$.$.$.$.#.$.$.$.*.",
"e e i 1 1 e e 1 w i 1 e w e O @ - i e 1 a 2 a a 5 b n +X+Xb a i i i i 1 i a e e 1 e i 1 e d 1 - + = e r 1 5 2 t b a 5 b b b a g ",
"c.c.e.5.q.m.B.B.z.m.m.v.q.c.x 8 ;.5.b.G.P.F.!./._.[.|.+XoX!.H.e.B.c.c.Z.c.q.v.v.c.h.g.Z.g.s.N.;.8 z 1.v.m.G.P.G.!._.].|. X}.'.!.",
"s.s.s.x.x.s.s.s.d.c.j.g.f.h.U r h.v.j.k.B.h.g.g.v.v.B.B.j.c.g.d.oX+Xh.v.h.,.1.h.c.g.3.g.g.5.2.2.& [ v.k.Z.h.h.g.v.5.5.j.c.j.5.j.",
"G G I I ' G G I E <.e.V.5.w.Q a b.g.d.g.v.c.Z.c.m.l.b.g.b.b.    m.b.b.x.1.E..X .m.e.;.F.0.y , & % O.q.j.0.q.B.m.D.N.b.b.m.b.b.b.",
"I I I G S S I I G I 3.b.g.N.#.1 m.m.v.m.v.q.c.5.g.M.M.B.v.  h.5.  j.5.j.e..XF.G.j.5./.Y.G.~.G.1.< *.D.v.g.m.c.d.g.g.j.B.v.h.g.g.",
"F A G G R S S S S I E g.h.Z.$.y g.v.5.v.j.h.h.5.j.h.5.g.      j.g.B.g.g.g.m.j.h.v.h.s.g.g.3.M.c.e $.h.k.h.j.v.M.j.j.5.5.5.g.j.j.",
"# - q D ' I G G I I ;.v.g.5.Z e g.Z.g.g.g.m.v.j.8.m.m.  OXXXX.  v..XE.c.c.c.c.c.c.V.v.5.v.Z.q.w.p ] 3.f.5.5.5.g.q.c.m.D.m.S.q.c.",
"X X & p x G I G G G ` 3.s.1.k - L 8.l.8.3.3.3.5.3.3.              E..X5.5.3.5.5.7.5.,.g.3.3.d.T - z 1.v.3.5.q.q.3.3.3.3.3.s.5.3.",
"% % % % = = < < 3 < % = 1 = = = = 1 = 1 = = = - =   u.i.i.i.u.X.~   - 1 - 1 < > < < < < < 1 < = % % < < < < = - = - - = % % < % ",
"5.2.5.e.H.I.!.!.I.B.e.v.q.5.3.,.2.2.5.3.5.5.5.5.  X.XXOXi.XXi.u.X.~   q.2.t.W.!.L.I.I.e.q.B.B.,.q.8.8.8.3.>.[ G ` F z p = . O O ",
"g.g.5.g.f.m.g.N.j.g.g.B.C.h.h.M.j.g.M.h.g.M.g.  X.u.OXXXi.i.i.i.X.X.    s.g.Z.N.m.B.j.h.g.k.k.d.c.g.j.g.g.g.E S S H I h - % @ ; ",
"S.D.D.D.S.m.S.V.m.c.c.S.c.S.m.m.v.M.c.c. .8.Y   X.i.i.i.i.i.i.i.X.X.    m.m.c.h.D.c.g.m.N.m.m.m.c.h.5.g.v.v.,.G S G I F 8 % o O ",
"5.h.5.c.v.h.q.c.c.v.Z.e.Z.g.5.v.5.j.5.v.5.~.m.  X.i.i.i.i.i.i.i.X.X.    c.c.q.v.g.c.j.5.g.v.h.5.m.S.c.x.m.b.1.G I J R J G F F P ",
"g.v.g.v.g.g.g.g.g.g.j.g.g.g.m.v.M.g.B.j.c.Z.v.  X.u.i.i.i.i.i.u.X.X.    B.g.g.Z.c.g.g.v.g.v.B.v.g.g.g.g.c.c.:.L ' G G G G G G H ",
"S.c.V.S.m.b.D.m.m.m.c.b.m.S.S.c.g.m.v.h.m.l.m.  ~ X.u.i.i.i.u.X.X.~     h.c.g.g.m.c.s.m.v.g.3.c.5.j.j.j.B.c.:.I P P I R I I S S ",
"c.c.g.h.g.j.h.v.c.g.B.g.5.c.g.B.c.v.g.B.h.j.j.    ~ X.X.X.X.X.X.~       c.F.c.N.h.v.B.j.v.v.v.j.m.M.v.h.v.s. .G R H J J R G I R ",
", a , t a e e e t 1 i i i i i d e p e y i e e ,     ~ X.X.X.X.~       i e a i w s i i a e a i r i i e e e e e 7 8 - 8 - - - 4 0 ",
"0.0.&.$.$.#.$.*.$.$.$.#.Y U s & M #.&.*.-.-.0.t.0.                  w.-.#.#.$.&.] $.#.#.#.] $.V - s U [ &.&.U V l x l l j j j j ",
"I.G.Z.c.Z.G.m.b.g.g.v.v.Z.q.V e 3.m.m.c.F.e.J.P.H.P.              G.P.F.j.v.B.v.B.m.g.g.N.m.m.5.1 U l.m.m.e.8.1.R R R S S H G G ",
"f.g.m.s.g.g.E E 3.2.2.q.2.u w a v.v.h.j.Z.g.c.5.g.g.g.g.g.v.j.s.6.5.g.h.g.g.j.h.!  .d.:.3.c.P u - #.h.k.v.v.g.g.1.1.1.1.1.:.1.1.",
"B.B.m.c.N.I.f.3.L.m.8.q.2.V e a g.v.c.j.j.g.g.m.M.v.j.h.v.v.M.v.v.v.M.v.h.g.Z.Y.2.M.^.3.3.G.U k % #.c.g.g.c.g.h.m.m.m.M.v.M.m.v.",
"j.B.5.5.m.G.G.b.Y.Z.j.s.B.N.#.e m.D.c.c.m.h.g.g.v.v.m.c.c.h.v.m.q.j.v.m.g.m.Z.G.m.J.J.j.q.c.e.5.e &.D.v.j.B.v.v.v.v.v.m.g.v.v.v.",
"5.v.j.g.c.h.h.5.s.M.v.h.h.g.$.r c.v.h.c.v.v.c.g.g.g.v.M.v.v.v.g.g.j.m.g.c.v.5.5.h.5.5.B.g.s.g.M.a [ q.c.5.5.g.g.M.g.g.g.g.v.v.v.",
"h.C.g.v.m.g.B.Z.e.e.h.v.Z.5./ w 3.v.v.Z.v.h.v.Z.C.v.h.j.h.g.g.g.g.M.B.g.j.g.N.C.D.m.Z.v.g.G.m.a.r V h.M.j.v.N.M.k.M.C.j.Z.g.h.j.",
"V m M V V B B Z B B B V V h 8 # s z B V C B B Z M B M m M P M ^ ^ ^ V C c ^ B N B / k B B m V k # 8 g ^ C m B C V V B V N N m C ",
"m c m N C C Z O.+.+.+.C C O.O.n m m m g g z g g n g / B c B d 4 & r k M m Z N Z W =.=.=.O.v C C V m B B m k k k n g m g B z z k ",
"B.m.F.F.L.P.Q.].{.|.).F.V.P.F.w.v.B.c.g.B.Z.B.B.M.s.g.m.g.v.2.y k 2.c.G.F.P.F.Q.!.].].].!.F.Q.!.G.D.m.c.m.D.Z.D.N.v.Z.g.g.c.F.Z.",
"g.m.f.B.g.g.v.N.m.g.d.c.M.M.h.k.d.h.h.h.M.c.c.h.h.C.g.B.g.x.G.m M v.B.v.v.v.g.N.g.v.g.g.g.s.v.g.m.g.g.c.g.g.v.g.5.h.h.j.5.j.h.3.",
"c.5.c.c.B.5.5.5.v.g.g.g.h.g.3.g.5.B.j.q.g.q.q.B.h.g.h.q.c.m.S.m M B.v.g.g.m.g.g.c.v.h.c.v.h.c.g.M.g.c.v.g.g.c.c.e.6.6.B.c.Z.B.c.",
"m.m.c.c.M.V.m.c.q.j.q.m.B.j.j.v.g.g.5.j.S.h.3.>.v.1.m.$.Y [ V - m F.q.g.M.m.c.g.v.q.c.q.q.v.c.q.v.g.h.j.c.c.c.g.a.a.d.1.5.U #.#.",
"M.c.h.h.g.g.h.g.g.j.v.g.v.v.v.h.m.S.l.N.S.s.:.I t.2.t.( t e g 3 m S.v.g.M.m.v.h.v.g.j.g.v.Z.M.c.v.c.v.v.v.v.c.2.} a.D.2.0.m a 2 ",
"j.j.v.v.B.v.v.Z.c.g.h.j.v.5.j.v.h.g.c.j.v.m.j.m.T.j.U.(.J.g.Z.u u c.g.k.g.j.v.v.v.h.B.c.g.v.h.m.M.h.v.v.c.M.Z.M.e.G.J.B.(.Y.Z.v.",
"$.;.;.;.$.;.-.%.>.%.$.$.>.:.$.-.$.$.$.$.;.:.$.E ;.>.$.$.-.*.C r 9 P 2.$.$.;.<.$.$.$.%.$.-.%.$.;.-.;.;.Q %.#.$.>.$.$.$.$.*.*.;.*.",
"2 2 4 4 1 1 1 1 1 1 4 4 1 - @ @ = i a 5 5 < a 6 2 5 b f 5 i i i 3 5 5 1 1 5 < 1 f 1 i e 1 i i - O = - i 5 5 4 e a t 5 5 b f f 5 ",
"j.j.g.c.m.N.N.v.v.b.D.c.D.3.V w :.s.b.m.Q.B.).!.`. X X X{.!.Z.5.D.c.g.g.c.c.B.M.s.M.h.v.c.c.S.$.- V 1.g.m.L.G.G.!.!.]. X X[.`.!.",
"3.3.l.5.q.3.8.s.g.g.h.5.g.Z.Z w x.h.j.h.Z.g.j.,.g.2.1.,.3.c.h.x.c.g.c.M.c.3.3.g.g.g.3.5.Z.c.2.7., ] h.j.h.j.j.f.d.s.5.g.5.g.s.3.",
"J I G I I I G R ' 1.l.c.h.q.&.6 v.5.5.5.m.s. . ._ J ' I I P G D 1.D.N.c.1. . .I Z.0.Q F.w.w & , < @.S.m.5.q.e.5.} ' G D A G G J ",
"R G H H H H L S S E l.c.g.j.U r v.v.B.j.s.:.S H G G L S S G G I E g.g.g.v.Z.J.j.3.M.R.Y.G.Y.G.>.w $.S.h.d.c.p.T I L I E R R J J ",
"F F I } J J S G J G :.x.c.S.*.i c.v.c.m.c.I G G I G G J _ G F F $.G.B.5.v.q.m.j.v.v.g.j.4.5.G.5.i $.c.c.m.D.1.I I H S H J ' I F ",
"O - r F ' G G G G G ,.v.j.6.Q e M.v.g.g.g.L I J H I I G l 8 % o K v.v.h.v.c.M.M.m.c.c.h.Z.v.3.M.e #.v.g.5.e.1.S I I G G I F p = "
};
