/* XPM */
static char *Ym9tYl9iYWNr[] = {
/* columns rows colors chars-per-pixel */
"64 64 228 2 ",
"   c #3D354E",
".  c #37374F",
"X  c #3C3953",
"o  c #3D3753",
"O  c #45394F",
"+  c #423652",
"@  c #433A53",
"#  c #4A3C54",
"$  c #4D3F58",
"%  c #533B53",
"&  c #3C4B5E",
"*  c #52414C",
"=  c #4C4154",
"-  c #45445C",
";  c #484A5C",
":  c #524354",
">  c #544B5C",
",  c #56465B",
"<  c #644E5C",
"1  c #68525D",
"2  c #73575C",
"3  c #444561",
"4  c #464960",
"5  c #4A4D64",
"6  c #584E62",
"7  c #4B546D",
"8  c #5D5465",
"9  c #555568",
"0  c #4C5472",
"q  c #4C5872",
"w  c #565B75",
"e  c #645462",
"r  c #6C5564",
"t  c #6C5A64",
"y  c #6C5569",
"u  c #6D5A6A",
"i  c #655B68",
"p  c #745664",
"a  c #735B65",
"s  c #7B5D65",
"d  c #745C6A",
"f  c #7C5D6B",
"g  c #7A5665",
"h  c #6E5D72",
"j  c #4F6177",
"k  c #5B6A7E",
"l  c #59677A",
"z  c #58717E",
"x  c #52606D",
"c  c #6D6168",
"v  c #7C6166",
"b  c #75626C",
"n  c #7C636C",
"m  c #7E696D",
"M  c #756163",
"N  c #656575",
"B  c #7D6572",
"V  c #7E6972",
"C  c #776675",
"Z  c #7E717A",
"A  c #825D69",
"S  c #865B67",
"D  c #875E70",
"F  c #83646C",
"G  c #8A636D",
"H  c #83696E",
"J  c #8A696D",
"K  c #856365",
"L  c #936C6D",
"P  c #836572",
"I  c #8B6571",
"U  c #836B74",
"Y  c #8C6C73",
"T  c #8D6D7B",
"R  c #826B78",
"E  c #9B6776",
"W  c #936D74",
"Q  c #9B6B76",
"!  c #946E79",
"~  c #9D6A79",
"^  c #966674",
"/  c #8E7275",
"(  c #8D7479",
")  c #867379",
"_  c #937375",
"`  c #9A7375",
"'  c #95747A",
"]  c #9B747C",
"[  c #947A7B",
"{  c #9B7A7C",
"}  c #977877",
"|  c #AC6E76",
" . c #A46D7B",
".. c #AC6E7B",
"X. c #A66C78",
"o. c #B06C76",
"O. c #B16D7C",
"+. c #AC7176",
"@. c #A3727C",
"#. c #AD717B",
"$. c #A37A7D",
"%. c #AB7B7D",
"&. c #B1717C",
"*. c #B37B7E",
"=. c #B17776",
"-. c #97817E",
";. c #AD827D",
":. c #B3817F",
">. c #556583",
",. c #5D6D81",
"<. c #586882",
"1. c #5D758E",
"2. c #5B7285",
"3. c #5E7692",
"4. c #657989",
"5. c #737583",
"6. c #657B93",
"7. c #636E80",
"8. c #9D7B82",
"9. c #997682",
"0. c #887A87",
"q. c #AE6E80",
"w. c #B36F81",
"e. c #AD7381",
"r. c #A47D81",
"t. c #AA7E82",
"y. c #A57783",
"u. c #B17382",
"i. c #B37C83",
"p. c #BB7D85",
"a. c #6A8495",
"s. c #6A859B",
"d. c #6D8B9D",
"f. c #668498",
"g. c #728B9C",
"h. c #738799",
"j. c #7C969D",
"k. c #6A808E",
"l. c #6C8BA1",
"z. c #738DA3",
"x. c #7186A1",
"c. c #7592A3",
"v. c #7A95A4",
"b. c #7B99A6",
"n. c #7C9AAA",
"m. c #7995A9",
"M. c #9B8284",
"N. c #9A8688",
"B. c #859096",
"V. c #A58283",
"C. c #AB8384",
"Z. c #AC8985",
"A. c #AB8489",
"S. c #AE8C8C",
"D. c #A38789",
"F. c #B38484",
"G. c #BA8385",
"H. c #B48A85",
"J. c #BB8A86",
"K. c #B48689",
"L. c #BB858A",
"P. c #B48A8A",
"I. c #BD8D8C",
"U. c #BD938D",
"Y. c #BB958A",
"T. c #BE8D91",
"R. c #B68E90",
"E. c #A49192",
"W. c #BD9392",
"Q. c #BD9993",
"!. c #B79594",
"~. c #AF928E",
"^. c #BCA092",
"/. c #829EAA",
"(. c #84A1AD",
"). c #8AA3AE",
"_. c #8EAAAD",
"`. c #98ABAA",
"'. c #86A3B1",
"]. c #8AA6B2",
"[. c #8DA9B5",
"{. c #8DAAB8",
"}. c #87A8B1",
"|. c #90ACB6",
" X c #91ADB9",
".X c #8FB1B8",
"XX c #94B2BA",
"oX c #9ABABE",
"OX c #97B5BA",
"+X c #A3BAB4",
"@X c #C28D8C",
"#X c #C4888B",
"$X c #C3948D",
"%X c #CA948E",
"&X c #C4988E",
"*X c #C39387",
"=X c #C38E92",
"-X c #C98E90",
";X c #C19591",
":X c #C69591",
">X c #C49592",
",X c #C99493",
"<X c #C49993",
"1X c #CA9A94",
"2X c #C69699",
"3X c #C99599",
"4X c #C59B9A",
"5X c #CA9C9A",
"6X c #D09F9B",
"7X c #C6A19A",
"8X c #CBA29C",
"9X c #C9A498",
"0X c #D3A49A",
"qX c #CDA5A1",
"wX c #CDABA3",
"eX c #D4ABA4",
"rX c #CBB3A5",
"tX c #D5B4AB",
"yX c #D4BBAE",
"uX c #D1B1A6",
"iX c #D7BCB2",
"pX c #DBC3B6",
"aX c #9DBAC2",
"sX c #A2BDC1",
"dX c #ADC9CA",
"fX c #A7C3C4",
"gX c #B9D4D3",
"hX c #B4D0CE",
/* pixels */
"p d d r r G  .#.q...t.#X>X>X>X>X>X1X$X>X,X$X,X$X>X>X>X$X>X,XL.D p t t u u r f E #.#...*.i.I.>X>X>X>X,X>X;XI.i...#.....D p i N r ",
"t i i e f ! ..O.#.#.i.$X<X$X$X$X*X>X*X>X$X4X$X$XI.;X$XU.$XU.R.] a u t p y u f  .| | ..&.@X,X,X>XU.$X$X$X*X$XG.+.#...w.~ f r u p ",
"1 t t a G ~ e.O.&...G.,X$X$X$X$X>X>X>XI.%.$X%.%.p.u.#.=X>X` n u r t a p p s I y.#.#.&.+.@X*X$X$X$X>X$X$X%X$XG...+.X.e.] F a p g ",
"@. . .X. ...o.| ..X.p.,X$X>X2X>X$X>X,X,XI.0X%X6X5XwX<X@X%XI.S.J s ^  . .X.X...O...w.o...=X>X>X>X,X,X>X>X>X>XL.&.#.| o.u.X.~  . .",
"o.o.o.o...#.#.%.#.#.L.>X>XU.<X>X>X>X;X>X=X4X<X4XQ.^.Y.;X&X*X2X_ G e.u.o...&.o.o.#.X.&.#.>X$X;X>XW.<X;X>X;X<XF.X.#.| | +.#.#.#.#.",
"#.#.....&.#.#.X.| | G.>X$X$X>X$X$X$X$X>X,X>X>X>X,X3X3X-X,X2XQ._ P @.&.| X.#.#.#.+.#.#.+.I.U.$X1X$X,X,X,X>X@Xp.| #.&.#...| ....+.",
"e.@.e.e.#.e...O.X.#.t.#X>X>X,X3X&X*X&X*X1X$X*X*X>X<X;X>X,X$XI.^ D X.O.e.e.w.....#.O.O.#.G.@X,X3X;X<X>X>X>XU.F.u.X.O.u.O.w.w.u.u.",
"f A f s f s f f P f s n H n n F B B R B B V B B n F B B P n f u u f S s b s f B b f f f n n n n P m B n m v f A n f a v f s a f ",
"~ E ~ ~ ~  .~ ~ Q  .%.C.Z.%.G f ` C.V.A.!.S.!.!.!.Q.!.S.C.Z.C.C.y.~ ~ ~ E E  .E  .^ Q @.V.P.t.Q d I $.F.C.A.t. .~ ~ ~ ~ Q ~ ~ ~ ",
"| | &.o.| ..| ..+.#X,X1X$XI.] P @X,X,X,X1X>X4X1X7X8X1X1X$X$X>X,Xp.O...o.| | #.| o.&.*.@X>X#X>X=XF $.U.,X<X;X$XJ.&...o.| | | | | ",
"J.J.I.J.J.I.J.F.I.$X>XW.<X5XA.F $X,X>X>X,X@X>X$X$X$X>X$X$X$X>X@X$XJ.J.I.I.J.J.F.L.I.I.$X4X<X<XQ.J C.>X$X$X$X;X$XI.I.J.I.J.J.J.J.",
">X>X>X>X>X>XJ.F.P.I.R.V.Y W P V 2X>X>X>X<X<X<X2X>X>X2X>X>X>X<X<X>X=X>X1X>X>X>X>Xt.F.=XF.J.T.` L t D.2X,X$X;X<X;X>X>X,X>X>X2X>X,X",
"$X$X>X$X1X5X>XJ.8X$XP.A.$.@.Y V <X$XU.;X$X<X;X;X>X>X$X$X;X$X;X$X,X>X;X>X>X>X5X5XP.>X0X@X@X5Xt.` a r.2X1X>X>X;X$X>X;X>X>X>X<X>X>X",
"$XU.&X$X$X1X1X4X0X1X,X5X>X>X$.J $X%X$X%X*X%X$X*X&X$X$X*X&X*X%X&X$X>X$X&X*X$X1X1X$X8X9X*X*X$X;XU.F C.,X,X*X<X,X,X$X&X$X$X$X$X$X$X",
"1X>X1X>X>X>X>X>X$X,X>X>X<X=X@.f I.,X;X>X;X1X<X&X<X;X<X<X>X$X;X<X>X>X,X>X>X>X,X>X,X1X$X<X1X,X2X#XF @.#X,X;X<X1X>X>X>X>X2X,X>X>X>X",
"' _ _ _ ' ' _ _ ' ' ! _ ' ~ f d G ] ' ' ' _ ' _ _ _ ' ' ' ' _ ' ' ' _ _ _ [ ' _ ' / _ ( / ' W I t n W ' _ ( ' ' _ ' [ _ _ [ _ _ ",
"_ ' _ 8.[ M.M.N.E.E.N.[ [ D.r.' ' ' ` ' ' ' ! ] / 9.] ' ' ] I f d Y } _ [ M.' M.M.E.E.E.N.( 8.D.{ ' ' ' ' ' ' _ ' 9.' ! ' ' ' ' ",
";X<X1X5X4X8XwXtXtXtXuX8X5X8X8X<X*X&X&X<X&X&X&X>X1X$X$X>X%X,X$XJ _ P.,X$X<X8X5XwXwXtXtXtXwX4XqXqX1X;X;X&X$X$X<X<X$X$X&X1X$X$X&X$X",
"%X>X$X,X$X$XU.$XU.*X$X@X$X%X*X$X<X>X<X>X$X$X>X,XY.&X<X;XU.$X5X! Q $X,X%X%X,X*X*X$X,X$X$X$X*X$X$X%X%X%X*X$X$X*X%X1X$X$X,X$X,X1X,X",
">X>X>X2X>X>X>X>X$X>X$X>X>X>X>X>X$X$X$XU.$X>X>X>X@X%X,XI.1X,X=X! _ 1X,X@X>X>X$X;X$X>XI.$X>X$X<X$X$X;X>X>X>X>X>X>X<X$X$XU.>XW.;X>X",
">XU.$X>X<X>X>X>X>X>X2X<X;X>X<X;X>X;X1X,X,X;XI.F.,X#X2XC.r.$.r.n _ 4X>XI.!.>X>XU.,X>X>X>X>X;X>X;X<X<X>X>X2X>X>XT.L.T.1XP.W.$.{ r.",
"$X$X>X$X>X$X$X@X@X$X$X>X=X$X>X,X>X=X;X>X-X=Xp.i.Q.F.!.D.H J Y u _ $XF.$.;.C.J.I.>X,X,X>X$X$X$X,X>X>X>X$X>X>X$X$Xu.L.=XF.W.` Y Y ",
"$X>X,X;X,X>X,X$X,X1X1X>X;X>X<X,X$X$X*X&X%X%X$X$X0X1X0XwX7X1XU._ W t.L M 2 J t.W.$X$X<X1X>X>X>X1X>X>X,X>X,X<X>X$X>X1X0X1XeX8X;X;X",
"A.V.K.V.C.V.K.C.C.C.C.C.V.C.K.C.V.C.C.A.A.A.A.C.C.C.C.V.C.F.y.A p T F u e g Y ] $.t.C.Z.C.C.C.V.C.C.C.C.C.C.C.C.V.S.Z.V.;.C.C.S.",
"G F P P F n P F n P V n F F r u A P P v U F U U U ) ( ) V U U f e e e t a d e , 1 f R n P I B f i d F G n V m H Y R U ) ) R R U ",
";X$XU.U.;X>X<X<X-X>X;X>X,X>XQ f F.I.1X4XqX4XwXwXrXiXiXyXtXwX~.} r p / P.$XH.` _ Z.I.U.1X;XI.,XG.f ] L.>X5X5X8X5XwXwXtXiXpXiXuXuX",
"@X@X$X@X@X@X#X#X@X$X$X$X*X$X$.H %X,X>X%X1X*X$X$XU.1X1X<X1XS./ M , * 2 _ F.F.F.;.F.I.I.$X$XU.J.K.A $.>X1X$X;X$X$X&X$XU.>X;X$X$X$X",
"X.....#.q.e.#.@.*.P.;X4XU.Q.V.P >X>XU.$X>X$X1X;X;X=X=X@XC.8.B.Z N l i C ! y.y.$.;X<XF.4X!.J s v a D.Q.$XU.Q.W.1X2X2X>X>X>X2X>X2X",
"u.&.......| #.#...*.I.,X>X>XV.F <X;X;X1X<XW.W.U.1X,X>XH.} N.`.`.`.j.a.7.C 9.P.1XU.U.eX8X3XeX5XT.s A.2X>X>X>X>X-X$X$X>X>X>X$X$X$X",
" .X...O.&.o.| +.o...*.$X%X1XC.J @X>X$X;X$X$X$X$X%X$XH._ M k.+XfX+X_.j.4.w t Y :.;X*X$X$X@XI.>X>XF V.,X,X%X$X>X,X<X;X*XU.$XU.&X<X",
"g s I ~ e.#.O.....@.G.>X$XU.{ F $X,X$X$X$X>X<X$XU.A.9.i > N B.B./.h.4.j - : u ' C.=X<X$X1X4XU.W.I r.U.*X*XY.U.U.>X>X<X;X;X<X;X>X",
"c e a I ~ #.#.X...X.t.L.@XL.W f %.T.T.=XT.I.I.U.F._ b 8 > 9 N N i x x 7 ; ; > i / Z.K.U.@XJ.$X#.f ! G.$XI.U.W.W.I.I.I.=XI.I.>XI.",
"a u a d b b b M C M d b b f d d f C d P a M n y e N 4.4.6.6.a.4.k.k.4.4.z k w q w 6 r M n C b b d d d b b b d d d f f f u c b d ",
"Y.R.U.;X4XqXqXwX8X<XQ.;XQ.Y.I.J.P.I.R.I.Y.R.A._ h 5.j.)._.`./.(.(.(.b.j.g.a.4.<.9 C 9.Z.W.<X$XH.T.T.=XU.T.J.i... . .~ G g r y i ",
"$X*XI.$X$X&X$X%X<X$X$X,X,X,X%X,X%X%X>X$X@XF.] P 7.j.|.oXsXsX XXXOX.X.X}./.m.s.1.w w C ' C.>X%X%X,X$X$X$X$X$X*.| o.#.@.W f u u b ",
"2X>X2X2X<X2X2X>X;X;X=X2X;X<X>X>X,X,X>XW.y.' N N a.).+XdXgXdXoX.XoXoX.X}.(.n.z.f.3.>.w h ! K.=X>XW.W.$X*X;X>XJ...| &.&. .A a r r ",
"$X$X$XW.;X;X<X<X<X;X;X<X;X$X$X<X$XU.Y.Z.( Z l k.v.XXdXgXgXdXOXXXoXOXXX[.'.'.m.d.f.2.j > t [ S.R.<X,X>X$X>X=XL.....O.&.&.X.X.@.@.",
">X>X>X$X$X>X$X$X@X>X$X$X$X>X<X>X,X$XY._ M 5.6.g./.sXhXgXhXsXOX|.|.|.|.].].'.m.s.h.a.k ; # 2 _ P.$X>X%X;X>X>XG.| y...........o.o.",
">X>X>X,X>X,X,X>X,X>X>X2X>X>X2X;X>X>XP.F 8 k d.m.].aXdXdXfXOX{.{.[._.[.|.{.]./.g.x.6.,.5 @ % A F.U.&X&X$X1X;XG.+.@.X...&.#.#.&.| ",
">X;X$X>X;X>X<X;X;X$X>X<X>X;X;X<XU.$XJ.! 9 k s.n.).|.OXoX.X.X{.[.{.].[.{.{.'.n.d.l.f.2.& o : F H.1X>X;X$X>XT.i...&.O.O.O.&...#.&.",
"H J n H U F F F F F B P U F P V P J s < 5 ,.d.b.[.[.{.[.[.[.[.{.{.].[.|.{.].b.d.d.f.z ;   + < s R P F F P F F S A f f B f f D B ",
"!.~.A.r.V.C.V.A.C.C.C.C.t.$.Y g ` r.{ B 9 k g.n.'.[.[.].[.[.{.[.|.{.].[.[.'.v.d.z.a.z 5 + # y T f Y $.C.V.D.]  .Q ~ E E E E E E ",
"qX5X5X<X,X5X>X>X$X$X;X>X1XU.{ F U.>XP.Y 8 k a.b.}.[.[.[.[.[.[.[. X[.[.[.{.(.b.d.z.f.k 4 + , B V.s r.T.>X1XQ.W.I.&.#.&.o.o.....| ",
"@XU.$X@X>X$XF.*.I.P.R.W.F.W F P $X,XH.J 8 k d.b.(.'.[.[.[.[.[.[.[.[.].[.].(.m.d.d.f.k 4 o = p G f t.,X%X>X;X$X$XL.#XJ.G.J.L.G.G.",
"<X<X1X$X1X5X$XI.8X;XT.<XI.' F R @X,XH.J 8 l f.c.n.'.].[.[.[.{.{.[.[.[.'.(.n.z.g.d.f.k 4 X = 2 K a r.;X$X$X$X>X$X1X>X<X>X>X>X;X>X",
"$X;XU.U.<X5X4X1X6X1X$XI.,X>XV.F 1X2XJ.U 6 j 3.l.c.n.'.].[.{.|.{.[.[.]./.n.c.z.d.s.1.w 3   - m P.P D.>X,X<X;X>X$X>X>X>X>X>X>X>X>X",
"$X;X$X;X;X$X$X;XI.1X1X*X%X$Xt.F >X;XF.F 6 q <.6.s.z./.(.).'.].].)./././.m.z.s.f.1.j 7 - X = v F.I A.;X,XU.$X$X$X>X$X>X$X,X>X>X>X",
"$X1X$X>X1X$X,X1X<X<X;X$X1XW.8.F K.>XP.Y , X 0 l 6.s.z.b.b.b.b.b.m./.m.c.g.s.f.3.>.q 3 + + : n :.n ] @X1X&X;X,X,X&X>X%X&X&X$X&X%X",
"} ' ] ] { ' ' ' [ ' ' 9.] ! A g J ] T a : @ - 0 >.6.6.l.d.d.d.z.z.d.g.l.x.s.4.<.0 3 X X X = t n p A T 9.' _ ' [ ] ] ' ' { ' _ [ ",
"_ / / } [ [ M.V.N.N.M.[ [ M.-.( ! ' T F d > - - 7 <.6.s.g.g.d.s.l.d.d.d.6.3.>.q 4 X   # > a Y ' ] ' ' _ W W _ W T ( ' T ' ! ! Y ",
"<X1X<X7X5X8XqXtXiXiXtX7X<X8X7XQ.$X$X$XI.H.T 1 % 3 0 >.1.6.f.s.f.f.d.d.6.3.>.0 3 X + = a _ ~.4XqX5X>X;X>X>X2X5X2X,X1X1X$X$X>X1X1X",
">X$X>X>X$X$X>X<X$X$X-X-X,X,X%X%X$X,X%X,X>XK.I 2 - 3 0 q 2.2.2.2.<.,.7.k w 0 -     $ 1 Y ;.R.$X$X,X$X>X>X$X$X>X$XU.&X*X<XY.<X*XU.",
"U.U.$X;X;X$XU.U.;X$X$X,X$X*X*X$X$X<X>X$X>XW.V._ , : @ ; ; ; ; ; 5 5 4 4 ; - X @ O e U C.U.$X>X>X,X>X,X&X$X$X>X$X;XW.U.<X$X1X,X>X",
"1X>X>X>X>X1X>X>X;X;X&X;X;X;X<X<XY.$X*X$X1X1XP.$.9.r $ @   . X X X X   . X . X - 1 U V.U.;X$X$X>X$X$X$X$X>X>X;X@X#X#X-XJ.I.$.V.V.",
">X%X%X$X>X>X%X%X$X>X>X$X$X,X;X$X3X3X3X,X3X=Xi.@.D.P < = + @ # + O = = = $ # : > Y $.T.$X<X$X>X>X>X$X>X,X>X>X>XI.u.L.,XP.!.( U m ",
";X;X;X>X;X$X>X;X<X$X$X$X<X;X;X>X>X$XU.;X;X$X$X>X1XH.' Y J P n < 1 b m v F G K J ;.U.,X$X%X>X$X>X>X>X>X>X$X>X,X>XU.9X9X1XeX0X1X>X",
"V.F.F.C.A.F.Z.Z.H.C.Z.C.F.F.C.S.Z.C.C.C.F.H.;.F.A.r.$.{ ] 9.Y s S L $.{ ] $.$.$.V.A.C.C.S.H.C.F.S.K.F.;.Z.V.Z.H.Z.C.A.C.A.A.A.C.",
"H H B n n n n b n b B B n f u u f P V B V B R Z C Z ) V V B P P C b V b b B b b P n n F n P B D y d f P B V B F U P V U ) ) U P ",
"$X$X>X>X>X,X,X,X,X,X2X>X,X@X@.A i.@X<X1XqX<XuXwXrXyXpXpXyXwX7XU.3X>X$X>X>X>X>X1X@X,XU.1X;XT.2XC.n ] J.>X1X5X8X5XwXwXtXiXpXyXrXrX",
"I.U.U.U.W.T.=X@X*X$X;X$X&X;X{ K %X,X%X$X1X@X>XG.@XI.J.J.I.$X-X-X=X@X$X,X=XI.@XU.$X$X@X$X1XW.P.R.F $.,X1X*XU.$X*X%X@XI.$X$X$X@X@X",
"w.O.#...#.#...e.i.p.;X>X;XQ.A.T ;XW.U.$X;X@Xi.*.w.O.u.#.#.....X.=X3X,X,XL.i.i.*.4XW.;.4X!.K 2 F M M.2X2X$XW.W.I.u.#...@. .X.O.w.",
"#.| o.o.o.| +.o.| *.=X%X$X$Xr.n ;X$X;X$X@XG.+.o...| | #.+.X.#.X.%.U.*XU.$X<X1X<XJ.1X0X0X5X0X8XZ.n t.>X%X@X$X@X=.#.#.&.&.&.&.&.o.",
" . .#.u.O.O.O.o...q.G.=X,X>XA.P >X>X;X;X>X#.X.w.#.....&.e...y.~ C.1X1X$X;X;X<X$X>X>X>X$X$XU.4XU.P t.2X>X>X2XL.#.#.O.O.o.O.e.e. .",
"r f G  .e.&.#.X...X.G.>X&XU.V.F ,X%X$X>X$X| ..O.&.&.@...E S p a ~ ;X;X;X>X>X>X<X>X>X>X$X1X<XI.1XF V.&X$XU.Q.L.| #.#.o...@.~ I s "
};
