/* XPM */
static char *_c44513c0c7d4515f0e74481d641b601aHbGqoKVlyajTCdV[] = {
/* columns rows colors chars-per-pixel */
"64 64 188 2 ",
"   c #3F3851",
".  c #6C5664",
"X  c #655C65",
"o  c #6B5A64",
"O  c #6C5669",
"+  c #675B69",
"@  c #6D5A6A",
"#  c #755664",
"$  c #785562",
"%  c #735B66",
"&  c #7A5C65",
"*  c #7E5769",
"=  c #745D6B",
"-  c #7C5D6B",
";  c #6D5F70",
":  c #745D71",
">  c #746165",
",  c #7D6266",
"<  c #75616C",
"1  c #7C636D",
"2  c #7E696D",
"3  c #756271",
"4  c #7D6572",
"5  c #7E6972",
"6  c #7E697C",
"7  c #845B66",
"8  c #8A5F66",
"9  c #835D69",
"0  c #8E5D6A",
"q  c #8B5E71",
"w  c #816266",
"e  c #83646D",
"r  c #8A646D",
"t  c #846A6D",
"y  c #8B6A6D",
"u  c #936C6E",
"i  c #846572",
"p  c #8B6571",
"a  c #836B74",
"s  c #8D6B73",
"d  c #826778",
"f  c #836F78",
"g  c #8D6D79",
"h  c #966674",
"j  c #9B6776",
"k  c #936D74",
"l  c #9B6B75",
"z  c #946E79",
"x  c #9D6A79",
"c  c #8E7275",
"v  c #8D7877",
"b  c #85717A",
"n  c #8D747A",
"m  c #937375",
"M  c #9A7375",
"N  c #947877",
"B  c #95747A",
"V  c #9A747B",
"C  c #957A7B",
"Z  c #9B7B7D",
"A  c #A66D77",
"S  c #AD6E76",
"D  c #A5677C",
"F  c #A46C7B",
"G  c #AC6E7B",
"H  c #B06C76",
"J  c #B16D7C",
"K  c #A27175",
"L  c #AC7176",
"P  c #A3737B",
"I  c #AD717B",
"U  c #A47B7D",
"Y  c #AB7B7D",
"T  c #B27877",
"R  c #B1727C",
"E  c #B37C7E",
"W  c #96827F",
"Q  c #AE837E",
"!  c #B3807F",
"~  c #576789",
"^  c #967683",
"/  c #9B7582",
"(  c #9D7C82",
")  c #AE6E80",
"_  c #B26E80",
"`  c #A77580",
"'  c #AD7381",
"]  c #A47D82",
"[  c #AC7D83",
"{  c #A77F88",
"}  c #B17382",
"|  c #BE7787",
" . c #B37C83",
".. c #BB7F84",
"X. c #6D8A9D",
"o. c #968385",
"O. c #9B8284",
"+. c #9D8B87",
"@. c #9E8589",
"#. c #A58283",
"$. c #AB8385",
"%. c #AC8884",
"&. c #A58389",
"*. c #AC8489",
"=. c #A18D8A",
"-. c #AD8B8C",
";. c #B38384",
":. c #BA8385",
">. c #B38985",
",. c #BB8A86",
"<. c #B48588",
"1. c #BB858A",
"2. c #B48B8B",
"3. c #BD8D8C",
"4. c #BD9186",
"5. c #BD928C",
"6. c #BC988D",
"7. c #B78E90",
"8. c #BE8E91",
"9. c #A49192",
"0. c #B59494",
"q. c #BD9492",
"w. c #B79995",
"e. c #BD9993",
"r. c #BA959C",
"t. c #BB989A",
"y. c #BCA092",
"u. c #82A0AD",
"i. c #8CA9B5",
"p. c #C18587",
"a. c #C3858A",
"s. c #C28D8C",
"d. c #C88D8F",
"f. c #C39387",
"g. c #C3948D",
"h. c #C9958E",
"j. c #C4988E",
"k. c #C8998F",
"l. c #C38E92",
"z. c #C78E97",
"x. c #C98E90",
"c. c #C39391",
"v. c #C49592",
"b. c #C69397",
"n. c #C29695",
"m. c #C99592",
"M. c #C99595",
"N. c #C59990",
"B. c #C49993",
"V. c #C19894",
"C. c #C99893",
"Z. c #C99A95",
"A. c #CA9A94",
"S. c #C69699",
"D. c #C99599",
"F. c #C59B9A",
"G. c #CA9C9A",
"H. c #C7A196",
"J. c #CBA296",
"K. c #C5A19A",
"L. c #CBA29C",
"P. c #CAA39C",
"I. c #CAA89F",
"U. c #D0A295",
"Y. c #D2A39B",
"T. c #D6A99C",
"R. c #D9A99F",
"E. c #E3BE85",
"W. c #CEA4A1",
"Q. c #CDABA3",
"!. c #D3A4A2",
"~. c #D2ABA4",
"^. c #DAAFA2",
"/. c #D4AEA9",
"(. c #CBB1A4",
"). c #CDB6A8",
"_. c #D1B1A6",
"`. c #D5B4AC",
"'. c #D6BAAE",
"]. c #D5B6B1",
"[. c #D4BFB1",
"{. c #DABDB3",
"}. c #DAC3B5",
"|. c #FFEFA9",
" X c #A7C6C6",
".X c #C2D2D3",
"XX c #C5DFD7",
"oX c #F2F7F6",
/* pixels */
"# = = . o r F I _ G  .3.b.c.g.b.g.C.g.v.v.h.n.g.n.c.n.g.g.D.1.0 O o o O @ . - l I I G I ;.x.v.b.v.v.v.c.g.3. .G I G F p # + ; + ",
"o + X . - h G G I I E g.v.j.g.j.g.C.g.j.5.n.h.f.3.h.j.3.j.5.2.V o % o $ @ @ - F S S G R s.B.v.g.h.g.j.h.g.g.;.I L G ) x - . O # ",
". X . o r x ' R R L :.m.g.g.g.s.v.c.c.3.! s.Y Y | _ I l.D.M 1 o o o % $ # % p ' I I I L s.g.5.h.f.g.g.g.h.h.:.G G G I ` r % # # ",
"P G F A F G G G G D ..D.c.c.Z.n.m.v.v.M.3.T.h.P.I.~.n.s.h.3.2.t - h F F D F G G J J G G l.d.v.n.M.S.c.l.c.v.1.G I S G I F l F F ",
"H H H G G L I L I I 1.n.c.q.B.v.c.c.c.V.q.G.c.G.q.e.5.j.g.g.c.m p P } J G I H H I I I I c.g.5.v.q.B.c.v.e.v.:.P I S S S R I L I ",
"I S G G I I I I H S :.g.g.g.g.g.g.h.g.c.b.c.c.n.v.D.D.c.v.n.t.m p F E G S I I I L L I L 1.h.j.v.h.v.m.m.g.g...S I I R G S G G G ",
"' G ' ' R ' ) J I I  .3.c.n.M.D.j.f.B.f.m.f.g.g.V.n.n.v.M.h.1.h q D J R ' J G G I R R R 1.s.D.D.q.n.S.n.v.5.;._ G G R _ J _ } } ",
"- - - & - & & - - - - , 2 e 1 e 4 4 a 4 4 a 4 1 w i 4 1 a 1 1 = @ - 7 & < - & 4 = - - - < 1 1 1 a 1 1 e 2 , - 7 1 - % 1 - & % = ",
"x j x l x x x F l P Y $.%.Y r = M *.$.$.0.2.w.w.w.w.0.2.$.$.$.$.Y x x F j j F x F h l P $.2.[ M - p U ;.$.&.[ K x x j x j x x x ",
"S S R H S S S L L a.M.Z.j.3.P i s.M.M.v.G.v.G.Z.G.P.J.v.j.g.v.h...G S G S S H G G R E s.v.s.c.x.e V g.m.Z.c.g.:.R S R H S H S S ",
",.,.3.,.2.s.:.:.5.d.c.5.V.G.*.e v.d.g.h.h.h.g.c.g.g.v.g.g.g.c.h.s.,.,.1.,.,.,.>.3.2.1.j.Z.n.V.v.t $.g.g.g.g.v.h.3.,.,.,.,.,.,.,.",
"m.c.n.g.n.n.2.;.2.3.7.&.k s i 5 n.c.b.n.q.n.V.n.b.n.c.b.S.n.n.V.n.c.n.M.V.v.b.v.[ ;.d.>.2.q.M y o &.D.n.j.c.e.v.n.n.M.n.v.D.n.n.",
"c.g.v.g.n.G.h.,.J.h.2.*.U P s 5 v.5.h.v.5.v.v.v.g.m.c.j.c.j.5.j.M.c.c.c.c.m.A.G.1.c.R.s.s.n.E N % { M.M.c.c.q.c.c.v.c.c.c.c.v.v.",
"g.g.h.5.j.G.Z.G.J.Z.m.Z.v.c.U t d.k.g.j.g.g.j.f.j.f.f.g.f.h.g.j.g.g.j.g.j.j.B.D.g.J.J.f.h.m.v.3.t $.h.m.h.j.v.h.j.5.B.h.h.g.5.j.",
"Z.v.Z.c.c.c.c.n.v.M.M.n.S.l.P w ,.n.v.n.B.B.B.6.v.v.v.B.v.v.v.v.c.m.n.n.b.n.m.M.n.M.g.v.g.n.D.a.e P 3.n.B.B.S.n.c.B.n.M.M.n.n.M.",
"N m N m B B m B m V z m m z * : r ( z M B m B m m B B N B B m V V C m m m m m m B c C v m N k p o 1 k M m n C M m m m V m m N N ",
"m N N ( C ( o.+.9.9.+.C C @.( C V B N B z M B / m / / m ^ k p = % k V m N ( m O.O.9.9.9.O.n O.@.Z B B B N C B B B / B z B C z B ",
"c.n.n.G.F.Q.I./.`.`.~.P.G.P.J.v.5.j.j.C.B.j.c.h.B.g.g.B.C.m.g.y m 2.M.c.F.!.D.I.Q.`./.`.Q.F.W.W.n.n.v.m.v.g.v.n.g.h.h.B.j.g.g.v.",
"h.v.d.h.g.g.g.g.g.f.g.f.g.g.h.g.m.v.m.c.g.h.c.m.5.j.B.e.j.d.F.m l g.h.h.v.j.s.g.g.k.j.g.f.f.f.g.h.m.f.k.g.g.h.j.n.f.h.v.g.m.Z.h.",
"S.n.v.n.b.v.b.v.g.c.c.c.c.m.c.M.j.5.j.5.c.v.v.v.3.h.h.5.m.h.b.k M F.V.j.v.D.c.v.g.c.3.g.v.g.v.q.g.c.g.v.c.g.g.v.B.5.g.g.v.q.n.v.",
"v.c.5.v.v.v.m.v.n.n.n.b.q.q.v.n.c.c.v.M.V.c.2.,.M.s.x.$.U .XoX.Xm F.g.5.v.m.v.Z.M.M.v.n.v.v.Z.c.v.n.n.n.n.D.q.8.1.3.Z.2.q.U ( ( ",
"g.g.g.g.g.g.g.g.g.h.g.c.c.h.m.m.b.c.c.n.x.l.:.E n.$.r.#.t oXoXoXm m.g.g.v.h.g.f.g.v.g.h.g.g.g.g.c.c.h.v.v.v.g.g.} 1.l.;.q.M k y ",
"v.h.m.c.m.c.g.m.m.C.v.v.v.v.Z.n.g.f.f.h.g.h.g.g.T.m.T.~.B..XoX.Xk 3.h.g..XoXm.B.v.j.v.v.v.m.V.m.m.m.v.v.v.m.m.h.m.G.Y.Z.^.J.B.e.",
"$.$.*.$.*.$.$.$.$.$.$.$.$.$.$.$.$.$.$.*.*.*.$.*.#.$.[ &.$.;.` 9 - &.;.$.oX.X*.*.$.$.$.$.$.$.$.$.$.$.$.$.$.$.$.$.$.$.$.#.$.$.$.*.",
"e e i 1 1 e e 1 w i 1 e w e O @ - i e 1 a 2 a a 5 b n b 5 b a i i i i 1 i a e e 1 e i 1 e a 1 - + = e r 1 5 2 t a a 5 b b b a g ",
"c.c.e.5.q.n.B.B.z.n.n.v.q.c.x 9 ;.5.b.G.P.F.Q.~.(.'.{.}.`.Q.H.e.B.c.c.B.v.q.v.v.v.g.g.|.g.s.b.;.9 B 1.m.n.G.P.G.Q.(.`.{.}.[._.Q.",
"s.s.s.x.x.s.s.s.d.c.j.g.f.h.U r h.v.j.k.B.h.g.g.v.v.B.B.h.c.g.x.g.h.    h.,.1.h.v.g.3.g.g.5.2.2.& [ v.j.Z.h.h.g.n.5.5.j.v.j.5.j.",
"G G I I ' G G I E <.e.V.5.w.Q a b.g.d.g.v.c.Z.c.n.l.b.g.b.b.D.n.n.  b.x.   .[  .b.e.;.F.0.y , & % O.q.j.0.q.n.n.D.M.M.b.b.b.b.b.",
"I I I G S S I I G I 3.b.g.M.#.1 n.n.v.n.v.q.c.5.g.m.m.B.v.Z.g.5.      j.e.n.F.G.j.5.~.Y.G.!.D.1.= *.D.v.g.B.c.x.g.h.j.v.v.g.g.g.",
"F A G G R S S S S I E g.h.Z.$.y g.v.5.v.j.h.h.5.j.h.5.g.5.g.h.  XX XX.  h.c.j.h.n.g.d.g.j.3.C.c.e $.h.j.h.j.v.v.g.j.5.5.5.h.j.j.",
"# - q D ' I G G I I ;.v.g.5.Z e g.Z.g.g.g.n.v.j.8.n.n.n.B.c.              c.c.E.|.v.v.5.v.Z.q.0.p ] 3.j.5.5.5.g.q.c.n.S.n.F.q.c.",
"X X & p x G I G G G ` 3.s.1.k - L 8.l.8.3.3.3.5.3.3.s.5.3.  u.i.i.i.u.X.~   5.|.3.6.,.g.3.3.d.T - z 1.g.3.5.q.q.3.3.3.3.3.s.5.3.",
"% % % % = < < < 3 < % = 1 = = = = 1 = 1 = = = - = 4 < o   X. XXXi. Xi.u.X.~   > < < < < < 1 < = % % < < < < = - = - - = % % < % ",
"5.2.5.e.H.I.I.Q.I.B.e.v.q.5.3.,.2.2.5.3.5.5.5.f.3.2.5.  X.u.XX Xi.i.i.i.X.X.    P.I.I.e.q.B.Z.,.q.8.8.8.3.>.[ G P F z p = . O O ",
"g.g.5.g.g.v.g.v.j.g.g.k.m.g.h.k.j.h.M.g.g.M.g.s.c.c.v.  X.i.i.i.i.i.i.i.X.X.    v.B.j.h.g.j.k.s.c.g.j.g.g.g.E S G H I h - % @ ; ",
"S.D.D.D.D.n.S.B.n.v.b.b.n.n.D.n.v.v.c.c. .8.Y [ R } I   X.u.i.i.i.i.i.u.X.X.    D.c.c.V.M.n.M.n.v.g.5.g.v.v.,.G S G I F 7 % o O ",
"5.h.5.c.v.g.q.v.c.v.Z.e.B.g.5.v.5.j.5.c.5.!.n.G.L.~.j.  ~ X.u.i.i.i.u.X.X.~     g.c.B.5.f.B.h.5.n.S.c.h.n.b.1.G I J R J G F F P ",
"g.v.g.v.g.g.g.g.g.g.g.g.g.g.v.v.k.h.B.j.c.Z.n.B.C.j.5.    ~ X.X.X.X.X.X.~       c.g.g.v.g.v.v.v.g.g.v.g.c.c.:.L ' G G G G G G J ",
"S.c.B.n.b.b.D.n.q.b.b.b.n.S.S.c.c.v.v.v.q.l.b.n.v.5.Z.B.    ~ X.X.X.X.~       g.V.c.s.q.n.g.3.c.5.j.j.g.v.v.:.I P P I R I I S S ",
"c.c.g.j.h.j.j.n.v.g.j.j.5.c.j.h.v.n.f.v.h.j.h.v.v.v.c.j.j.                  n.n.j.c.Z.h.v.m.v.B.n.M.v.h.v.s. .G R H J J R G I R ",
", a , t a e e e t 1 i i i i i 6 e p e y i e e , t e 1 e i i               a i , s i i a w a i r i i e e e e e 7 9 - 9 - - - 4 9 ",
"0.0.&.#.$.#.$.*.$.$.$.#.Y U s & M $.&.*.-.-.0.t.0.w.0.-.&.&.&.*.-.w.w.-.#.#.$.&.] $.#.#.#.{ $.V - s U [ &.&.U V j x l l j j j x ",
"I.D.A.v.A.D.n.n.g.g.v.v.Z.q.V e 3.c.V.q.F.B.K.I.Z.L.I.n.g.j.v.v.A.D.P.F.j.Z.v.v.v.b.g.g.M.V.n.5.1 U l.n.n.e.8.1.R R R S G H G G ",
"g.g.v.d.g.h.E E 3.2.2.e.2.u w d c.B.h.j.B.h.c.5.g.g.g.g.j.v.j.s.6.5.h.j.g.g.g.g.!  .d.,.3.c.P u - &.h.k.v.v.g.g.1.1.1.1.1.;.1.1.",
"B.B.n.c.V.L.m.3.P.n.8.q.2.V e a h.v.c.g.h.g.g.c.v.m.h.g.v.m.m.v.B.v.v.m.h.g.Z.Y.2.v.!.3.3.D.U k % #.g.g.g.c.g.h.n.n.n.v.v.v.v.v.",
"j.B.5.5.V.G.G.n.Y.C.h.3.B.m.#.e q.S.c.c.v.g.c.g.v.v.v.c.c.g.c.n.q.j.v.q.v.q.Z.G.v.J.J.j.q.c.e.5.e &.S.h.j.B.v.v.v.v.v.c.h.v.v.v.",
"5.v.j.g.c.j.h.5.s.C.m.g.h.g.$.r c.n.h.g.v.B.v.h.h.g.v.m.m.v.v.g.h.j.v.g.v.v.5.5.j.5.5.B.j.s.g.m.d [ q.c.5.5.g.g.m.j.h.g.h.v.m.v.",
"h.m.g.m.n.j.C.C.e.e.h.v.Z.5./ e 3.v.m.Z.v.g.c.Z.C.n.f.B.h.g.g.g.g.v.B.h.j.h.Z.C.D.n.Z.m.g.G.v.a.r V g.Z.j.v.m.m.m.m.k.j.B.j.g.j.",
"B m M V V B B Z B B B V V h 7 $ s B V V C B V C M V M m M P M ^ ^ ^ V C c ^ B N B ^ k V V m V k # 7 g ^ C m B C V V B B C N m C ",
"N c m m C N Z O.+.+.+.C C O.O.n m m m g g z g g n g ^ B v B d 4 & r k M m Z N Z W =.=.=.o.c C C V m B B m k k k n g N g B z z k ",
"e.B.F.F.K.Q.W.`.].{./.F.n.I.K.w.c.B.v.g.v.Z.B.v.C.s.g.B.g.v.2.y k 2.B.D.F.P.F.W.Q.`.`.`.Q.F.!.Q.D.D.c.n.n.S.S.S.M.v.m.g.g.c.Z.Z.",
"g.v.h.v.g.h.v.M.c.c.l.c.m.m.h.m.d.h.v.h.m.c.c.h.h.B.h.B.g.d.G.m M v.B.v.v.v.g.M.h.v.g.g.g.s.B.g.B.g.g.v.g.h.v.g.5.h.h.j.5.j.j.3.",
"c.5.c.c.B.5.5.5.v.g.g.g.g.g.3.g.5.B.j.q.c.q.q.B.h.g.h.q.c.n.S.m M B.v.g.g.n.g.g.g.c.V.c.v.h.c.g.m.j.c.v.h.g.c.c.e.6.6.Z.c.m.B.n.",
"n.n.c.c.b.B.V.c.q.j.q.v.v.h.j.B.g.f.5.j.B.g.,.>.c.1.n.$.Y [ V - m F.q.g.m.n.c.g.g.q.B.q.q.c.c.q.v.g.g.j.c.c.c.h.a.a.d.1.3.U #.#.",
"m.c.h.h.g.h.h.g.g.v.v.v.v.v.v.f.n.D.l.S.D.c.:.' t.2.r.( t e g 3 m F.v.g.m.n.c.h.v.g.j.g.c.Z.v.b.m.c.v.m.v.v.c.2.} 1.M.2.0.N a 2 ",
"j.j.v.v.B.v.g.B.v.g.g.h.v.g.j.n.g.g.c.h.v.v.j.v.T.j.U.^.J.g.Z.u u g.g.k.g.j.v.m.v.g.v.c.h.m.j.c.v.h.v.v.c.m.Z.v.e.G.J.v.^.Y.Z.v.",
"$.;.;.;.$.>.-.$.>.%.$.$.>.,.$.-.$.$.$.$.;.:.$.E ;.>.$.$.-.*.C r 0 P 2.$.$.<.<.$.$.*.%.$.-.%.$.>.-.;.;.Q %.#.$.>.$.$.$.$.*.*.$.$.",
"2 2 4 4 1 1 1 1 1 1 4 4 1 - @ @ = i a a 5 < a 6 2 b b a 4 i i i 3 5 5 1 1 5 < 1 a 1 i e 1 i i - O = - i 5 5 4 e a t 5 a b b b 5 ",
"j.j.g.c.n.M.M.c.v.b.S.g.D.3.V 8 :.s.n.n.L.q.`.Q.).}.}.}.].Q.Z.5.D.c.g.g.c.c.v.v.s.m.j.v.c.l.S.$.- V 1.h.n.L.G.G.Q.Q.`.[.}.'.).Q.",
"3.3.8.5.q.3.3.x.h.f.v.5.g.c.Z w d.h.Z.g.Z.h.h.,.s.2.1.,.3.v.h.x.c.g.c.m.c.3.3.h.g.g.3.5.Z.c.2.2., ] h.j.h.j.j.f.d.s.5.h.5.g.s.s.",
"J I G I G I G R } 1.l.c.g.q.&.d v.5.5.5.n.s. . .J _ ' I I P G F 1.D.M.v.1. . .I Z.0.! F.e.w & , < @.S.n.5.q.e.5.} ' G D A G G J ",
"R G H H S S L S S E l.c.g.j.] r v.v.B.j.s.:.S S G S L S S G G I E g.g.g.v.m.J.j.3.C.^.Y.G.Y.G.>., $.S.h.d.c.p.T I L G E R R J J ",
"F F I } J J S G J G :.l.v.F.*.i v.v.c.q.c.I G G I G G J _ G F F $.D.v.5.v.q.n.j.v.v.g.j.4.5.G.5.i $.c.c.n.D.1.I I H S H J ' I F ",
"O - r F ' I G G G G ,.c.h.6.Q e m.v.g.g.h.L I J S I I G x 7 % o K B.m.j.v.v.v.m.c.c.c.g.C.v.3.v.e &.v.g.5.e.1.S I I G G I F p = "
};
