/* XPM */
static char *c339ef3db9a7417fa6421ec0d8dd9a470cY1AiFGyCugwg0S[] = {
/* columns rows colors chars-per-pixel */
"64 64 120 2 ",
"   c None",
".  c #372E49",
"X  c #3C334C",
"o  c #3C334D",
"O  c #3D344D",
"+  c #3E354F",
"@  c #3E364F",
"#  c #3E3750",
"$  c #3F3750",
"%  c #3F3851",
"&  c #403A53",
"*  c #413C56",
"=  c #413D57",
"-  c #423D56",
";  c #423E57",
":  c #423F59",
">  c #433F5A",
",  c #43405B",
"<  c #43415B",
"1  c #454159",
"2  c #45415A",
"3  c #45425A",
"4  c #47445B",
"5  c #43415C",
"6  c #44415C",
"7  c #47445C",
"8  c #47475F",
"9  c #49465D",
"0  c #4A475E",
"q  c #474760",
"w  c #484860",
"e  c #484961",
"r  c #494961",
"t  c #494A61",
"y  c #494A62",
"u  c #494B65",
"i  c #4D5168",
"p  c #4E546B",
"a  c #565568",
"s  c #52576D",
"d  c #5C5C6D",
"f  c #525D7D",
"g  c #535E7C",
"h  c #535F7F",
"j  c #616677",
"k  c #686B7A",
"l  c #556281",
"z  c #566484",
"x  c #5F7085",
"c  c #607286",
"v  c #69798A",
"b  c #637991",
"n  c #657E95",
"m  c #647D97",
"M  c #657D97",
"N  c #667E96",
"B  c #667F97",
"V  c #688197",
"C  c #678198",
"Z  c #688298",
"A  c #698398",
"S  c #6B879A",
"D  c #6C879A",
"F  c #6C889A",
"G  c #6D899C",
"H  c #6D899D",
"J  c #6E899C",
"K  c #6D8A9D",
"L  c #6D8B9D",
"P  c #6E8B9D",
"I  c #6D8B9E",
"U  c #6E8B9E",
"Y  c #6E8C9E",
"T  c #6F8C9F",
"R  c #728A9A",
"E  c #708D9F",
"W  c #738D9E",
"Q  c #7694A4",
"!  c #7794A4",
"~  c #7795A5",
"^  c #7896A5",
"/  c #7A97A7",
"(  c #7F9AA7",
")  c #7B99A8",
"_  c #839FAB",
"`  c #809DAC",
"'  c #809EAC",
"]  c #829FAD",
"[  c #859FAC",
"{  c #83A1AE",
"}  c #86A0AD",
"|  c #84A2AF",
" . c #84A2B0",
".. c #85A3B0",
"X. c #87A4B1",
"o. c #88A5B2",
"O. c #89A6B3",
"+. c #8AA7B4",
"@. c #8CA9B1",
"#. c #8BA8B4",
"$. c #8BA8B5",
"%. c #8BA9B5",
"&. c #8CA9B5",
"*. c #8DAAB6",
"=. c #8EABB6",
"-. c #8FACB7",
";. c #97AEB2",
":. c #90ADB8",
">. c #92B0B9",
",. c #93B1BA",
"<. c #94B1BA",
"1. c #9DB9BF",
"2. c #A9BDBC",
"3. c #A0BDC1",
"4. c #A0BFC2",
"5. c #A7C5C6",
"6. c #AAC6C7",
"7. c #AFCBCA",
"8. c #B1CECC",
"9. c #BCD9D2",
/* pixels */
"                                                                                                                                ",
"                                                                                                                                ",
"                                                                                                                                ",
"                                                                                                                                ",
"                                                                                                                                ",
"                                                                                                                                ",
"                                                                                                                                ",
"                                                                                                                                ",
"                                                                                                                                ",
"                                                                                                                                ",
"                                                                                                                                ",
"                                                                                                                                ",
"                                                                                                                                ",
"                                                                                                                                ",
"                                                                                                                                ",
"                                                                                                                                ",
"                                                                                                                                ",
"                                                                                                                                ",
"                                                                                                                                ",
"                                                                                                                                ",
"                                                                                                                                ",
"                                                                                                                                ",
"                                                                                                                                ",
"                                                                                                                                ",
"                                                                                                                                ",
"                                                                                                                                ",
"                                                                  % %                                                           ",
"                                                                      % %                                                       ",
"                                                                X @     %                                                       ",
"                                                            a k j s y                                                           ",
"                                                          . d 2.;.R p @                                                         ",
"                                                        1 1 7 0 9 1 1 * *                                                       ",
"                                                      & v ' } } } ( W b f :                                                     ",
"                                                    * x @.8.7.:.4.>. .~ n f 5                                                   ",
"                                                  0 c ~ 6.9.6.&.>.-.%.` H n q @                                                 ",
"                                                  e Y } 1.3.>.&.&.&.&.{ H F y @ %                                               ",
"                                                  e H X.&.+.%.&.&.&.&.{ H S y @ %                                               ",
"                                                  y F X.&.&.&.&.&.&.&.' Y F y @ %                                               ",
"                                                  y A ) X.&.&.%.&.#.| ^ H C 0 @ %                                               ",
"                                                  5 z Z /  .+.+.O.{ Q H C z < % %                                               ",
"                                                  & : l Z W E E W Y Y C l > & @ &                                               ",
"                                                    & * f m H H I Y n f : # @ &                                                 ",
"                                                      # : u i i i i u > @ &                                                     ",
"                                                        # # # @ @ # # # &                                                       ",
"                                                          % % % # # & #                                                         ",
"                                                                                                                                ",
"                                                                                                                                ",
"                                                                                                                                ",
"                                                                                                                                ",
"                                                                                                                                ",
"                                                                                                                                ",
"                                                                                                                                ",
"                                                                                                                                ",
"                                                                                                                                ",
"                                                                                                                                ",
"                                                                                                                                ",
"                                                                                                                                ",
"                                                                                                                                ",
"                                                                                                                                ",
"                                                                                                                                ",
"                                                                                                                                ",
"                                                                                                                                ",
"                                                                                                                                ",
"                                                                                                                                "
};
