/* XPM */
static char *_24213753c2e4114cbe2e06437891278VGjE0rVJIUjIsXSp[] = {
/* columns rows colors chars-per-pixel */
"64 64 185 2 ",
"   c #3F3851",
".  c #6C5664",
"X  c #655C65",
"o  c #6B5A64",
"O  c #6C5669",
"+  c #675B69",
"@  c #6D5A6A",
"#  c #755664",
"$  c #785562",
"%  c #735B66",
"&  c #7A5C65",
"*  c #7E5769",
"=  c #745D6B",
"-  c #7C5D6B",
";  c #6D5F70",
":  c #745D71",
">  c #746165",
",  c #7D6266",
"<  c #75616C",
"1  c #7C636D",
"2  c #7E696D",
"3  c #756271",
"4  c #7D6572",
"5  c #7E6972",
"6  c #7E697C",
"7  c #845B66",
"8  c #8A5F66",
"9  c #835D69",
"0  c #8E5D6A",
"q  c #8B5E71",
"w  c #816266",
"e  c #83646D",
"r  c #8A646D",
"t  c #846A6D",
"y  c #8B6A6D",
"u  c #936C6E",
"i  c #846572",
"p  c #8B6571",
"a  c #836B74",
"s  c #8D6B73",
"d  c #826778",
"f  c #836F78",
"g  c #8D6D79",
"h  c #966674",
"j  c #9B6776",
"k  c #936D74",
"l  c #9B6B75",
"z  c #946E79",
"x  c #9D6A79",
"c  c #8E7275",
"v  c #8D7877",
"b  c #85717A",
"n  c #8D747A",
"m  c #937375",
"M  c #9A7375",
"N  c #947877",
"B  c #95747A",
"V  c #9A747B",
"C  c #957A7B",
"Z  c #9B7B7D",
"A  c #A66D77",
"S  c #AD6E76",
"D  c #A5677C",
"F  c #A46C7B",
"G  c #AC6E7B",
"H  c #B06C76",
"J  c #B16D7C",
"K  c #A27175",
"L  c #AC7176",
"P  c #A3737B",
"I  c #AD717B",
"U  c #A47B7D",
"Y  c #AB7B7D",
"T  c #B27877",
"R  c #B1727C",
"E  c #B37C7E",
"W  c #AE837E",
"Q  c #B3807F",
"!  c #576789",
"~  c #967683",
"^  c #9B7582",
"/  c #9D7C82",
"(  c #AE6E80",
")  c #B26E80",
"_  c #A77580",
"`  c #AD7381",
"'  c #A47D82",
"]  c #AC7D83",
"[  c #A77F88",
"{  c #B17382",
"}  c #BE7787",
"|  c #B37C83",
" . c #BB7F84",
".. c #6D8A9D",
"X. c #968385",
"o. c #9B8284",
"O. c #9D8B87",
"+. c #9E8589",
"@. c #A58283",
"#. c #AB8385",
"$. c #AC8884",
"%. c #A58389",
"&. c #AC8489",
"*. c #A18D8A",
"=. c #AD8B8C",
"-. c #B38384",
";. c #BA8385",
":. c #B38985",
">. c #BB8A86",
",. c #B48588",
"<. c #BB858A",
"1. c #B48B8B",
"2. c #BD8D8C",
"3. c #BD9186",
"4. c #BD928C",
"5. c #BC988D",
"6. c #B78E90",
"7. c #BE8E91",
"8. c #A49192",
"9. c #B59494",
"0. c #BD9492",
"q. c #B79995",
"w. c #BD9993",
"e. c #BA959C",
"r. c #BB989A",
"t. c #82A0AD",
"y. c #8CA9B5",
"u. c #C18587",
"i. c #C3858A",
"p. c #C28D8C",
"a. c #C88D8F",
"s. c #C39387",
"d. c #C3948D",
"f. c #C9958E",
"g. c #C4988E",
"h. c #C8998F",
"j. c #C38E92",
"k. c #C78E97",
"l. c #C98E90",
"z. c #C39391",
"x. c #C49592",
"c. c #C69397",
"v. c #C29695",
"b. c #C99592",
"n. c #C99595",
"m. c #C49993",
"M. c #C19894",
"N. c #C99893",
"B. c #C99A95",
"V. c #CA9A94",
"C. c #C69699",
"Z. c #C99599",
"A. c #C8979B",
"S. c #C59B9A",
"D. c #CA9C9A",
"F. c #C7A196",
"G. c #CBA296",
"H. c #C5A19A",
"J. c #CBA29C",
"K. c #CAA39C",
"L. c #CAA89F",
"P. c #D2A39B",
"I. c #D6A99C",
"U. c #D9A99F",
"Y. c #C6A3A1",
"T. c #CEA4A1",
"R. c #CDABA3",
"E. c #D3A4A2",
"W. c #D7A6A1",
"Q. c #D2ABA4",
"!. c #DAAFA2",
"~. c #D4AEA9",
"^. c #CBB1A4",
"/. c #CDB6A8",
"(. c #D5B4AC",
"). c #D6BAAE",
"_. c #D5B6B1",
"`. c #D4BFB1",
"'. c #DABDB3",
"]. c #DAC3B5",
"[. c #FFEFA9",
"{. c #A7C6C6",
"}. c #C2D2D3",
"|. c #C5DFD7",
" X c #F2F7F6",
/* pixels */
"# = = . o r F I ) G | 2.c.z.d.c.d.m.f.x.x.d.v.f.z.z.v.d.d.Z.<.0 O o o O @ . - l I I G I :.j.d.c.x.x.b.z.f.2.| G I G F p # + ; + ",
"o + X . - h G G I I E d.x.g.d.g.f.b.d.d.4.v.d.d.2.g.g.2.g.4.1.V o % o # @ @ - F S S G R p.b.x.f.d.d.g.f.d.d.-.G L G ( x - . O # ",
". X . o r x ` R R L ;.b.d.d.d.p.z.z.z.2.Q p.Y Y } ) I j.Z.M 1 o . o % $ # % p ` I I I L p.d.4.g.s.d.d.d.f.d.;.G G G I _ r % # # ",
"P G F A F G G G G D  .Z.z.z.B.v.x.b.x.x.2.I.f.P.L.Q.v.p.f.2.1.t - h F F D F G J J J J G j.a.x.v.n.C.z.j.z.b.<.G I S G I F x F A ",
"H H H G G L I L I I <.v.z.0.m.x.v.x.x.v.0.B.x.S.w.w.4.f.d.d.z.m p P { J G I S H I G I I z.g.4.x.0.M.z.z.w.x.;.P I S S S I I L I ",
"I S G G I I I I H S ;.d.d.d.d.d.d.d.f.z.n.z.z.x.x.v.Z.x.f.v.r.m p F E S S I I I L L I L <.d.f.b.d.b.b.b.d.d.;.S I I R G S G G G ",
"` G ` ` R ` ( J I I | 2.z.v.n.Z.g.s.g.d.n.s.d.d.v.v.v.x.v.f.<.h q D J R ` ) G G I R R R <.2.c.Z.v.v.c.v.x.4.-.) G G R ) J ) { { ",
"- - - & - & & - - - - , 2 e 1 e 4 4 a 4 4 a 4 1 w i 4 1 a 1 1 = @ - 7 & < - & 4 = - - - < 1 1 1 a 1 1 e 2 , - 9 1 - % 1 - & % = ",
"x j x l x x x F l P Y #.$.Y r = M &.#.#.9.1.q.q.q.q.9.1.#.#.#.#._ x x F j j F x F j l P #.1.] M - p U :.#.%.] K x x l x j x x x ",
"S S R H S S S L L i.n.B.g.2.P i p.n.n.x.D.x.D.B.D.K.G.x.d.f.b.x. .G S G S S H G G R E p.d.2.z.l.e V d.b.b.x.z.;.R S R H S H S S ",
">.>.2.>.1.p.;.;.4.a.z.4.M.D.&.e x.l.z.f.f.f.d.z.d.d.x.d.d.d.x.f.p.>.>.<.>.>.>.:.2.1.<.d.B.c.v.m.t #.d.d.f.d.x.d.2.>.>.>.>.>.>.>.",
"b.z.v.d.v.v.1.-.1.2.6.%.k s i 5 0.z.c.M.v.v.M.v.c.v.z.c.C.M.M.0.v.z.v.B.v.x.v.z.] -.l.:.1.w.M y o @.Z.v.g.z.w.x.v.v.n.v.z.Z.v.v.",
"z.d.x.d.v.D.f.>.G.f.1.&.U P s 5 x.4.g.z.4.x.x.z.d.x.x.f.x.f.4.g.n.z.z.z.z.x.B.D.<.z.W.p.p.n.Q m % [ c.n.z.z.w.z.x.x.x.x.z.x.x.x.",
"d.d.f.4.g.D.B.D.G.B.b.B.x.z.U t a.N.s.N.d.d.g.s.g.s.s.d.s.d.d.g.d.d.f.d.g.g.f.D.d.G.G.s.f.m.x.2.t #.x.b.d.d.x.f.f.4.g.f.f.d.4.f.",
"B.x.B.z.z.z.z.v.x.n.n.v.C.j.P w >.v.x.z.m.m.m.5.m.z.z.m.x.x.x.z.z.b.v.v.C.v.b.n.v.c.d.x.g.v.Z.i.e P 2.n.B.m.C.v.d.v.v.c.b.c.v.v.",
"N m N m B B m B m V z m m z * : r / z M B N B m m B B N N V m V V C m m m m m m B c N v m N k p o 1 k M m n C M m m m B m N N N ",
"m N N / C / X.O.8.8.O.C C +./ C V B N B z M B ^ m ^ ^ m ~ B p = % k V m N / N o.o.8.8.8.o.n o.+.Z N V B N C B B B ^ B k B C B B ",
"z.v.v.D.S.R.L.~.(.(.Q.K.D.K.G.x.4.g.g.N.m.g.z.f.m.d.s.B.h.z.d.y m 1.n.z.S.E.m.R.R.(.~.(.R.S.T.T.v.v.x.z.x.d.z.v.f.g.f.m.g.d.d.z.",
"f.x.a.f.d.d.d.d.d.s.d.s.d.d.f.d.b.x.b.z.d.f.z.b.4.g.m.S.f.a.D.m l d.f.f.z.m.p.d.d.m.g.d.s.s.s.d.f.h.s.h.d.d.f.m.v.f.d.x.d.b.B.f.",
"C.v.x.v.c.x.c.x.d.z.z.z.z.b.z.n.g.4.g.4.z.x.x.x.p.f.f.N.x.x.c.k M S.v.f.x.v.z.z.d.d.2.d.z.d.x.w.d.z.z.z.z.d.d.z.x.4.d.d.x.0.v.z.",
"x.z.4.x.x.x.b.x.v.v.v.c.0.0.x.v.z.z.x.n.M.z.1.>.n.p.l. XU U ' 1 m S.d.}. Xx.b.m.n.n.x.v.x.x.B.z.z.v.v.v.v.Z.0.7.<.2.B.1.0.U / / ",
"d.d.d.d.d.d.d.d.d.f.d.z.z.f.b.b.c.z.z.v.l.j.;.E v.#.e.{.t y g + m b.}. X Xx.f.s.d.b.d.d.d.s.d.d.z.z.f.x.x.x.d.s.` <.a.-.0.M k y ",
"x.f.b.z.b.z.d.b.b.N.x.x.x.x.B.v.d.s.s.f.d.f.d.d.I.N.U.Q.g.G.4.m k 2.f.d.z.M.b.m.z.f.b.x.z.b.b.c.b.n.b.x.x.N.b.f.b.D.P.B.!.G.v.w.",
"#.#.&.#.&.#.#.#.#.#.#.#.#.#.#.#.#.#.#.&.&.&.#.&.@.#.] %.#.-._ 9 - %.-.#.#.-.&.&.#.#.&.#.#.#.#.#.#.#.#.#.#.#.#.#.#.#.#.@.#.#.#.&.",
"e e i 1 1 e e 1 w i 1 e w e O @ - i e 1 a 2 a a 5 b n b 5 b a i i i i 1 i a e e 1 e i 1 e d 1 - + = e r 1 5 2 t b a 5 b b b 5 g ",
"z.z.w.4.0.v.m.m.k.v.v.x.0.z.x 9 -.4.c.D.K.S.R.Q.^.).'.].(.R.F.w.m.z.z.m.x.0.x.x.z.d.d.B.d.p.c.:.9 z <.x.B.D.K.D.R.^.(.'.].].^.R.",
"p.p.p.l.l.p.p.p.a.z.g.d.s.f.U r f.x.g.h.m.f.d.d.x.x.m.m.f.z.d.a.d.f.f.b.f.>.<.f.z.d.2.d.d.4.1.1.& ] b.h.v.g.f.d.x.4.4.f.x.g.4.g.",
"G G I I ` G G I E ,.w.M.4.q.W a c.d.a.d.x.z.B.z.v.j.c.d.c.c.Z.c.    c.a.[.| ] | C.w.:.S.9.y , & % o.0.g.9.0.v.v.Z.n.c.c.c.c.c.c.",
"I I I G S S I I G I 2.c.d.n.@.1 v.v.x.v.x.0.z.4.d.b.b.m.x.B.d.  4.g.  g.w.v.S.D.f.4.Q.P.D.W.D.<.< &.Z.b.d.v.x.a.d.d.d.x.x.d.d.d.",
"F A G G R S S S S I E d.f.B.#.y d.x.4.x.g.f.f.4.g.f.4.d.4.          d.d.f.z.g.f.b.d.p.d.d.2.z.z.e #.f.h.f.g.f.x.g.g.4.4.4.f.g.g.",
"# - q D ` I G G I I -.x.d.4.Z e d.B.d.d.d.v.x.g.7.v.v.v.  |.{.{.{...  z.z.z.z.z.d.v.z.4.z.B.w.9.p ' 2.s.4.4.4.d.0.x.v.C.v.C.w.x.",
"X X & p x G I G G G _ 2.p.<.k - L 7.j.7.2.2.2.4.2.2.p.                  4.2.[.4.9.4.>.f.2.2.a.T - z <.z.2.4.0.0.2.2.2.2.2.p.4.2.",
"% % % % = < < < 3 < % = 1 = = = = 1 = 1 = = = - = 4   t.y.y.y.y.y.t...!   1 < > < < < < < 1 < = % % < < < < = - = - - = % % < % ",
"4.1.4.w.G.L.L.L.L.m.w.x.0.4.2.>.1.1.4.2.4.4.4.4.2.  ..{.|.y.y.{.y.y.t...!   Y.R.K.R.L.w.0.0.m.>.0.j.7.7.2.:.] G P F z p = . O O ",
"d.d.4.d.d.z.d.b.d.d.d.h.b.d.f.h.g.d.N.f.d.x.b.p.  ..t.|.{.y.y.y.y.y.y.....    x.x.x.m.d.f.N.h.d.z.d.d.f.f.d.E S G H I h - % @ ; ",
"C.Z.Z.Z.Z.v.C.v.M.z.c.c.v.v.Z.m.x.b.z.z.| 7.Y ]   ..t.y.y.y.y.y.y.y.t.....    f.C.z.f.M.M.v.c.z.z.g.4.d.x.x.>.G S G I F 9 % o O ",
"4.f.4.z.z.g.w.z.x.x.B.w.m.d.4.x.4.d.4.z.4.W.v.D.  ! ..t.y.y.y.y.y.t.....!     z.d.x.f.4.d.m.d.4.v.v.z.a.v.C.<.G I J R J G F F P ",
"d.z.d.x.d.d.d.d.d.d.d.d.d.d.x.x.h.f.m.g.z.B.z.z.    ! ................!       B.z.d.d.z.d.x.b.x.d.d.z.d.z.z.;.L ` G G G G G G H ",
"C.z.M.S.c.c.Z.v.0.c.C.c.v.C.C.z.z.x.x.x.v.j.c.n.x.    ! ............!       d.d.M.x.p.v.x.d.2.d.4.f.g.g.x.x.;.I P P I R I I S S ",
"z.z.d.f.f.g.g.v.z.d.g.g.4.z.g.f.x.x.s.m.d.g.g.x.b.x.                      D.v.v.g.z.m.f.x.x.x.g.v.B.x.d.x.p.| G R H J J R G I R ",
", a , t a e e e t 1 i i i i i 6 e p e y i e e , t e 1                   e a i , s i i a e a i r i i e e e e e 7 9 - 9 - - - 4 9 ",
"9.9.%.@.#.@.#.&.#.#.#.@.Y U s & M %.%.&.=.=.9.r.9.q.9.=.%.%.%.&.=.q.q.=.@.@.#.%.' #.@.@.%.' #.V - s U ] %.%.U V l x l l l j j j ",
"T.S.B.z.N.D.z.M.d.d.x.x.B.0.V e 2.m.v.v.S.w.F.L.G.K.J.v.d.g.x.x.N.S.K.S.g.B.x.x.m.v.d.d.n.M.v.4.1 U j.v.v.w.7.<.R R R S S S G G ",
"s.d.v.a.f.s.| | 2.1.1.w.1.u w d f.z.d.g.B.d.z.4.d.d.d.d.d.b.g.p.5.4.d.f.d.d.d.d.Q | a.;.2.z.P u - @.f.h.x.x.d.d.<.<.<.<.<.<.<.<.",
"m.m.v.z.M.L.f.2.J.v.7.0.1.V e a f.x.z.d.g.d.d.z.x.x.g.d.x.b.b.x.x.x.x.x.f.d.B.P.1.b.E.2.2.Z.U k % @.z.d.d.z.d.f.v.v.v.x.z.b.v.x.",
"f.m.4.4.v.D.D.z.P.N.f.2.m.b.@.e 0.Z.z.z.x.f.z.d.x.x.x.x.z.d.z.v.0.g.x.z.z.M.B.D.v.G.G.g.0.x.w.4.e %.Z.x.g.m.x.x.x.x.x.x.d.x.x.x.",
"4.z.g.d.z.g.f.4.p.N.b.d.f.d.#.r z.v.f.d.x.x.x.d.f.d.b.b.x.x.c.d.f.g.z.d.x.x.4.4.g.s.4.x.f.p.d.b.a ] 0.z.4.4.d.d.b.d.f.x.d.x.b.x.",
"d.B.d.b.v.d.n.B.w.w.f.x.B.4.^ e 2.x.x.B.x.f.x.B.N.x.d.g.f.d.d.d.d.N.m.d.g.f.B.N.Z.v.B.v.d.D.x.i.r V f.N.g.x.n.b.h.n.g.g.B.d.d.f.",
"V m M V V B B Z B B B V V h 9 $ s z V V C B V C M V M m M P M ~ ~ ~ V B c ~ B C B ~ k V V m V k # 9 g ~ C m B C V V B V C m m C ",
"N c m N C C Z o.O.O.O.C C o.o.n m N m g g z g g n g ~ B c B a 4 & r k M N Z N Z X.*.*.*.X.m C C V m B B m k k k n g N g B B z k ",
"m.m.S.S.K.K.T.(._.'.~.S.x.K.H.q.z.m.x.d.x.N.m.m.N.p.d.m.d.x.1.y k 1.m.D.S.K.S.T.R.(.(.(.R.S.L.R.D.Z.z.z.v.C.v.S.n.b.N.d.d.z.D.B.",
"d.x.d.x.d.d.x.n.z.z.a.x.b.b.f.m.a.f.x.f.b.x.z.f.f.N.d.x.d.a.D.m M x.m.z.z.d.d.n.s.z.d.d.d.p.m.d.z.d.d.c.d.f.b.d.4.d.d.g.3.d.d.2.",
"z.4.x.x.m.4.4.4.m.d.d.g.f.d.2.d.4.m.g.0.z.0.0.m.f.d.f.w.z.v.C.m M m.x.d.f.0.d.d.x.x.d.x.x.f.z.d.z.f.z.x.f.d.z.z.w.5.5.m.x.N.B.0.",
"v.v.z.z.b.v.v.z.0.g.0.z.m.g.d.m.d.s.4.g.m.d.>.:.z.<.x.#.Y ] V - N S.0.d.b.v.z.d.x.0.x.0.0.x.z.0.x.d.d.g.z.z.z.f.i.i.a.<.2.U @.@.",
"b.z.d.d.d.f.f.d.d.z.z.z.b.x.x.d.v.Z.j.C.Z.z.;.` r.1.e./ t e g 3 N C.x.f.x.v.x.d.x.d.g.d.x.N.b.x.x.z.x.b.x.x.z.1.{ p.Z.1.9.N a 2 ",
"f.g.x.m.m.x.z.m.x.d.f.g.x.4.g.x.d.d.z.f.x.x.g.z.I.h.G.!.G.d.S.u u z.d.d.d.f.b.x.x.f.x.x.d.z.f.x.x.f.x.x.z.b.B.x.4.D.G.x.!.P.B.v.",
"#.-.-.-.#.-.=.$.:.$.#.#.:.;.#.=.#.#.#.#.-.;.#.Q -.:.#.#.=.&.C r 0 P 1.#.#.,.,.#.#.&.$.#.=.$.#.-.=.-.:.W $.@.#.:.#.#.#.#.&.&.-.&.",
"2 2 4 4 1 1 1 1 1 1 4 4 1 - @ @ = i a a 5 < a 6 2 b b a 4 i i i < 4 5 1 1 5 < 1 a 1 i e 1 i d - O = - i 5 a 4 e a t 5 a b f f 5 ",
"d.d.f.z.v.n.n.x.x.c.Z.z.Z.2.V 8 ;.p.v.v.K.0.(.R./.].].]._.R.B.4.Z.z.d.d.z.z.m.x.p.b.d.z.z.a.C.#.- V <.d.x.K.D.D.R.R.(.].].)./.R.",
"2.2.7.4.0.2.7.p.d.d.g.4.d.m.Z w a.f.N.d.B.f.f.>.p.1.<.>.2.x.f.a.z.d.z.b.z.2.2.d.d.d.4.4.B.z.1.6., %.f.h.d.d.g.s.a.p.4.d.4.d.p.p.",
"R I G I I I G R ` <.j.z.g.0.%.d x.4.4.4.v.p.| | J ) ` I G P G F <.Z.n.z.<.| | I N.9.Q S.q.w & , = +.C.v.4.0.w.4.{ ` G F F G G J ",
"R I H S H H L S S E j.x.d.g.' r x.x.m.g.p.;.S H G S L S G G G I -.d.d.d.x.b.G.m.2.N.!.P.D.P.D.:.w #.c.f.a.z.u.T I I G E I R H J ",
"F F G { J J S G J G  .a.z.C.&.i x.x.z.0.z.I G G I G G J J G F F #.D.m.4.x.0.b.g.x.x.d.d.3.4.D.4.i #.z.z.v.Z.<.I I H H H J ` ` F ",
"O - r F ` I G G G G >.x.g.5.W e b.x.d.d.f.L I J S I I G l 7 % o K x.x.f.x.z.b.x.v.z.x.f.b.x.2.x.e @.m.d.4.w.<.S I I G G I F p % "
};
