/* XPM */
static char *_4877ea276a24ca7e8edccaa69cf8c61r9PtsXdfXd35EWZp[] = {
/* columns rows colors chars-per-pixel */
"64 64 189 2 ",
"   c #3F3851",
".  c #6C5664",
"X  c #655C65",
"o  c #6B5A64",
"O  c #6C5669",
"+  c #675B69",
"@  c #6D5A6A",
"#  c #755664",
"$  c #785562",
"%  c #735B66",
"&  c #7A5C65",
"*  c #7E5769",
"=  c #745D6B",
"-  c #7C5D6B",
";  c #6D5F70",
":  c #745D71",
">  c #746165",
",  c #7D6266",
"<  c #75616C",
"1  c #7C636D",
"2  c #7E696D",
"3  c #756271",
"4  c #7D6572",
"5  c #7E6972",
"6  c #7E697C",
"7  c #845B66",
"8  c #8A5F66",
"9  c #835D69",
"0  c #8E5D6A",
"q  c #805F70",
"w  c #8B5E71",
"e  c #816266",
"r  c #83646D",
"t  c #8A646D",
"y  c #846A6D",
"u  c #8B6A6D",
"i  c #936C6E",
"p  c #846572",
"a  c #8B6571",
"s  c #836B74",
"d  c #8D6B73",
"f  c #826778",
"g  c #836F78",
"h  c #8D6D79",
"j  c #966674",
"k  c #9B6776",
"l  c #936D74",
"z  c #9B6B75",
"x  c #946E79",
"c  c #9D6A79",
"v  c #8E7275",
"b  c #8D7877",
"n  c #85717A",
"m  c #8D747A",
"M  c #937375",
"N  c #9A7375",
"B  c #947877",
"V  c #95747A",
"C  c #9A747B",
"Z  c #957A7B",
"A  c #9B7B7D",
"S  c #A66D77",
"D  c #AD6E76",
"F  c #A5677C",
"G  c #A46C7B",
"H  c #AC6E7B",
"J  c #B06C76",
"K  c #B16D7C",
"L  c #A27175",
"P  c #AC7176",
"I  c #A3737B",
"U  c #AD717B",
"Y  c #A47B7D",
"T  c #AB7B7D",
"R  c #B27877",
"E  c #B1727C",
"W  c #B37C7E",
"Q  c #AE837E",
"!  c #B3807F",
"~  c #576789",
"^  c #967683",
"/  c #9B7582",
"(  c #9D7C82",
")  c #AE6E80",
"_  c #B26E80",
"`  c #A77580",
"'  c #AD7381",
"]  c #A47D82",
"[  c #AC7D83",
"{  c #A77F88",
"}  c #B17382",
"|  c #BE7787",
" . c #B37C83",
".. c #BB7F84",
"X. c #6D8A9D",
"o. c #968385",
"O. c #9B8284",
"+. c #9D8B87",
"@. c #9E8589",
"#. c #A58283",
"$. c #AB8385",
"%. c #AC8884",
"&. c #A58389",
"*. c #AC8489",
"=. c #A18D8A",
"-. c #AD8B8C",
";. c #B38384",
":. c #BA8385",
">. c #B38985",
",. c #BB8A86",
"<. c #B48588",
"1. c #BB858A",
"2. c #B48B8B",
"3. c #BD8D8C",
"4. c #BD9186",
"5. c #BD928C",
"6. c #BC988D",
"7. c #BF8790",
"8. c #B78E90",
"9. c #BE8E91",
"0. c #A49192",
"q. c #B59494",
"w. c #BD9492",
"e. c #B79995",
"r. c #BD9993",
"t. c #BA959C",
"y. c #BB989A",
"u. c #BCA092",
"i. c #82A0AD",
"p. c #8CA9B5",
"a. c #C3858A",
"s. c #C28D8C",
"d. c #C88D8F",
"f. c #C39387",
"g. c #C3948D",
"h. c #C9958E",
"j. c #C4988E",
"k. c #C8998F",
"l. c #C38E92",
"z. c #C78E97",
"x. c #C98E90",
"c. c #C39391",
"v. c #C49592",
"b. c #C69397",
"n. c #C29494",
"m. c #C29695",
"M. c #C99592",
"N. c #C99595",
"B. c #C49993",
"V. c #C19894",
"C. c #C99893",
"Z. c #C99A95",
"A. c #CA9A94",
"S. c #C69699",
"D. c #C99599",
"F. c #C59B9A",
"G. c #CA9C9A",
"H. c #C7A196",
"J. c #CBA296",
"K. c #C5A19A",
"L. c #CBA29C",
"P. c #CAA39C",
"I. c #CAA89F",
"U. c #D0A295",
"Y. c #D2A39B",
"T. c #D6A99C",
"R. c #D9A99F",
"E. c #E3BE85",
"W. c #C6A3A1",
"Q. c #CEA4A1",
"!. c #CDABA3",
"~. c #D3A4A2",
"^. c #D7A6A1",
"/. c #D2ABA4",
"(. c #DAAFA2",
"). c #D4AEA9",
"_. c #CBB1A4",
"`. c #CDB6A8",
"'. c #D1B1A6",
"]. c #D5B4AC",
"[. c #D6BAAE",
"{. c #D5B6B1",
"}. c #DABDB3",
"|. c #DAC3B5",
" X c #FFEFA9",
".X c #A7C6C6",
"XX c #C2D2D3",
"oX c #C5DFD7",
"OX c #F2F7F6",
/* pixels */
"# = = . o t G U _ H  .3.b.c.g.b.g.C.g.v.v.h.m.g.m.c.m.g.g.D.1.0 + o o O @ . - k U U H U ;.l.c.S.v.v.v.c.g.3. .H U H F a % + @ + ",
"o + X . - j H H U U W g.v.j.g.j.g.N.g.j.5.m.h.f.3.h.j.3.j.5.2.C o % o $ @ @ - G D D H E s.Z.M.g.h.g.j.j.g.g.;.U P H ) G - . O # ",
". X . o t c ' E E P :.M.g.g.g.s.v.c.c.3.! s.T T | _ U l.D.N 1 o . o % $ $ % a ' U U U P s.g.5.j.f.g.g.g.h.g.:.H H H U I t = # # ",
"I H G S G H H H H F ..D.c.c.Z.m.M.v.v.M.3.T.h.P.I./.m.s.h.3.2.y - j G G F G H K K K K H l.d.v.c.N.D.c.l.c.h.1.H U D H U G c G G ",
"J J J H H P U P U U 1.m.c.w.B.v.m.v.v.w.w.G.c.F.w.r.5.j.g.g.c.M a I } K U U D D U U U U c.j.5.v.w.B.c.v.r.v.:.I U D D D U U P U ",
"U D H H U U U U J D :.g.g.g.g.g.g.g.h.c.N.c.c.v.v.D.D.c.v.m.y.M a G W D D U U H P P U P 1.j.h.v.g.v.M.M.g.g...H U U E H D H H H ",
"' H ' ' E ' ) K U U  .3.c.m.N.D.j.f.j.g.M.f.g.g.V.m.m.v.N.h.1.j w F K E ' _ H H U E E U 1.s.D.D.m.m.b.m.v.5.;.K H H E } K K } } ",
"- - - & - & & - - - - , 2 r 1 r 4 4 s 4 4 s 4 1 e p 4 1 s 1 1 = @ - 7 & < - & 4 = - - - = 1 1 1 s 1 1 r y , - 9 1 - % 1 - & % = ",
"c k c z c c c G z I T $.%.T t = N *.$.$.q.2.e.e.e.q.q.2.$.$.$.$.` c c G k k G c G j z I $.2.[ N - a Y ;.$.&.[ L c c z c k c c c ",
"D D E J D D D P P a.N.Z.j.3.I p s.N.N.v.G.v.G.Z.G.I.J.v.j.h.v.h...H D H D D J H H E W s.v.s.c.x.r C g.M.B.c.c.:.E J E J D J D D ",
",.,.3.,.2.s.:.:.5.d.c.5.V.G.*.r v.x.g.h.h.g.h.c.h.g.v.g.g.g.c.h.s.,.,.1.,.,.,.>.3.2.1.g.Z.m.V.m.y $.g.g.h.g.v.h.3.,.,.,.,.,.,.,.",
"M.c.m.g.m.m.2.;.2.3.8.&.l d p 5 w.c.b.m.m.m.m.m.S.w.c.b.S.w.m.V.m.c.m.Z.m.v.D.c.[ ;.x.>.2.w.N u o #.S.m.j.c.r.v.m.m.N.m.c.D.m.m.",
"c.g.v.g.m.G.h.,.J.h.2.*.Y I d 5 v.5.j.v.5.v.v.c.g.v.c.h.c.j.5.j.N.c.c.c.c.c.Z.G.1.c.^.d.s.Z.Q M # &.S.N.c.c.w.v.g.B.c.c.c.v.v.v.",
"g.g.h.5.j.G.Z.G.J.Z.M.Z.v.c.Y y d.k.h.j.g.g.j.f.k.f.f.g.f.h.g.j.j.h.h.g.j.j.h.G.g.J.J.f.g.B.c.3.y $.M.M.g.g.v.h.j.5.B.h.h.g.5.h.",
"Z.v.Z.c.c.c.c.m.v.N.N.m.S.l.I e ,.m.v.m.B.B.B.6.B.c.c.B.v.v.v.v.c.M.m.m.m.m.M.N.m.N.g.v.j.N.D.a.r I 3.N.Z.B.D.m.c.m.m.N.N.N.m.m.",
"B M B M V V M V M C x M M x * : t ( x N V M V M M V V B V V M C V Z M M M M M M V v M b M B l a o 1 l N M m Z N M M M V M M B B ",
"M B B ( Z ( o.+.0.0.+.Z Z @.( Z C V B V x N V / M / / M ^ l a = % l C M B ( M O.O.0.0.0.O.m O.@.A M C V B Z V V V / V x V B V V ",
"c.m.m.G.F.!.I.).].]./.P.G.P.J.v.5.j.j.C.B.j.c.h.B.g.g.B.B.M.g.u M 2.N.v.F.~.Z.!.!.].'.].!.F.Q.Q.m.m.v.v.c.g.c.m.g.j.h.B.j.g.g.c.",
"h.v.d.h.g.g.g.g.g.f.g.f.g.g.h.g.M.v.M.c.g.h.c.M.5.h.B.r.j.d.F.M z h.h.h.v.V.s.g.h.B.j.g.f.f.f.g.h.M.f.j.g.g.h.j.N.g.g.M.g.M.Z.h.",
"S.m.v.m.b.v.b.v.g.c.c.c.c.M.c.N.j.5.j.5.c.v.v.v.3.h.h.5.M.h.b.l N F.m.j.v.v.c.c.g.c.3.g.c.g.c.w.f.j.v.v.c.g.h.c.B.5.g.g.v.w.m.c.",
"v.c.5.v.v.v.M.v.m.m.m.b.w.w.v.m.c.c.v.N.V.c.2.,.N.s.x.$.Y Y ] 1 M F.f.5.v.v.M.B.N.m.v.m.v.v.Z.c.m.m.w.m.m.D.w.9.1.3.C.2.w.Y ( ( ",
"g.g.g.g.g.g.g.g.g.h.g.c.c.h.M.M.b.c.c.m.x.l.:.W m.$.t.#.y u h + M v.g.g.v.v.h.f.g.h.g.g.g.g.g.j.c.c.h.M.v.v.g.g.} 1.v.;.w.N l u ",
"v.h.M.c.M.c.g.M.M.C.v.v.v.v.Z.m.g.f.f.h.g.h.g.g.T.C.T./.B.J.5.M l 3.M.g.c.XXOXB.c.h.M.M.v.M.M.N.M.N.v.v.M.Z.v.h.M.D.Y.C.(.J.m.r.",
"$.$.*.$.*.$.$.$.$.$.$.$.$.$.$.$.$.$.$.*.*.*.$.*.#.$.[ &.$.;.` 9 - &.;.$.$.;.*.*.$.$.*.$.$.$.$.$.$.$.$.$.$.$.$.$.$.$.$.&.$.$.$.*.",
"r r p 1 1 r r 1 e p 1 r e r O @ - p r 1 s 2 s s 5 n m n 5 n s p p p p 1 p s r r 1 r p 1 r f 1 - + = r t 1 5 y y n s s g n s s h ",
"c.c.r.5.w.m.B.B.z.m.m.v.w.c.c 9 ;.5.b.G.P.F.!./._.[.}.|.].!.H.r.B.M.v.B.v.w.v.v.c.j.g.Z.g.s.m.;.9 x 1.v.B.G.I.D.!._.].}.|.|.`.!.",
"s.s.s.x.x.s.s.s.d.c.j.g.f.h.Y t h.v.j.k.B.h.g.g.v.v.B.B.h.c.g.d.g.h.h.M.h.,.1.g.c.g.3.g.g.5.2.2.& [ M.k.m.j.M.g.v.5.5.h.c.h.5.g.",
"H H U U ' H H U W <.r.V.5.e.Q s b.g.d.g.v.c.Z.c.m.l.b.g.b.m.OXXXm.b.b.l.1. .[  .b.r.;.F.q.u , & % O.w.j.q.w.B.m.N.N.S.m.S.b.b.m.",
"U U U H D D U U H U 3.b.g.N.#.1 m.m.v.m.v.w.c.5.g.M.M.B.v.Z.g.5.    5.g.c. XE.D.h.5./.Y.G.^.D.1.< *.D.v.g.m.c.s.g.h.j.B.v.j.g.g.",
"G S H H E D D D D U W g.h.Z.$.u g.v.5.v.j.h.h.5.j.h.5.g.5.g.h.  h.B. Xg.j.E. Xj.M.g.s.g.h.3.C.c.r $.h.k.h.j.v.M.g.j.5.5.5.g.j.j.",
"# - w F ' U H H U U ;.v.g.5.A r g.Z.g.g.g.m.v.j.9.m.m.m.B.c.      v.v.c.c.v.v.c.j.m.c.5.v.B.w.q.a ] 3.f.5.5.5.g.w.c.m.D.m.S.w.c.",
"X X & a c H U H H H ` 3.s.1.l - P 9.l.9.3.3.3.5.3.3.s.5.3.  oX.XX.  3.5.5.3.5.5.q.5.,.j.3.3.d.R - x 1.v.3.5.w.w.3.3.3.3.3.s.5.3.",
"% % % % = < < < < < # = 1 = = = = 1 = 1 = = = - = 4 < o               1 - 1 = > < < < < < 1 < = % % < < < < = - = - - = # % < % ",
"5.2.5.r.J.I.I.I.Q.B.r.v.w.5.3.,.2.2.5.3.5.5.5.5.3.2.5.  i.p.p.p.i.X.~   q.y.W.!.P.!.I.r.w.V.B.,.w.9.9.9.3.>.{ H T G x a = o O O ",
"g.g.5.h.g.v.g.M.V.f.g.V.M.h.h.k.j.h.M.g.g.M.g.s.c.c.  X..XoXp..Xp.i.X.~   f.N.M.v.v.g.g.f.C.k.d.v.g.j.h.g.g.W D D J H j - % @ ; ",
"S.S.D.D.D.m.S.m.v.V.c.S.m.v.D.m.v.v.c.c. .9.T [ E   X.i.oX.Xp.p.p.p.X.X.    v.h.D.v.v.m.N.m.m.m.c.g.5.g.c.c.,.H D H U G 9 % o O ",
"5.h.5.c.v.j.w.v.v.m.m.r.Z.g.5.v.5.j.5.c.5.~.m.G.I.  X.p.p.p.p.p.p.p.X.X.    w.c.j.v.h.5.5.B.g.5.V.S.c.d.m.m.1.H U K E K H G G I ",
"g.v.g.v.g.g.g.g.j.g.j.h.g.g.v.v.k.h.B.j.c.Z.v.B.C.  X.i.p.p.p.p.p.i.X.X.    h.V.v.f.g.c.h.M.M.v.g.g.c.g.c.v.:.P ' H H H H H H J ",
"m.c.v.S.b.b.D.m.m.S.m.b.m.m.b.m.c.c.v.v.m.l.b.b.v.  ~ X.i.p.p.p.i.X.X.~     j.g.m.v.s.m.v.g.3.v.5.j.j.j.v.c.:.U I I U E U U D D ",
"v.c.g.j.g.j.j.v.c.g.j.g.5.c.j.j.v.m.f.B.g.j.h.v.h.    ~ X.X.X.X.X.X.~       c.m.j.v.V.j.v.v.v.g.m.M.v.h.v.s. .E E J K K E H U E ",
", s , y s r r r y 1 p p p p p 6 r a r u p r r , y r     ~ X.X.X.X.~       s p e d p p s r s r t p p r r r r r 7 9 - 9 - - - 4 q ",
"q.q.&.#.$.#.$.*.$.$.$.#.T Y d & N #.&.*.-.-.q.y.q.q.q.                  #.#.$.&.] $.#.#.&.] $.C - d Y [ &.&.Y C k c z z k k k k ",
"P.D.A.c.V.G.m.m.g.g.c.v.Z.w.C r s.m.m.m.F.r.H.P.J.P.P.m.              F.j.Z.v.v.c.m.g.g.N.m.V.5.1 Y x.m.m.r.l.1.E E E D D J H H ",
"g.g.B.x.h.h. .W 3.2.2.r.2.i e f v.v.h.j.C.j.c.5.g.g.g.g.j.M.j.s.5.5.g.h.g.g.j.j. . .d.:.3.v.I i - #.v.j.M.m.g.f.1.1.1.1.1.:.1.1.",
"B.B.m.c.m.L.h.3.P.m.9.w.2.C r s g.v.c.j.j.g.g.c.v.v.j.h.M.c.M.M.B.v.M.v.h.j.A.Y.2.M.^.3.3.D.Y l # #.v.g.g.c.g.h.m.m.m.v.v.v.m.v.",
"j.v.5.5.m.G.G.v.Y.C.h.s.v.v.#.r m.S.c.c.v.h.c.g.v.v.m.v.c.g.c.m.w.j.m.w.c.m.A.D.V.J.J.j.w.v.r.5.r &.D.v.j.B.v.v.v.c.M.v.h.v.v.v.",
"5.v.j.g.c.j.j.5.s.B.C.g.h.h.$.t c.v.h.c.v.v.v.h.f.h.M.M.v.v.m.g.h.j.v.h.c.v.5.5.j.5.5.B.g.s.g.M.f [ w.v.5.5.g.j.M.g.g.v.g.v.v.v.",
"h.C.g.M.m.j.M.Z.B.r.g.v.C.5./ r 3.v.M.Z.v.g.c.Z.N.v.g.V.h.g.g.g.g.B.V.f.j.g.Z.Z.D.m.Z.M.g.G.v.a.t C g.C.j.c.N.M.j.C.k.j.N.j.h.j.",
"C M N C C V V A V V V C C j 9 # d M C C Z V C Z N C N M N I N ^ ^ / C Z v ^ V B V ^ M C C M C l $ 9 h ^ Z M V Z C C V V Z M M Z ",
"M v M M Z Z A O.+.+.+.Z Z O.O.m M M M x h x h h m h / V M V s 4 & t M N M A B A o.=.=.+.o.v Z Z C M V V M l l l m h M h V V x l ",
"V.B.F.F.I.P.Q.].].}.).F.m.P.K.e.m.C.v.g.v.Z.B.v.Z.s.g.B.j.c.2.u l 2.c.D.F.P.F.Q.!.].].].!.F.Q.!.D.S.v.m.w.D.N.S.N.M.M.j.g.c.D.A.",
"g.v.g.B.g.g.v.N.c.c.x.c.M.M.h.C.s.v.v.h.M.c.c.v.h.M.g.B.g.h.D.M N v.B.v.v.v.g.N.f.v.g.g.g.s.h.g.B.g.g.v.g.h.v.g.5.B.h.j.4.j.g.5.",
"c.5.c.c.B.5.5.5.c.g.g.j.g.h.3.g.5.B.j.5.v.w.w.B.j.g.g.w.v.m.S.M N V.v.j.g.m.g.g.c.c.j.v.v.h.v.g.v.j.c.c.g.g.c.c.r.6.6.B.v.Z.B.V.",
"m.m.c.c.M.V.V.c.w.j.w.c.v.j.g.B.g.g.5.j.B.j.,.>.c.1.m.$.T [ C - M F.w.g.M.m.c.g.m.c.v.w.w.v.c.w.c.g.h.j.c.c.c.h.a.a.d.1.3.Y #.#.",
"M.v.h.h.g.g.h.g.g.c.v.g.v.v.v.h.v.S.l.D.D.d.:.' y.2.y.( y r h 3 M S.v.h.M.m.v.h.v.g.j.g.c.M.v.N.M.c.v.M.v.v.v.2.} a.D.2.w.M g 2 ",
"j.j.v.v.B.c.v.Z.Z.g.h.j.v.5.j.c.g.g.v.h.v.v.j.v.T.k.U.(.J.g.D.i i c.g.j.g.j.v.v.v.h.v.c.j.v.h.c.v.h.v.v.c.M.Z.v.r.G.J.c.(.Y.Z.c.",
"$.;.;.;.$.;.-.%.>.%.$.$.>.:.$.-.$.$.$.$.;.:.$.W <.>.$.$.-.*.Z t 0 I 2.$.$.;.;.$.$.*.%.$.-.%.$.;.-.;.;.Q %.#.$.>.$.$.$.$.*.*.;.*.",
"2 2 4 4 1 1 1 1 1 1 4 4 1 - @ + = p s 5 5 < s 6 2 5 n g p p p p 3 5 5 1 1 5 < 1 s 1 p r 1 p f - O = - p 5 5 5 r s y 5 4 n n n 5 ",
"g.j.g.c.m.m.N.h.c.m.D.c.S.3.C 8 :.s.S.m.Q.c.'.!.`.|.|.|.{.!.Z.5.D.c.g.g.c.c.Z.m.s.M.j.v.c.c.S.$.- C 1.g.m.I.D.G.!.!.].|.|.[.`.!.",
"3.3.l.5.w.3.9.s.g.g.h.5.g.Z.A e d.h.k.j.Z.g.B.,.s.2.1.,.3.v.h.x.c.g.c.M.c.3.3.g.g.g.3.5.Z.c.2.2., ] h.j.h.j.j.f.s.s.5.j.5.g.s.3.",
"} U H U U U H E ' 1.l.c.h.w.&.6 v.5.5.5.m.x. . .U K ' U U I H G 1.D.N.c.1. . .U Z.q.W F.e.e & , < @.S.m.5.w.w.5.} ' H F S H H K ",
"E D J J J J P D D  .l.c.g.j.] t v.v.V.j.s.:.D J H H P D D H H U W g.g.g.v.M.J.B.3.Z.(.Y.G.Y.G.>.e $.m.h.x.c.a.R U P U W E E J K ",
"G G U } K K D H K H ..x.c.S.$.p c.c.c.m.c.U H H U H H K _ H G G $.D.B.5.v.w.v.j.v.v.j.j.5.5.D.5.p $.b.c.m.D.1.U U J D J K ' ' G ",
"O - t G ' U H H H H ,.v.j.6.Q r v.h.g.g.g.P U K J U U H z 9 % o L C.v.j.v.v.M.v.c.c.v.f.C.C.3.v.r #.v.g.5.r.1.D U U H U U G a % "
};
