/* XPM */
static char *_8bd4311de934ee89938ba6e21529974n4JguOiq3OI0hr7n[] = {
/* columns rows colors chars-per-pixel */
"64 64 238 2 ",
"   c #6B5766",
".  c #6E5967",
"X  c #6F5968",
"o  c #705967",
"O  c #745C69",
"+  c #7B5D6C",
"@  c #77606C",
"#  c #7A626D",
"$  c #7C6570",
"%  c #7D6873",
"&  c #984D1A",
"*  c #B9590C",
"=  c #AB5819",
"-  c #B65B14",
";  c #B85916",
":  c #B35C1C",
">  c #B9640D",
",  c #AD6418",
"<  c #B96617",
"1  c #B2631B",
"2  c #BC651C",
"3  c #BC6C1D",
"4  c #BA7119",
"5  c #9B5426",
"6  c #975531",
"7  c #AA5A25",
"8  c #B55C23",
"9  c #A75C38",
"0  c #B86924",
"q  c #BD732C",
"w  c #BA7829",
"e  c #A86735",
"r  c #AB6932",
"t  c #BA7836",
"y  c #C55E14",
"u  c #C2670D",
"i  c #C36514",
"p  c #C86717",
"a  c #C46B13",
"s  c #CC6D14",
"d  c #C3631B",
"f  c #C46B1B",
"g  c #D36E19",
"h  c #CB7514",
"j  c #C77719",
"k  c #C9751B",
"l  c #CB7B1C",
"z  c #D37B14",
"x  c #D67918",
"c  c #C96D23",
"v  c #C57523",
"b  c #C47B23",
"n  c #CA7C23",
"m  c #C4782A",
"M  c #C67730",
"N  c #8A584D",
"B  c #9D684C",
"V  c #85625C",
"C  c #936555",
"Z  c #977A58",
"A  c #A96946",
"S  c #AB744A",
"D  c #B67545",
"F  c #B16F53",
"G  c #A97556",
"H  c #815F6D",
"J  c #81636E",
"K  c #89616F",
"L  c #876A6C",
"P  c #806570",
"I  c #8C6371",
"U  c #846B74",
"Y  c #8A6C74",
"T  c #926574",
"R  c #9D6A77",
"E  c #957871",
"W  c #96757A",
"Q  c #98767B",
"!  c #9A787D",
"~  c #AB796A",
"^  c #B37C64",
"/  c #A46D78",
"(  c #AA6F7A",
")  c #AD707B",
"_  c #A67979",
"`  c #A17B7F",
"'  c #B1757E",
"]  c #B2797C",
"[  c #BA872F",
"{  c #BC8837",
"}  c #CB871A",
"|  c #CC841C",
" . c #D48315",
".. c #DA8616",
"X. c #D48A15",
"o. c #D3851C",
"O. c #D38D1B",
"+. c #DC8C1C",
"@. c #C9921F",
"#. c #DE921B",
"$. c #D99519",
"%. c #DC9C1C",
"&. c #E4990F",
"*. c #E28E19",
"=. c #E49917",
"-. c #E2931C",
";. c #E29A1B",
":. c #DEA11C",
">. c #E5A314",
",. c #EBAB16",
"<. c #E3A11C",
"1. c #E9A41B",
"2. c #E8A819",
"3. c #ECAB1A",
"4. c #EDB114",
"5. c #EEBB16",
"6. c #EEB31B",
"7. c #F1B515",
"8. c #F3BC14",
"9. c #F2B519",
"0. c #F1BB19",
"q. c #CB8727",
"w. c #D38523",
"e. c #D38B24",
"r. c #D98C22",
"t. c #D58829",
"y. c #C8902D",
"u. c #D99627",
"i. c #C58838",
"p. c #D58E35",
"a. c #CB983B",
"s. c #D59837",
"d. c #E39725",
"f. c #E59C23",
"g. c #E99F37",
"h. c #DBA42A",
"j. c #D9A637",
"k. c #DAAB3B",
"l. c #E4A322",
"z. c #E8A727",
"x. c #E3A42D",
"c. c #EAB427",
"v. c #F2BF25",
"b. c #E5A531",
"n. c #E5AC37",
"m. c #E8B63A",
"M. c #ECC129",
"N. c #F1C327",
"B. c #ECC33C",
"V. c #F2C737",
"C. c #BB8747",
"Z. c #A88755",
"A. c #B58C5A",
"S. c #BC9557",
"D. c #A88365",
"F. c #B58569",
"G. c #BD976F",
"H. c #AC8375",
"J. c #AB817A",
"K. c #B48474",
"L. c #B88979",
"P. c #BA8D7D",
"I. c #CF9345",
"U. c #C99848",
"Y. c #C89C57",
"T. c #CBA54A",
"R. c #D7A846",
"E. c #DDB344",
"W. c #DCB649",
"Q. c #CBA858",
"!. c #D7AC56",
"~. c #DAB655",
"^. c #E3AA45",
"/. c #EABC43",
"(. c #E5B648",
"). c #E6B755",
"_. c #C29D67",
"`. c #C39A75",
"'. c #C8A467",
"]. c #D5B969",
"[. c #E7BE64",
"{. c #ECC343",
"}. c #E8C544",
"|. c #ECC44A",
" X c #ECCA4C",
".X c #F2CB48",
"XX c #EDD14D",
"oX c #F6D749",
"OX c #F4D34C",
"+X c #EAC656",
"@X c #ECCA53",
"#X c #F3CA53",
"$X c #EFD157",
"%X c #F4D453",
"&X c #F5DA55",
"*X c #F6DD5A",
"=X c #F8DA58",
"-X c #F9DE5A",
";X c #F8E055",
":X c #F6E25B",
">X c #F9E15C",
",X c #ECD06D",
"<X c #F4D864",
"1X c #F3DB77",
"2X c #A17D80",
"3X c #AE7B80",
"4X c #B47C82",
"5X c #B87F84",
"6X c #9D8485",
"7X c #AD8485",
"8X c #A88A89",
"9X c #B58384",
"0X c #B88285",
"qX c #B88786",
"wX c #BB8D84",
"eX c #B78B8A",
"rX c #BE8D8C",
"tX c #AB908E",
"yX c #BE9186",
"uX c #BE918E",
"iX c #B79A95",
"pX c #B49C98",
"aX c #B1A09E",
"sX c #BFADA8",
"dX c #C08F8D",
"fX c #C29383",
"gX c #C2928E",
"hX c #C39490",
"jX c #C69994",
"kX c #C89D96",
"lX c #C7A59C",
"zX c #CCA39C",
"xX c #CEABA1",
"cX c #C0AEA9",
"vX c #D0ACA2",
"bX c #D1B6A9",
"nX c #F6E387",
"mX c #D7C1B7",
/* pixels */
". . . . X X T ( ( ' ) 5XhXhXhXhXhXhXhXhXhXhXgXhXhXhXhXhXhXhX3XX X X X X   X T ( ) ( ' 5XgXhXhXhXhXhXhXgX5X) ) ( ( T X . . . . . ",
". . . . X O ( ( ) ( ) gXhXhXhXhXhXhXhXuXhXhXgXgXgXgXgXhXhXuXeXX X X X X . O ( ( ) ) ) gXhXhXhXhXhXgXhXhXgX) ) ) ' ( O . . . . X ",
"o o o o o T ( ) ) ) ' gXhXhXhXhXhXhXhXuX3XgX3X) 4X3X3XdXuX# + X X X X X O T ( ) ) ) ) dXhXhXhXhXhXuXhXhXgX) ) ) ( ( T O X X X . ",
"T / / ) ( ( ) ) ( ) ) gXhXhXhXgXhXhXhXhXgXxXgXxXzXvXgXhXhXrX3XO I / ( ( ( ( ) ) ) ) ) gXhXhXhXgXhXhXhXhXgX' ( ) ( ) ( ( / / T X ",
") ) ) ) ) ) ( ) ) ) ) hXhXhXhXhXhXhXhXhXhXhXhXjXhXhXhXhXhXgXrXO / ( ) ) ( ) ) ) ) ) ) hXhXhXhXhXhXhXhXhXuX) ) ( ) ( ) ) ) ) / O ",
"( ) ( ) ) ( ) ) ) ) ) uXgXhXhXhXhXhXhXhXhXhXhXhXhXhXhXhXhXhXdXO ( ) ) ) ( ) ) ( ( ) ' gXhXhXhXhXhXhXhXhXhX) ) ) ) ) ) ) ) ) ( O ",
"T ( ) ( ) ( ) ( ) ( ) 9XuXhXgXgXhXuXhXhXuXhXhXuXdXhXhXgXgXgX3XO T ) ( ( ( ( ) ( ( ) ( 9XuXhXhXuXgXhXgXhX0X) ) ) ) ( / ) ( ( T X ",
"O + O + + O + O O + + + # @ + + # @ # @ # # @ O + + # # # # X X O + O + + O + + + O O + # # # # + @ # @ O O + O + + + O + + O X ",
"/ / / / / / / / / / 3XeXeXeX/ o / eXeXeXlXeXlXlXlXlXlXeXeXeXeXeX/ / / / / / / / / / ] eXeXeX/ o / eXeXeXqX4X/ / / / / / / / / / ",
") ) ( ( ( ' ( ( ) 4XrXhXhXhXrX+ eXhXhXhXjXhXjXjXiXjXjXhXhXhXhXuX) ) ) ) ) ) ) ) ) 4XuXhXhXhXeX+ eXhXhXhXhXdX5X) ( ( ) ( ) ) ) ) ",
"dXdXdXdXdXdXdXdXdXgXhXhXhXhXuX@ uXhXhXhXhXhXhXhXgXgXhXhXhXhXjXhXdXdXdXdXrXdXdXrXrXgXhXhXhXhXuX+ gXgXhXhXhXhXdXdXdXdXdXdXdXdXdXdX",
"hXhXhXhXhXgXdX4X4XdX4XrX% # # O rXhXhXhXuXhXhXhXhXhXhXhXhXhXuXhXhXhXgXgXhXhXgX4X4XdX4XgXuX$ $ O uXhXhXgXhXhXhXhXdXhXhXhXhXgXhXhX",
"hXhXgXhXhXhXvXgXzXvXdXhXeX7X_ + uXhXhXhXuXhXjXuXhXgXhXgXuXuXhXhXhXgXhXhXhXhXzXgXzXxXdXhXhX7X_ + uXhXhXgXhXhXhXhXhXhXhXhXhXhXhXhX",
"hXhXhXhXhXhXjXhXjXjXhXhXgXhXrX@ gXhXhXhXhXhXhXjXeXK.D.A.S.F.D.~ 0XgXhXuXhXhXkXgXjXhXhXhXhXhXrXO uXhXhXhXhXhXhXhXhXhXhXhXhXgXhXhX",
"hXhXhXhXhXhXhXhXhXhXhXhXhXhX3XO ] hXhXhXhXjXeXD.'.!.!.E.E.E.W.W.T.G J.uXhXjXgXjXhXhXhXhXhXhX4X+ 4XhXhXhXhXhXjXhXhXhXhXhXhXhXhXhX",
"P P P P P P P J $ P P P P # + X # J P P # L Z.~.E. XXX&X&X%X#XB.c.j.{ Z U # J P $ P P P P P +   + P P P P P P P P P P P P P P P ",
"/ 7X7X7XiX7XiXiXsXcXsXpXeXiXiX7X7X7X7X7XJ.Z.[.XX%X*X:X=X-X>X-X.XN.6.h.T.E 9XiXiXsXsXsXiX7XiXiX9X3X7X7X7X7X7X4X7X7X7X7X7X7X3XR X ",
"rXhXhXhXjXhXkXkXzXzXzXkXhXkXkXhXhXhXjXgXL.~.}.&X:X:X>X&Xm.m.{.V.v.V.m.(.C.fXkXkXxXzXzXkXjXjXzXjXhXhXjXhXhXhXhXjXhXhXjXhXhXhXeXX ",
"gXhXhXhXhXhXjXhXgXgXgXhXhXhXhXhXhXhXhXqXA.@XXX:X:X-X%X|.u.%.f.z.V.<XB.1.u.F.hXhXhXgXgXhXgXgXgXhXhXhXhXhXhXhXhXhXhXhXhXhXhXhXuX@ ",
"hXhXhXgXhXhXhXhXhXhXhXhXhXhXhXhXhXhXeX_.S.@X%X>X:X=X/.x.u.#.-./.-XV.0.>.>.F.dXhXhXhXhXhXhXhXhXhXhXhXhXhXhXhXhXhXhXhXhXhXhXhXeXO ",
"hXhXhXhXhXhXhXhXhXgXhXhXhXhXhXhXgXgXF.~.S.XX.X-X>X-X%Xm.;.*.-.m.V.8.8.>.f.A.hXhXhXhXuXhXgXhXhXhXhXhXhXhXhXgX5X4XuX4XrXI U U P X ",
"hXhXhXhXhXhXhXhXhXhXhXhXhXhXhXhXgXeXQ.(.y.@X/.oX-X>X&XV.(.^.l.c.5.8.9.>.f.A.dXhXhXhXhXhXgXgXhXhXhXuXhXhXhXhX0XrXzXrXzXiX2X3X2XO ",
"5XhXhXhXhXjXhXhXhXjXhXjXhXhXjXhXhXP.!.m.i.^.%X{.oXoX&X1X1X+X9.7.8.7.,.3.#.^ hXhXhXjXhXhXhXjXjXjXhXjXhXjXhXhXjXhXzXjXkXzXjXjX5XO ",
"K Y Y Y Y Y Y Y Y Y Y Y Y Y Y Y Y E !.m.R.m n..XB.B.$XnX<XN.0.8.4.,.4.=.x C Y Y Y Y Y Y Y Y Y Y Y Y Y Y Y Y Y Y Y Y U I Y Y +   ",
"2X2X2X2X2X2X2X2X2X2X2X2X2X2XT X K _ U.|.E.w r.c./.,X<X{.c.7.4.7.6.3.-.x 0 ~ 2X2X2X2X! ` 7X! I . T 2X2X2XtX3XtX8XtXpXaXaXtXtX2X2X",
"jXhXjXhXjXhXhXhXjXhXjXhXhXjX0X+ qXfXt @X{.R.q.t.n.).m.3.,.,.&.=.#...g q ^ gXhXdXL.'.'.`.G.rX9X@ qXhXhXhXkXhXzXzXzXxXvXxXkXzXhXjX",
"5X5X5X5X5X5X5X5X4XdXhXhXhXhXuX@ uXfXD s.#X|.j.w.l -.f.=.=.*.z z g p ; e ] 5XK.G.].E.W.E.T.'.D.@ gXhXhXhXgXhXgXhXhXhXuXgXhXhXhXhX",
"( ( ( ( ) ( ( ( ) ) dXhXhXhXuX@ uXgXA c b.m.@X).s.O.w.w.o.h i 2 d 2 , e L.F.A.). X XOX%XXX/.U.Z rXhXhXhXhXhXhXhXhXhXhXhXhXhXhXhX",
"' ) ( ( ) ) ) ) ) ) 4XdXhXhXuX@ uXfX6 0 | z./.[.m.<.%.u.e.| f a d < y.t L.C.(.|..X=X>X>X-XOX|.T.G.gXgXgXhXhXhXhXhXhXhXhXhXhXgXhX",
"I I I / ( ) ) ) ) ) ) dXhXhXuX+ gXP.e t i.p.r.g.z.1.=.*.+.x g p f q.d.0 t M #X/.=X>X:X>X>X>XoX}.Q.P.gXgXhXhXhXgXgXhXhXhXhXhXhXhX",
"    o H / ) ) ) ) ) ) dXhXhX5XO 9XP.C.w p.R.a.y.w.*.t.s p i d l O.f.o.= 0 d.OX.X:X:X-X%X:X-X-XOXm._.gXjXhXhXhXhXhXhXhXjXhXjXhXhX",
"        + K K K K K I T R W K . K H.C.i.b b.k.!.!.u.u.| o.o.O.u.;. .d & w.b.V.V.&X;X&Xn. X X&X;X{.W.D.Q Q Q Q Q Q ! Q Q Q Q Q Q ",
"I Q W W W 8X6X6X6X6XW W 6XW W W W _ D !.i.e.f.).).z.;.%.#.;.-.*.x i : & r.b.%XV.oX&XoXb.x.b.m.*X%X{.Z.E T H K H T H             ",
"qXhXjXhXjXzXzXzXxXzXjXjXzXjXgXeXwXP.S p.R.s.t.o.-.z.=.-. .x g p d > 1 7 r.b.1X@X<X<Xm.z.+.-.g.&X&Xm.T.fXrX' ) ' ( / X o o o o   ",
"hXhXhXhXhXgXhXuXgXgXjXgXeXG.`.'.Q.Y.C.0 x.n.T.R.s.o.o.x a p c c d a 0 b w.;.+X/.nXnX).u.-.#.-.V.V.6.j.P.fX' ) ) ( ( H o       X ",
"hXhXhXhXhXhXhXhXgXgXhXP.`.Q.W. XXX@X|.[ n d./.).j.O.@.q.b j m k c f b %.m *.l.c.|.$X$Xx.d.b.m.M.N.2.c.F.dX) ) ) ( ) / H I I + o ",
"hXhXhXhXhXhXhXhXgXhXP.'.|. XXX*X&X*XOXU.5 [ O.d.f.1.f.-.*.x s p p n l.<.3 e.-.,.,.0.v.6.l.B.=XOXV.c.h.C.G./ ) ( ) ) ) ) ) ) / X ",
"hXhXhXhXhXhXuXhXjXfXG.|..X:X:X>X%X|.W.T.e 7 v w.o.t.w.s u a h k O.l.>.x : b ..#.,.4.7.0.0.N.N.oXXXc.j.j.T.~ ) ( ) ) ) ) ( ) ( X ",
"rXhXhXhXhXjXhXhXiXH.~.}.>X:X*X%X/.u.[ +Xw I.w w.n t.w.l l  .#.;.1.#.z 2 = = a h =.,.,.0.0.8.8.7.6.c.U././.U.~ ( ) ) ' ) ) ) / X ",
"T ` 2X2X2X2XJ.` H.Z.$X}.-X-X&X}.b.d.{ +Xw I.a.s.e.d.d.l.z.;.*...z s d 8 = & 0 i x ;.3.4.6.6.6.3.2.h.!.XXz.z.S T T R T T T T H o ",
"W W W Y Y Y Y L Z.{ XX{.:X;X&X.Xn.d.{  Xy.m R.j.I.s.u.r.-.x u p s k 0 f 8 5 I.1 y h -.2.3.3.3.1.u.T.@XN.3.,.[ V H H H H H H K K ",
"xXxXxXhXhXjXgXF.).a.W.|.OX-X-XoX#X^.{ #Xn.w n b.^.Q.I.@.O.| l j j n x < A G !.w q < s x *.=.#.u.y./.v.8.9.>.@.A.~ ) ' ' ) ) ) ( ",
"gXgXgXhXgXgXuXS.n.R.i.|.{.oXoX%X1X1X{ R. Xk.M t.d.^.m.<.;.#.+.+.x g i r L.K.U.j.s.{ b k 0 M { q.l.0.8.7.,.3.@.k.D ] 5X4X4X5X] 5X",
"gXhXhXhXhXgXhXY.s.(.w p.m.m..X<X1X/., w ^./.j.q.w.o.+.-.*.z s i i ; 7 A gXL.t ^.k.(.E.a.Q.].,XM.0.8.8.7.,.1.4 X.u.P.gXhXhXhXhXgX",
"hXhXhXhXhXhXzXU.j.^.a.0 u.n.[.(.z.:., : n b.m.(.a.v | q.e.j j 2 : = = G rXfXe p.n.h.m.).nX1XB.5.9.6.4.2.1. .1 O.%.~ gXhXgXhXhXhX",
"hXhXhXhXhXhXrXS R.x.E.{ m l p.u.$.%.1 r 0 l p.).(.l.$.@.} | j f ; * = F gXgX^ 0 e.j.^.W.).c.,.,.2.>.>.;.z i 4 r.$.G gXhXhXhXhXhX",
"hXhXhXhXhXhXuXB i.j.j.j.i.[ l k l h = 0 M q c k  .X.+. .h a > * - = : G gXgXfXF m l I.^.;.&.&.%.&.#. .a * 1 X.X.X.B uXhXhXhXhXhX",
"7X7X7X7X7X7X7XV 7 p.u.s.^.R.w 4 4 4 : = t i.q w b k h < * - : : , i : G 7X7X7XJ.A 3 k l z o.z a u u * 2 1 q.X.&.h N 7X7X7X7X7X9X",
"+ P P P U P U U B q w.R.^.e.X.X.o. .j = = j p.I.{ 0 3 , : , < 4 d ; e L Y % U Y D.5 1 3 w q j , - * = < o.X.X.h - N J P P J # . ",
"4XhXhXhXxXhXvXvXbXF.M v h h  .l u y - 8 9 q k n w.o.} | v p i * ; A P.hXxXjXxXxXbX~ 0 3 0 t w , , 4 } X. ...s * 5 _ gXhXhXhX4Xo ",
"hXhXhXhXhXhXhXgXgXrX~ e t m v 3 ; 8 9 ~ wXK.D M v k h u * ; 8 7 F rXhXhXhXhXhXgXiXwXS v | p.e.O.X.X. .h i * * 5 N eXgXhXgXhXuXO ",
"hXhXhXhXhXhXhXhXhXhXhXrXL.~ ~ ~ ^ ] fXhXgXhXgXK.^ D D D A A G V gXhXhXgXhXhXhXhXhXhXyXG t v j h u > * * ; = 5 N 7XhXhXhXhXgXrXO ",
"hXhXhXhXhXhXhXhXhXhXhXhXhXhXhXhXhXhXhXhXhXhXrXrXdXdXuX7X7X9X_ @ dXgXhXhXhXgXhXhXhXhXhXgXL.G D q w 3 8 7 6 C / 9XhXuXhXeXeXeX_ X ",
"hXhXhXhXhXhXhXhXhXhXhXhXhXhXhXhXhXhXhXhXdXdX4X4XgX4XhXP # # # O uXhXhXhXhXhXhXhXgXhXhXgXhXhXuXeXJ.H.J.J.7XrX3X4XhX4XuXP # # # X ",
"dXhXhXhXgXhXhXhXhXhXhXhXhXhXhXhXhXhXhXhXhXhXhXhXxXjXvXvXjXgXrX@ rXgXhXhXhXhXhXgXhXhXhXhXhXhXhXhXhXhXhXgXhXhXhXjXxXhXxXxXjXgXrXO ",
"/ eXeXeXeXeXeXeXeXeXeXeXeXeXeXeXeXeXeXeXeXeXeXeXqXeXeXeXeXeX/ o / eXeXeXeXeXeXeXrXeXeXeXeXeXrXeXeXeXeXrXeXeXeXeXeXeXeXeXeXeX/ X ",
"# $ + + # + # + + # @ # # + O X H H + H + + # $ % % % I % + + + + # # @ # # # # # # @ + @ # o X O # + # # + $ $ $ % % % $ $ @ @ ",
"gXhXhXgXhXhXhXhXhXhXhXhXgXgX) O 4XdXdXdXvXjXxXvXvXmXmXbXvXvXhXdXuXhXhXgXgXgXgXgXhXhXhXhXhXuX3XO 3XuXhXuXxXhXxXvXxXmXmXmXxXxXhXhX",
"gXdXdXdXgXgXdXgXrXhXhXhXhXhXuX@ dXhXhXhXhXhXhXdXdXdXdXdXdXgXdXdXhXhXhXhXdXdXuXhXhXuXhXhXrXeXeX@ rXhXhXhXhXhXgXgXuXhXhXhXgXdXuXhX",
"( 3X) 3X( ( ) ) ) 5XrXhXhXhXuX@ dXhXhXhXdXdX5X3X3X3X( 3X3X3X( 3XgXhXhXgX4X3X3XgXuX4XhXuX% + + X rXhXhXhXhXhX5X) ) ) ) ) ( 3X) ( ",
"( ( ) ) ' ( ( ) ) ) 0XgXhXhXuX@ dXhXhXhXdX' ) ) 3X3XR ( 3X( ( ( gXgXgXhXdXvXhXhXhXxXxXjXxXuX7X+ uXhXhXhXhX5X) ) ) ) ) ) ) ( ) ) ",
"( ( ( ( ( ) ) ) ) ) ) hXhXhXuX@ dXhXhXhXdX) ) ( 3X( ( 4X/ 3X( ( gXhXhXhXhXhXhXdXhXhXhXhXhXhXrX+ uXhXhXhXgX) ) ) ) ) ) ) ( ( ( ( ",
"X o X T ( ) ) ) ( ) ) hXhXhXrX@ dXdXhXhXdX) ( ( ( ( ( ( T O O O uXhXgXhXhXhXhXhXhXuXhXhXhXhXeX+ rXhXuXhXdX) ) ) ( ) ( ( T O X O ",
"X X X X T ( ) ( ) ) ) 0XuXuX) O ' dXhXhX5X) ( ( 4X( ( T X X X O uXhXhXhXhXhXhXhXhXhXhXhXhXuX3Xo ) hXhXhX5X) ) ) ) ) ( T X . . . "
};
