/* XPM */
static char * door_back_xpm[] = {
"64 64 274 2",
"  	c #745366",
". 	c #755A6B",
"+ 	c #705B6A",
"@ 	c #695765",
"# 	c #705865",
"$ 	c #88646E",
"% 	c #A26E7A",
"& 	c #AF717C",
"* 	c #AF6F80",
"= 	c #AB6E7D",
"- 	c #B17881",
"; 	c #BE8A8E",
"> 	c #C69495",
", 	c #735C69",
"' 	c #6A5766",
") 	c #72616E",
"! 	c #715A67",
"~ 	c #6D5967",
"{ 	c #6D5C6B",
"] 	c #C59392",
"^ 	c #C39391",
"/ 	c #BE8C8D",
"( 	c #B57C85",
"_ 	c #AC6C7C",
": 	c #AE7379",
"< 	c #AE6F7A",
"[ 	c #A96C7B",
"} 	c #8D6170",
"| 	c #6E5663",
"1 	c #675D68",
"2 	c #6C616F",
"3 	c #685767",
"4 	c #6B5B66",
"5 	c #6A5D67",
"6 	c #665A66",
"7 	c #685863",
"8 	c #795D69",
"9 	c #946875",
"0 	c #AA6D7C",
"a 	c #B26B7B",
"b 	c #AD717B",
"c 	c #AA7177",
"d 	c #AB8A86",
"e 	c #E1B09E",
"f 	c #D49990",
"g 	c #956B73",
"h 	c #8D6B73",
"i 	c #DFB39F",
"j 	c #E0B5A1",
"k 	c #DFB5A1",
"l 	c #DFC5B1",
"m 	c #DFCAB6",
"n 	c #DFD0BC",
"o 	c #DBA195",
"p 	c #A37C7E",
"q 	c #7C626E",
"r 	c #C28D8B",
"s 	c #DCAB9B",
"t 	c #DFC1AD",
"u 	c #DFCFBB",
"v 	c #B68382",
"w 	c #AA7178",
"x 	c #AD7078",
"y 	c #AE6E7C",
"z 	c #B07182",
"A 	c #9D6A7B",
"B 	c #7B5B6A",
"C 	c #6C5864",
"D 	c #6F5A69",
"E 	c #715667",
"F 	c #685960",
"G 	c #695A61",
"H 	c #695860",
"I 	c #715A64",
"J 	c #85646F",
"K 	c #9F6F7B",
"L 	c #AE7482",
"M 	c #655363",
"N 	c #8D6471",
"O 	c #CCA094",
"P 	c #E4B9A4",
"Q 	c #FDCCAF",
"R 	c #F7C1A8",
"S 	c #9B7A7D",
"T 	c #FDCAAF",
"U 	c #FDCDB0",
"V 	c #FDD5B8",
"W 	c #FFD2B5",
"X 	c #FED2B6",
"Y 	c #FFDABD",
"Z 	c #BC938D",
"` 	c #836570",
" .	c #FFCEB1",
"..	c #FBCAAE",
"+.	c #FED6B9",
"@.	c #F6BBA5",
"#.	c #FBC3AA",
"$.	c #C89893",
"%.	c #A76D79",
"&.	c #AA727F",
"*.	c #A0707C",
"=.	c #85616D",
"-.	c #735763",
";.	c #755763",
">.	c #785664",
",.	c #A8707D",
"'.	c #AA707E",
").	c #A76D7C",
"!.	c #A46A79",
"~.	c #A66978",
"{.	c #AB6D7A",
"].	c #AC7D82",
"^.	c #B79A94",
"/.	c #CEB8AA",
"(.	c #F7D0B9",
"_.	c #FBD0B3",
":.	c #FCCCAF",
"<.	c #F7C6B1",
"[.	c #BE998F",
"}.	c #866972",
"|.	c #F1B09E",
"1.	c #B06E7A",
"2.	c #B0727F",
"3.	c #A56F7C",
"4.	c #9F6D78",
"5.	c #A16D7A",
"6.	c #A36D7B",
"7.	c #B06A75",
"8.	c #B06C77",
"9.	c #B16D7A",
"0.	c #AF6D79",
"a.	c #AD6E79",
"b.	c #ECBEAC",
"c.	c #FEE2C5",
"d.	c #FBDFC2",
"e.	c #94787A",
"f.	c #A67D81",
"g.	c #FECDB1",
"h.	c #F8BFA8",
"i.	c #BC8E8B",
"j.	c #E1AD9C",
"k.	c #A98284",
"l.	c #AC6F77",
"m.	c #AD7179",
"n.	c #AC737A",
"o.	c #AD747D",
"p.	c #AB727B",
"q.	c #AC707A",
"r.	c #AB6F79",
"s.	c #E99D94",
"t.	c #917278",
"u.	c #F5B5A3",
"v.	c #F3AC9D",
"w.	c #F1A79A",
"x.	c #B37D7F",
"y.	c #D9938D",
"z.	c #FBBDA6",
"A.	c #EDA599",
"B.	c #AD6E77",
"C.	c #AB6D78",
"D.	c #AD7382",
"E.	c #AB7180",
"F.	c #AA707F",
"G.	c #CD968E",
"H.	c #EA9690",
"I.	c #EA8F8D",
"J.	c #E48C8B",
"K.	c #CC7F82",
"L.	c #CD8183",
"M.	c #D68586",
"N.	c #9E6A78",
"O.	c #C37B7F",
"P.	c #DD8486",
"Q.	c #E4918D",
"R.	c #EBAB9C",
"S.	c #B26D7F",
"T.	c #B26F81",
"U.	c #B17283",
"V.	c #7E5C6A",
"W.	c #7D5D6A",
"X.	c #7C5E68",
"Y.	c #C9727D",
"Z.	c #8B636F",
"`.	c #7C5E6B",
" +	c #7B5D67",
".+	c #765C67",
"++	c #76606C",
"@+	c #9E6B7A",
"#+	c #AE717B",
"$+	c #B46C77",
"%+	c #A66D79",
"&+	c #A16C77",
"*+	c #646C7C",
"=+	c #676877",
"-+	c #84616E",
";+	c #AA6E7A",
">+	c #936672",
",+	c #9C6978",
"'+	c #AE6F77",
")+	c #DD8788",
"!+	c #9A6A74",
"~+	c #B47D82",
"{+	c #5F7384",
"]+	c #996773",
"^+	c #B1727C",
"/+	c #D7A195",
"(+	c #825E6D",
"_+	c #E9B3A0",
":+	c #BE797E",
"<+	c #885F6D",
"[+	c #655F6E",
"}+	c #C49590",
"|+	c #B97E82",
"1+	c #647B8B",
"2+	c #6D6C7A",
"3+	c #907077",
"4+	c #BA8285",
"5+	c #C2928F",
"6+	c #71818F",
"7+	c #B98A86",
"8+	c #BD777D",
"9+	c #AA7C7E",
"0+	c #D3938D",
"a+	c #B78788",
"b+	c #B38988",
"c+	c #6F606E",
"d+	c #6D828F",
"e+	c #B58986",
"f+	c #B28485",
"g+	c #A4737A",
"h+	c #7F6770",
"i+	c #726471",
"j+	c #627484",
"k+	c #EEC1A8",
"l+	c #E19C92",
"m+	c #707A89",
"n+	c #686877",
"o+	c #656675",
"p+	c #BEA59B",
"q+	c #6B6473",
"r+	c #6D8795",
"s+	c #7D98A3",
"t+	c #77939F",
"u+	c #6C7C8B",
"v+	c #7A929E",
"w+	c #FFDFC1",
"x+	c #BDACA3",
"y+	c #FEE8CA",
"z+	c #747581",
"A+	c #71717F",
"B+	c #736A77",
"C+	c #7C8C96",
"D+	c #6F7280",
"E+	c #BEA096",
"F+	c #849AA3",
"G+	c #777884",
"H+	c #82959E",
"I+	c #BE9C92",
"J+	c #728391",
"K+	c #7A8793",
"L+	c #A68684",
"M+	c #9D737A",
"N+	c #8F7077",
"O+	c #BA8688",
"P+	c #FEE5C8",
"Q+	c #797B86",
"R+	c #7794A0",
"S+	c #7B96A1",
"T+	c #6F7987",
"U+	c #736B78",
"V+	c #EDBEA7",
"W+	c #728C99",
"X+	c #7A6A77",
"Y+	c #F1A297",
"  . + @ # $ % & * = - ; > , , ' ' , , , , , , , ) ) , , ) ! ~ ! ! , ) ) ! ) ) ! , , , { , , , ~ { , , ] ^ / ( _ : < [ } | 1 2 3 ",
"4 5 6 7 8 9 0 a b c ' ' d e f g h f i j i k l l k m n m i o p q r s e i e t m e l u n n l i f h h f e d ' ' v w x y z A B C D E ",
"F G H I J K L M M N r O P Q R S S R T U Q U V W U X Y X Q T Z ` e  . ... .W V  .W Y +.+.W T @.S S #.Q P $.r h M ' %.&.*.=.-.;.>.",
",.'.).!.~.{.q ].^./.(._.U :.:.S S ..U <.........:.......:.Q [.}.|.W :.:.......Q ..#.T T ....:.S S :.Q Q U (./.^.].q 1.2.3.4.5.6.",
"7.8.9.0.a.h d b.Y c.d._.:.Q @.e.f.b.#.U g.<.(.h.:.:.T Q T #.i.` j.T U U ..W  . .U T U U U ..@.S e.@.T Q _.Y c.Y b.k.h l.m.n.o.b ",
"p.q.r.r.h Z R c.X ....R @.|.s.t.g s.u.u.u.u.u.v.@.u.u.@.u.w.x.q y.|.@.|.|.|.R |.u.z.u.u.@.u.s.g g A.|.@.R :...X d...i.h B.a.a.C.",
"D.E.F., G.U c.U ....R w.H.I.J.N N K.K.K.K.K.K.K.K.K.K.K.L.M.N.q O.K.K.K.K.L.K.K.K.K.K.K.K.K.K.N N P.J.Q.R.R ....U c.U G.q S.T.U.",
"V.W.X.` s Q <.....@.A.J.J.Y.Y.Z.~ , , `.`.`.`.! , , `., , ! ' , , , ! ! `.! ! q , , `., , , , ~ Z.Y.M.P.Q.A.@.....U _.s q  +.+++",
"@+M h o R ......u.A.J.J.#+, `.! `.N f.N.$+N.N.%+%+%+%+&+N `.~ { *+=+~ ~ -+N.%+;+;+;+%+%+;+&+>+`.~ `.`.#+J.J.s.u.....U h.f t.M ,+",
"'+M e.@.........A.J.)+!+, ' ' -+>+].$+].].$+$+~+$+].$+].%+`.' { {+=+~ , ]+#+#+;+#+;+#+^+#+#+;+>+-+~ ' ) ]+M.J.A.........R t.M '+",
"~ p /+..:...#.u.H.O.g , ~ ' ' , `.`.`.q (+(+(+(+`.(+`.(+(+, ~ { *+=+~ ~ `.q -+-+`.-+(+-+(+`.-+`.! ~ ~ ' , >+L.s._+#.......o p ! ",
"~ Z #.....:.h.s.J.:+' ' `.-+Z.>+>+N >+>+<+<+<+>+N <+>+N `., ! [+{+=+~ ~ ' ' ' ' ' ' ' M ' ' ' ' ' ' ' ~ ' ~ :+I.s.h.U ..#.#.Z ' ",
"~ }+U :.T U @.Q.K.g ! `.N &+#+^+~+|+|+|+|+|+|+|+|+|+|+].N.`.~ { 1+2+~ ! -+Z.N t.t.t.t.t.t.e.t.t.3+>+Z.-+, ! !+O.Q.R Q :.:.U }+~ ",
"~ Z T Q T T @.Q.>+' ! >+%+#+^+4+5+}+$.}+$.$.$.}+$.$.r |+;+(+' ) 6+2+' , &+x.i.G.$.$.$.$.$.}+$.}+5+7+8+%+>+! ' ]+Q.@...U Q T [.~ ",
"! 9+o e k s 0+L.>+' , g &+&+&+].a+b+b+b+b+b+b+b+b+b+a+~+N.`.' c+d+2+~ , >+9+e+e+b+b+b+k.b+b+b+d e+f+g+&+]+, ~ N L.0+s e i o p ' ",
"~ ) q h+h+h+q `.! ~ ! ' ! ! ! q ) `.) q ) i+) `.) `.`.) `., ! { j+=+! , `.) q , q , q q q , q q q , ! ~ ~ ~ ! , `.q q h+h+q `.! ",
"~ x.R.k+k+e l+M.>+' ~ ~ ' `.&+f+Z i.Z Z i.Z i.i.i.i.i.Z i.].<+c+m+2+`.%+a+i.Z i.Z Z Z Z Z Z Z Z f+N.`.' ~ ~ ~ g M.l+e k+k+R.x.~ ",
"~ Z ..:.:...@.I.]+c+{+d+1+*+q k.$.5+5+$.5+}+}+}+}+}+Z }+}+5+f.c+1+n+` i.}+}+}+}+5+5+5+}+5+5+5+$.k.q *+1+d+*+o+]+H.|...:.....Z ~ ",
"~ p+c.:...:.#.Q.g q+r+s+t+u+c+p $.}+5+5+5+}+5+}+}+}+}+}+5+}+f.[+u+n+}.5+}+}+}+5+}+}+5+5+5+5+5+}+k.{ u+v+s+r+q+]+Q.R ..:.Q w+p+~ ",
"~ x+y+Q ..:.#.Q.]+c+2+z+A+B+Z.f+}+5+}+}+}+}+[.}+}+}+}+}+}+}+f.{ u+2+}.Z }+}+}+5+}+5+$.5+5+$.}+}+k.N B+A+A+2+c+!+Q.#. ...Q y+x+~ ",
"~ p+Y ......@.Q.!+, Z.g t.S |+r }+}+$.}+}+}+}+}+}+}+}+}+}+r N.) C+D+` 4+5+}+$.}+}+}+$.}+}+}+$.}+r 4+S t.g ` ! ]+Q.@.:...Q Y p+~ ",
"' E+W ......R Q.]+, N.].k.f+k.k.d k.k.k.k.k.k.k.k.].k.k.k.N.-+i+F+G+, ]+p k.k.k.k.k.k.k.k.k.k.k.k.k.k.k.].N.`.]+Q.R :.:.:.W E+~ ",
"' O c.....:.R Q.!+' ~ ~ ~ ~ ~ ~ ~ ~ ' ! ~ ' ~ ' ~ ~ ' ~ ' ~ ~ i+H+G+~ `.q q q q q q q q q q q h+q q q q q `.' ]+Q.R :.:.Q c.p+~ ",
"{ E+Q ......#.Q.!+~ ! , , , , , , , , , , , , , , , , , , , ~ i+H+z+(+#+i.}+5+5+5+5+5+5+5+5+5+5+5+5+}+}+i.#+q ]+Q.R :.:.:.U I+~ ",
"~ [.U :.:.:.R Q.g ! N &+;+;+%+;+%+;+;+%+;+;+%+;+;+;+;+;+;+]+`.) J+2+` i.}+}+}+}+5+}+}+}+}+5+}+5+}+}+}+5+5+Z }.>+Q.R Q :.:.U [.~ ",
"~ [.Q :.:.Q R Q.]+q %+^+#+#+;+#+;+#+#+;+#+#+;+#+;+;+;+#+#+;+N i+H+z+` }+}+}+}+}+}+5+5+}+}+}+}+5+5+5+}+5+5+5+}.]+Q.R U Q ....}+~ ",
"' 7+#.T U #.v.I.]+`.!+;+#+#+#+;+^+^+#+#+^+;+#+#+#+^+^+^+;+%+` , K+A+-+~+}+}+}+}+5+$.}+}+}+5+$.}+$.}+}+$.5+x.-+g J.|.#.U  .R 7+~ ",
"' h p L+L+p g+M+`.! `.<+<+` <+` <+-+<+<+<+<+` -+<+-+-+-+<+(+, q+6+2+! -+h t.t.h 3+3+t.3+t.t.3+3+t.N+t.N+g Z.! -+!+g+p L+L+p h ~ ",
"! h p L+L+p M+!+-+! -+g t.t.t.t.t.t.t.t.t.t.t.3+t.t.t.t.t.N `.{ u+n+, ` h 3+3+3+t.t.N+t.t.t.N+t.N+t.t.t.3+Z., q !+M+p L+L+p h ! ",
"' 7+z.:._.#.v.Q.!+-+~+5+$.}+}+}+}+}+}+}+}+}+}+}+}+}+}+}+}+O+N.[+{+o+<+~+}+$.}+}+$.}+5+$.5+}+}+}+}+}+}+}+5+x.-+g Q.|.#.U ..z.7+! ",
"! [._.....:.R Q.>+}.5+}+}+}+}+}+}+}+}+}+}+}+}+}+}+}+}+5+r a+e.{ {+[+` b+i.r }+}+}+5+}+}+}+5+}+}+5+}+5+}+5+5+h >+Q.#.:.:.Q W [.~ ",
"' /.P+:...:.z.Q.]+}.Z }+}+Z }+}+}+}+}+Z }+}+}+Z }+}+}+O+g+` ) , { ~ , i+N.~+}+}+}+}+5+5+}+}+5+}+}+}+}+5+5+Z }.]+Q.R :.:.Q c.x+~ ",
"' x+P+......h.Q.]+(+].i.}+5+5+5+5+5+Z 5+5+5+5+5+}+Z i.#+`.H+F+H+i+Q+F+F+B+>+4+r }+Z }+i.}+5+5+5+i.5+5+i.i.^+`.]+Q.h.:...U P+x+' ",
"~ I+W ....U h.Q.N.~ `.`.h+(+q q q q h+q h+q h+`.q -+`., ~ m+s+H+i+z+R+F+B+! q q q q q h+`.h+h+h+h+h+`.h+q , ! !+Q.h......._.I+~ ",
"~ p+d.......h.Q.>+' ~ ' ' ' ~ ' ~ ' ' ' ' ' ~ ' ' ' ~ ~ ~ z+S+H+i+D+R+F+B+`.N.p k.k.k.k.f.k.k.k.k.k.].k.f.]+, !+Q.h.:.....c.p+~ ",
"~ p+Y ....:.h.Q.]+' { `.N N >+N >+>+>+>+>+>+>+N >+>+` `.{ T+S+H+i+D+v+F+B+g r 5+}+}+}+}+}+}+}+}+}+$.}+}+}+O+` ]+Q.h.:.....d.O ~ ",
"~ [.Q T ....h.Q.]+' ! ]+].;+$+$+].].$+].~+;+$+$+#+#+;+>+, T+S+v+i+D+t+F+B+e.}+5+}+}+}+}+}+}+}+}+}+}+}+}+}+}+}.!+Q.@.:.....Q [.' ",
"! I+U ....T h.Q.]+' , ]+;+;+].;+].$+%+$+#+;+].;+#+#+;+>+, T+S+F+i+U+t+F+B+N r }+}+}+}+}+}+}+}+}+}+}+}+}+}+a+` >+Q.R :.....:.I+~ ",
"' [.T T U T @.Q.]+' ~ (+]+%+&+&+N.N.N.N.&+&+&+&+&+&+]+-+{ m+S+H+i+D+t+F+U+<+g+f+b+b+b+b+b+b+b+b+b+b+b+b+f+&+`.]+Q.@...:.T T [.~ ",
"' x.R.V+b._+l+)+>+, , ) , , h+, `.`.`.! , h+, `., `., , ~ T+S+H+i+D+t+F+U+' ~ ! , ! ! { ~ ~ , ! { , ~ ~ , { ' g M.l+|.V+V+R.f+' ",
", q q h+h+h+q q ! (+g+O+i.i.Z i.|+i.i.i.i.i.i.i.a+i.~+N.{ T+S+H+i+D+v+F+U+~ ~ ~ ! ! ! ! ! ! ! ~ ! ! ! ! ~ ~ ~ , q q q h+h+q q ' ",
"' p o e e s 0+L.N }.i.}+}+}+}+}+}+$.}+5+}+}+}+}+}+}+}+].) T+S+H+i+z+v+F+U+, >+&+&+&+&+&+&+%+&+&+&+&+&+>+-+~ ' >+L.0+s e i o 9+' ",
"' Z T Q ....@.J.]+}.}+}+}+}+}+}+}+}+5+}+}+}+}+}+}+}+$.b+, T+s+H+i+D+v+F+U+<+%+#+^+;+#+;+;+#+;+^+#+#+#+;+!+, ' !+Q.u.T Q Q T Z ~ ",
"! p+Y T ..:.#.Q.>+` ~+}+$.}+}+}+}+$.}+$.}+}+$.}+}+}+r g+, m+S+F+i+D+W+F+U+(+&+#+^+#+^+^+#+^+^+;+^+#+#+;+g , ' !+Q.#.Q ..Q Y p+~ ",
"' x+y+:...:.@.Q.!+, >+M+t.f.f.f.t.f.f.f.f.f.e.f.S S g ` { m+S+F+i+D+v+F+B+~ -+N >+N N >+N N N >+N >+N ` `.' ' !+Q.R ....Q y+x+{ ",
", p+d.:...T #.Q.]+~ `.}.}.` h+}.h+h+h+` X+` ` h+` }.}.`.{ D+t+F+i+2+v+F+B+, -+}.}.}.}.}.}.}.}.}.}.}.}.h h }.) ]+Q.@.:...:.Y O ' ",
"' O _.:...:.@.Q.!+`.%+].b+b+i.}+}+}+}+}+}+}+}+}+}+}+r #+`.*+u+C+n+=+1+C+X+g O+G.}+}+}+5+}+}+5+}+}+r b+b+b+b+` ]+Q.R :...:._.E+{ ",
"' x+c.....:.#.Q.]+{ { i+{ h+%+b+}+}+}+}+}+}+i.}+}+}+}+O+].-+~ q+j+=+! q &+4+5+5+}+}+}+}+}+}+}+}+O+&+h+) ) c+~ ]+Q.R :...:.c.x+{ ",
"' I+_.Q ....#.Q.]+c+d+v+v+d+q p $.}+}+}+}+}+}+}+}+Z }+}+5+|+g { {+o+(+~+r 5+}+5+}+5+5+}+}+}+5+}+f.) m+v+v+J+q+]+J.z.T ....U I+' ",
"~ [.Q :.....#.Q.]+o+d+W+r+*+c+p }+}+}+}+}+Z }+}+}+}+5+}+}+$.f.{ u+2+` i.}+5+}+5+}+}+}+5+5+5+}+$.f.{ j+r+W+1+q+]+Q.#.T ....Q I+! ",
"~ }+U Q ..U R Q.]+~ o+c+q+i+g e+}+}+$.}+}+}+}+}+}+}+}+}+5+|+N.c+J+2+}.5+}+}+$.$.}+}+}+$.$.}+}+$.O+]+i+q+q+q+{ ]+Q.#.T T T Q [.' ",
"~ i.#.Q U #.|.Q.!+' ! ' ~ , -+h t.t.t.t.3+t.t.t.t.t.t.3+N+N `.c+J+2+`.N+t.t.N+N+3+t.3+3+3+t.N+t.h -+! ' ' ' ' !+Q.|.T U Q #.Z ! ",
"~ t.7+Z Z e+x.9+-+! (+` -+` Z.<+<+` <+<+<+<+(+(+` <+<+(+`.~ ' c+u+n+, <+h t.t.N+3+3+3+3+t.t.N+t.3+t.t.t.3+Z., -+9+].b+[.Z e+g ' ",
"~ -+t.e.e.e.N h `.`.!+;+^+^+^+#+#+#+#+#+#+#+#+~+~+#+~+;+]+`.' { 1+=+(+~+5+}+}+}+}+$.$.}+}+}+}+}+}+}+}+}+5+~+` `.N g t.e.e.t.-+, ",
"~ 7+@...Q R w.J.]+`.;+;+#+;+;+#+;+#+#+;+#+#+;+#+;+$+;+;+%+(+' c+m+n+` }+}+}+}+5+5+}+5+}+}+5+Z }+}+}+}+}+}+5+}.>+J.w.@.Q T z.e+~ ",
"~ [.U ..:.:.R Q.]+, >+&+;+%+;+;+%+;+;+%+;+;+;+%+%+%+;+&+>+, ~ { 1+=+` i.5+}+}+}+}+}+5+}+}+5+}+}+}+}+}+}+}+i.}.]+Q.R T ..T _.I+~ ",
"' x+c.U #.U h.Q.]+~ ~ ! , , , , , , , , , , , , , , , , ! ! ~ ) u+2+<+#+i.}+5+5+i.}+}+Z }+5+i.}+}+r 5+5+Z #+q ]+Q.R :.....c.p+~ ",
"~ x+P+U U U h.Q.!+' ~ ~ ~ ~ ~ ~ ~ { ~ ~ ~ ~ ~ ~ ~ ~ ~ ~ ~ ~ ~ [+1+n+! , `.q q h+h+h+h+`.`.h+h+h+h+h+q q q `.' ]+Q.R :...:.c.x+c+",
"~ E++...U U z.H.!+`.!+f.d k.].k.k.k.k.k.].k.k.k.k.k.k.k.].N.-+{ {+=+~ ~ ' ' ' ' ' ' ' ' ' ' ' ' ' ' ~ ~ ~ ~ ' !+Q.R ..:.Q W E+~ ",
"' i.@.U U R v.I.>+` O+}+}+}+}+}+}+}+$.}+}+}+}+}+}+}+}+$.}+i.M+{ {+=+' ~ ` >+>+>+>+h >+>+>+>+>+>+>+N >+>+` ! ' !+J.|.#. .:.R i.~ ",
"~ x.Y+|.v.A.H.K.>+` 4+}+}+$.}+$.}+}+}+$.}+}+}+}+}+$.}+$.}+5+M+{ {+=+~ ! ]+;+^+^+#+^+^+#+^+#+^+#+^+#+^+;+!+, ' ]+P.H.w.|.|.A.x.~ ",
"~ N.O.O.8+K.|+$+(+`.N.f.k.k.k.k.k.].k.k.k.k.k.].k.k.k.k.k.&+-+{ *+q+~ , (+>+N.]+N.!+!+N.!+N.!+N.]+N.N.>+`., ' -+$+8+:+:+:+O.!+! ",
", ~ ' ' ~ ~ ~ ~ ! ~ ~ ~ ~ ~ ~ ~ ~ ~ ~ ~ { ~ ~ ~ ~ ~ ~ ~ ~ ~ ~ ~ ~ ~ ~ ~ ~ ~ ~ ~ ~ ~ ~ ~ ~ ~ ~ ~ ~ ~ ' ~ ' ! ' ! ' ! ~ ~ ~ ~ ~ ~ ",
"' ' , ' ~ ~ ~ ~ ~ ~ ~ ~ ~ ~ ~ ~ ~ ~ ~ ~ ! { ! ~ ~ ~ { ~ ~ ~ ~ ~ ~ ~ ~ ~ ~ ~ ~ ~ ~ ~ ~ ~ ~ ~ ~ ~ ~ ~ ~ ~ , ' , ' ! ' ~ , ' ~ , ' "};
