/* XPM */
static char *_ad3058886154831f251436105a06aeaPp50y9Ahwg0lKW6j[] = {
/* columns rows colors chars-per-pixel */
"64 64 256 2 ",
"   c #48323F",
".  c #72413D",
"X  c #3B354C",
"o  c #39374A",
"O  c #393953",
"+  c #342E4C",
"@  c #44364C",
"#  c #54394B",
"$  c #463955",
"%  c #573A55",
"&  c #432F52",
"*  c #763A4D",
"=  c #683855",
"-  c #753557",
";  c #6A354B",
":  c #36475B",
">  c #385468",
",  c #2F6C78",
"<  c #1F5263",
"1  c #48475A",
"2  c #584958",
"3  c #5A5459",
"4  c #4D4B4F",
"5  c #674859",
"6  c #68585B",
"7  c #76585D",
"8  c #65444F",
"9  c #72635A",
"0  c #474D67",
"q  c #565667",
"w  c #4C5A71",
"e  c #50556A",
"r  c #6B5664",
"t  c #6B5B64",
"y  c #6D5B6A",
"u  c #665867",
"i  c #745664",
"p  c #735B65",
"a  c #7B5C65",
"s  c #745C6A",
"d  c #7C5D6B",
"f  c #785668",
"g  c #745C72",
"h  c #586678",
"j  c #5E717F",
"k  c #6C636A",
"l  c #75626C",
"z  c #7C646C",
"x  c #7E6A6C",
"c  c #796467",
"v  c #676A77",
"b  c #7D6573",
"n  c #7C6A72",
"m  c #776777",
"M  c #7B7278",
"N  c #717376",
"B  c #94413D",
"V  c #D04E3E",
"C  c #8A3849",
"Z  c #883B55",
"A  c #973851",
"S  c #AC3B54",
"D  c #A33266",
"F  c #CF3C4E",
"G  c #87464B",
"H  c #975757",
"J  c #924B55",
"K  c #AC4F52",
"L  c #90705B",
"P  c #B36B59",
"I  c #865A66",
"U  c #875E70",
"Y  c #915966",
"T  c #82646C",
"R  c #8A636D",
"E  c #876869",
"W  c #95696B",
"Q  c #8A726A",
"!  c #846572",
"~  c #8B6572",
"^  c #836B73",
"/  c #8D6B73",
"(  c #846979",
")  c #9B6676",
"_  c #946D74",
"`  c #9B6A76",
"'  c #936E7A",
"]  c #9D6A79",
"[  c #966674",
"{  c #8C7276",
"}  c #8A737A",
"|  c #937475",
" . c #9A7375",
".. c #95747A",
"X. c #9A737B",
"o. c #9B7B7C",
"O. c #947A7B",
"+. c #987568",
"@. c #AC6E76",
"#. c #A46C7A",
"$. c #AC6E7B",
"%. c #A56B78",
"&. c #B06D76",
"*. c #B16D7C",
"=. c #AB7277",
"-. c #A3737C",
";. c #AD717B",
":. c #A47B7D",
">. c #AB7C7D",
",. c #A37775",
"<. c #B1727C",
"1. c #B37B7E",
"2. c #B77777",
"3. c #A67169",
"4. c #C7484B",
"5. c #D74A48",
"6. c #D7564D",
"7. c #C44554",
"8. c #DB4554",
"9. c #DA5956",
"0. c #E6514A",
"q. c #D26955",
"w. c #E76956",
"e. c #EC785C",
"r. c #F5765B",
"t. c #EE6E53",
"y. c #CF756E",
"u. c #EB6A61",
"i. c #EA7965",
"p. c #F57A65",
"a. c #F3736D",
"s. c #C04861",
"d. c #9D8971",
"f. c #A9867B",
"g. c #B5877E",
"h. c #A78873",
"j. c #B19F71",
"k. c #F3875C",
"l. c #E98D58",
"z. c #D08F6B",
"x. c #F38568",
"c. c #EC906E",
"v. c #D9AC75",
"b. c #DBB375",
"n. c #E5B77B",
"m. c #F0AD71",
"M. c #C58059",
"N. c #F7C377",
"B. c #FCC46F",
"V. c #5C6B84",
"C. c #5E748B",
"Z. c #657684",
"A. c #6C7488",
"S. c #9B7982",
"D. c #897A83",
"F. c #AE6E80",
"G. c #AD7381",
"H. c #A47D82",
"J. c #AA7E82",
"K. c #A77883",
"L. c #B17382",
"P. c #B57C84",
"I. c #B36F81",
"U. c #6A849B",
"Y. c #748A99",
"T. c #779498",
"R. c #76828B",
"E. c #788EA2",
"W. c #7B92A2",
"Q. c #7999A5",
"!. c #6C94A5",
"~. c #5B8089",
"^. c #9C8385",
"/. c #898F98",
"(. c #A58283",
"). c #AB8385",
"_. c #AD8489",
"`. c #AA8988",
"'. c #B48384",
"]. c #BA8385",
"[. c #BB8A86",
"{. c #B48589",
"}. c #BB858B",
"|. c #B48A8B",
" X c #BD8C8C",
".X c #B38985",
"XX c #BD938C",
"oX c #BD998C",
"OX c #BA9286",
"+X c #BB8D91",
"@X c #B58992",
"#X c #A49192",
"$X c #BD9492",
"%X c #BD9A93",
"&X c #B89597",
"*X c #A99987",
"=X c #8499A5",
"-X c #88A2AC",
";X c #8BA6B3",
":X c #8EAAB5",
">X c #8BAAB6",
",X c #94ABB7",
"<X c #97B3BA",
"1X c #94ABAE",
"2X c #AEB2B8",
"3X c #BD9D9C",
"4X c #C28D8C",
"5X c #C48788",
"6X c #C4948D",
"7X c #C9948E",
"8X c #C4998E",
"9X c #C79686",
"0X c #C38E92",
"qX c #C88E95",
"wX c #C49593",
"eX c #C99593",
"rX c #C49993",
"tX c #CA9B94",
"yX c #C6959A",
"uX c #C99499",
"iX c #C49B9A",
"pX c #CA9C9A",
"aX c #D39D9A",
"sX c #D5928A",
"dX c #ED9989",
"fX c #CBA29C",
"gX c #C8A598",
"hX c #D3A49A",
"jX c #DDB49C",
"kX c #D5A887",
"lX c #EEB290",
"zX c #CDACA2",
"xX c #CCA6A4",
"cX c #D5AAA3",
"vX c #CAB5A7",
"bX c #D6B6AB",
"nX c #D4BFB1",
"mX c #EDB9A8",
"MX c #F7C484",
"NX c #ECD090",
"BX c #FAF09E",
"VX c #DCC5B7",
"CX c #CEC1AC",
"ZX c #E9CAB7",
"AX c #E7D0AA",
"SX c #FCEAA6",
"DX c #DCCC94",
"FX c #9BB8C1",
"GX c #A7BBC1",
"HX c #B4BAC2",
"JX c #B7CCD0",
"KX c #C7D3D7",
"LX c #CCD1D2",
"PX c #ECCEC1",
"IX c #D3DDE2",
"UX c #D5E0E4",
/* pixels */
"i p y u p R #.<.G.$.;. XyXwX4XeX6XeX4XwXtX6XeX6XeXwXwX6XwXeX}.Y p u t r y u d ) ;.-.$.<.'.4XwXwXwXwXeXwX6X XP.@.;.@.$.~ r u k y ",
"y y u r s [ #.*.;.;.'.6XrX8X6X6X6X8X6XrX6XrXXX6X XwXwXOX6XXX@Xo.t y u p r s U #.@.@.*.<.4XwXeX8XXX6X8X6X6X6X'.;.;.$.G.] d r y i ",
"6 t 6 p ! #.G.<.*.@.].eX6X6X6X6XwXwXwX X>.wX=.>.P.L.;.qXuX .z y r t p i p f ~ K.;.;.;.;.4X6X6X6X6XwX6X6X7X6X].;.=.$.G.#.U p i i ",
"-.#.#.#.#.$.@.$.$.$.P.uXwXwXiXwXwX6XeXeX4XhXwXhXfXxXrX X8X X|.R d [ #.%.#.%.@.*.*.*.*.@.0XwXwXwXwXeXwX0XwXwX].;.;.@.$.G.#.] ] F.",
"&.&.*.@.@.;.;.=.;.=.}.wX6X$XwXwXwXwXXXwX$XyXrXrX%X%XoXwX8X6XrX..R ;.L.*.$.*.*.&.;.$.;.;.wX6XwXwXwXwXwXwX$XrX}.;.;.@.@.@.;.=.G.;.",
";.$.$.;.;.;.=.$.<.&.P.8X6X6X6X6X7X6X6XwXeXwXwXwXeXeXeX0X0XrX&X{ ~ -.<.%.#.@.;.=.=.;.;.=.[.6XXXtX6XwXeXeXwX6X1.&.;.<.;.@.@.@.@.$.",
"G.G.G.$.G.G.F.*.;.;.P. XwXwXuXuX8X8X8X6XtX6X6X6XrXrXyXwXeX6X}.` U #.I.*.G.I.$.$.;.<.L.<.}.4XeXuXwXyXwXwXwX6XP.L.$.$.F.I.I.*.L.L.",
"I d d s a a d d b a a z x z z T b b b z n ! n z T T b z ^ z d p y d a a z a d b s d d a l z z z x x z z z c z f z d c a d d p l ",
"] ) ] ] ] #.] ] ) #.>.`.).:.R d  .).)._.&X`.&X&X%X&X&X|.).).).).K.#.) ] ) ) #.) #.) ` -.(.|.J.` s R :.'.`.).J.-.] ] ] ] ) ] ] ] ",
"=.=.&.@.@.@.@.;.=.5XeXrX6X6X-.! 4XeXeXwXtXwXpXrXgXtXgXrX6X8XeXwXP.<.@.*.@.=.;.@.@.<.1.4XeX4XwX0XT :.XXeXwXwX6X].<.@.<.@.@.@.@.@.",
"[.[. X[.[. X[.'.XX6X0XXX%XpX_.z eX7XwX6XeX6XwXwX6XwXwX4X6X6X6X6X6X[.[. X[.[.[.'.|.[. X6XiXwX%X%XE `.wX6X4X6XwX6X X[. X[.[. X[.[.",
"wXwXwXwXyXwX[.'.|. X@X`._ [ ! n yX+XwXwXrXrXwXwXwXwXyXwXrXwXyXrXwX0XwXiXuXwXwXwXJ.'.0X'.[.$X .W y (.yXeX6XrX%XwXwXyXwXwXwXeXwXwX",
"6X6XwX6XwXpXwX|.fX6X|._.o.-./ n wX6X6XwX6XwXXXwXwX6X6XwX6X6X6X6XeXwXwXwXwXwXtXpX|.wXhX4X4XuXJ. .p (.yXeXwXwXXX6XwXwXwXwXwXwXwXwX",
"6X6XwXXX6XtXtXtXhXaXeXrXrXeX:.E 6XeX8X8X8X8X6X6X8X8X6X6X6X6X8X8X6X6X8X6X6X6XrXtXwXhXgX9X6XrXwX XT ).eXeX6X6XeXeXXX6X8X6X6X6X8XXX",
"tXwXtX6XwXwXwXwXXXwXwXrXwX0X-.U [.wXwXwXwXwXrX8XrX$X6X6XwX6XwXrX0XeXwXwXwXrXeXwXwXeX6XrXtXeXeX4XT X.4XeXrXrXwXwXwXeXrXeXeXwXwXwX",
"..| ..| ....| ..| X.] | ..' d y R S.| X.| | ..| | ..............O...| | | | ..| ..{ ..{ { | ' R p c _  .{ O.....O.| | ..| O.| ..",
"| | ..o.O.d.^.#X#X#X^.S.O.^.S.O.........| X.' X.| S.] ....X.~ l p / X.| | H...^.^.#X#X#XS.O.^.(.S...............X.S.X.' X.O.....",
"wXrXrXpXiXxXxXxXbXbXcXgXfXfXfXwX6X8X8XrXeX8X8XwXrX8XwXwX8XeXXXW ..[.eXrXiXxXtXfXxXbXcXbXxXiXxXfXrXwXrXwX8X6XwXwX6XXX8XrXXX6X8X8X",
"eXwX6XeXwX4X6XwXXX6X6X4X6X6X7X9XwXrXeX8X6X4XwXwXXX8XwXrX6X6XpX{ _ 6X7X7X8XwX4X6XwXwX6X8X6X[.8X6X6X7X8X6X6X6X8X7XtX6X6XeX6XeXeXqX",
"wXwXwXwXwXwXwXrX6X6XwXwXwXwXwXwX6X6X6XXXwXeX8XwX4X7XwX$XwXeXqX[ ..pXwXwXrXwXwXrX6XwX6X6X%X6XwX$X6XwXwX6XwXwX6XwXwXXX6X6XwXXXrXwX",
"wXXX$XwXwXwXwXwXwXwXwXwXwXwX$XwX6XwXwXeXtXwX[.'.eX4XwX).:.K.S.z | wX6XXXwXwXwX6XwXeXrXrXwXwXwXwXwXwXwXwXyXwXwX+X}.0XrX|.$X:.o.(.",
"6X6X8X6XwX6X6X4X6X6XwX6X6X6XwXeXwXwX0XwX0X0XP.P.$X'.&X(.Q E { y  .wX7X6X8XeX6X6XeX6X4XwX6X8X6X6XwXwX6X8XwXwX6X4XL.}.0X'.+X../ / ",
"wX6XwX6XwX6X7XwXeXwXwXwXwXwXtXeX8X6X8X8X7XeX8X6XhXtXcXzXrXtX X| _ +X6XwXwXwXwXrXwX6XwXwXwXeXwXeXwXeXeXwXtXwXwX8X8XpXhXtXcXfXrX%X",
"_.).{.)._.)._.).).).`.).).)._.).).).).)._.)._.).(.).K.`.).'.K.I a H.{.'.)._.'._.).`.'.).).).).).).).).).).).).).`.).).).f.).)._.",
"U ! ! T x T b T T ! x z T T r y T ! ! z { I / n ^ A.D.' n ^ ^ n T ! ! T z T ^ b a ~ ! c ! ( c s u s T E z n x ^ ( ^ ( } ^ ( ( } ",
"6XXXoXoX6XwXwXrX0XwXwXwXwX4X] d >.[.iX%XgXiXxXvXvXbXVXmXbXzXgX7X%X%XiXyXwX6XwXeXrX&X6XtXwX4X7X].z ] }.qXtXpXfXuXzXzXbXnXVXnXzXzX",
"4X4X4X4X4X0X4X5X4XwXwX8X6X8X:.E uXwXeX7X7X6XOX9X9XuXwX%XyX$X7XqX7X6XtX6X0X0X4X5X6X6X4X6X0XXX|.@Xa f.wXtXwX8X6X6X8XXXXX6X6X6X6XwX",
"$.$.$.G.F.$.G.-.1.{.$XrXXX%X(.^ yXwXXX4XwXuXtX9X9X0X6XXXqXuXtXeXuX0X6X X+X_.).>.iX@X.X%X$XE z s y (.%XXX$X$XrXwXuXeXwXyXyXyXwXyX",
"<.;.$.@.@.@.;.;.@.;.}.wX6XeX:.T wXXXXXfX_.( { } S.K.tXoX,.| Q +./ { { Q ` _ ).XXE  .fXxXtXhXtX}.a _.yXwXwXwX0XwX6X6X6XwXrX6X6X6X",
"#.#.$.*.<.*.@.=.*.;.'.6X6XtX)./ 9X6XXX'.W G H +.R ` H.d.3.L Q L L d.d.L 3.d.f.`.d.+.,.{.6X[.wXwXT ).wXeX7X8XeX7X8X6X6XXXXX6X8X8X",
"f a ~ ] G.F.$.$.;.;.'.wX8XXXo.T  XaXyXI K q.k.m.m.M.8 5 q.m.n.MXn.NXNXMXNXBXj.d.SXDX3.W gXiX&X$X/ H.XX6XXXXXXX6X$XwXyXrXrXyXwX$X",
"u t p ~ ] =.;.$.$.$.K.[.4X}.' d ,.4X@Xi P t.k.B.m.z.@ 3 v.B.MXm.d.Q 9 h.MXBXj.*XBXSXh.E OX[.4X2.d ' }.4XXXXX$X+XXX XXX X X X4XXX",
"p t p p l m l l m l s s b l s s k U g 2 P l.c.m.N.m.M.z.MXMXMXn.M.. G z.m.SXDXDXBXSXj.1 l s z s s s l l l l d f s d a s s s l s ",
"|.XXXXwXrXgXxXfXgXrX%XwX$XOX X[. X|.|.7 P k.l.m.B.m.m.m.N.B.N.N.m.z.z.m.B.BXSXN.BXBXd.Q iXrXXXOX+X+X+XXX X{.J.$.K.#.] R p r r u ",
"6X6X6X6X6X8X6XwX8X8X6XwXeX7XeXeXqX4XrXa B 6.i.v.v.z.z.m.b.v.b.b.n.v.b.b.b.DXDXn.AXkXL I 6X7XpX6X8X6X7X9X6X6Xg.@.@.*.-.' d t y l ",
"yXyXiXyXwXyXyXrXwX0XwXyXwXwXwXwXeX7X+Xt 4 8 8 3 k t 6 t t 6 k 9 7 9 6 6 x Q x 6 t c l S.0X X%XyX$XwX6XXXrXwX}.;.@.@.<.#.U f r u ",
"6X6X6X$XwX6XrXwXwXrXwXrXwXXX6X8XOXj.T j A.V.0 V.Z.C.T.-Xv R.1X1X1X,X/.A.KXKXJXT.j LXIXHXQ 8XrX6XwXeXeX4XwXwXP.*.<.*.*.L.$.#.#.-.",
"wX8X8XwXwX6X6X6XXX6X6X6X6XwXwXrXeXg.8 0 V.h O w V.j Z.Y.w j Y.T.T.Y.v u 2X2X1Xj w 3X2X/.6 OX4XeXwXwX8XwXwX0X].=.G.$.$.@.@.$.@.&.",
"wXwXwXwXwXwXwXwXuXwXwXyXwXwXqXeXrX).2 O = - C C C C C G W _ _ E Q Q | Q +.E +.R G C # X y  X0XeXXX6X8X8XrXwX'.;.-.=.;.;.;.;.;.@.",
"wXwX6XwXrXwXrX6XwXXX8XwXwX8XwX7X&X[.g $ C 7.5.8.6.6.6.q.sXgXgXjXmXcXjXjXbXhXaXz.9.8.C 2 l 0XwXoXwXwXwX6XwX0XP.@.<.@.*.*.<.@.G.*.",
"! ! x E x T E x E n z ! ! ! b A.~ R d 1 S 8.5.9.w.w.i.aXO.6 `.PXZXZXZXZXmXS.7 d.kXq.D q l ^ R b ( ! R T T b T I d b d d d d z b ",
"&X&X(.o.`.J._.J.).'.`.).). .E 7 S.o.).p C F 0.u.e.p.c.mXvXvXbXZXlXdXdXlXdXz.9XnXmXx.H c (.).>.H.s ~ :.J.`.(.H.X.) ) ) ] ] ) ) ) ",
"pXfXpXwXuXuXyXyX6X X$XiXeX+XJ.R |.rX6Xs - K V u.w.t.c.lXmXmXlXlXx.q.P K P e.dXmXdXx.J Q uXwXeX|.z :.$XwXrX$X X}.*.<.<.*.;.*.@.&.",
"6X4XwX XJ._.X.` :.H.J._.o.T i b 9X7XJ.u O * K 0.9.0.e.x.i.p.a.x.i.P H H K y.i.a.x.e.H E 5X$X:.[ c ).eX7XwXwX6X6X}.}.[.].].].].].",
"7XrXwX`.^ k t x m m u l l 3 q v  X).E 3 5 5 ; 4.8.9.e.i.e.r.r.x.p.c.c.c.c.m.k.r.r.w.Y z }.3Xo.+.p H.wX6X6XwX6X6XwXwXwXwXwXwXrXrX",
"8XrXo.#XLXGXKXIXUXUXGXJXKX<X=Xv u { vXvX[.) = S A K w.0.w.x.k.p.i.p.x.p.e.p.r.r.e.u.J 4 ~ &XrX9Xb ).wXwX6XrXwXwXwXwXwXwXwXwXwXwX",
"6XwX{ A.KXFXJXJXJXKXFXJXJX<X=XZ.+ ^ ZXAXcXz.5 - % J 6.8.u.p.t.u.w.t.p.p.i.u.t.w.u.9.Z ^.&X{ '.9X( _.wXwXXX6X6X6X8XwX8XwXwX6XwXwX",
"8XwXD.N FX<X,X<X;X-X,X<X>X>XE.h + x VXPXPXkXI 1 + A 4.4.9.w.w.9.5.9.w.w.t.9.4.7.0.5.C *XnXt @X}.T X.4XtX8XwXwXeXeX8XeX8X7X8XeX6X",
"X.Q i Z.JX>X<XFX>X;X,X<XFX>XE.h + x ZXPXvX9Xz.I 4 - D ; K 8.0.V 4.5.V 5.5.4.A Z 5.s.Z `.vXi d z i I ' S.{ ' S.| O.o...o.....| O.",
"' +.a v <X:X;XQ.>X;X>X=X-X-XE.h + M CX^.5 E y.2.i @ % # S 4.8.F Z A F 8.8.7.A - S ;   f.3X3 2 6 l / o./ | ' [ _ ' } ../ ..' ..[ ",
"iX%Xo.Z.<X,X;X-X>X:X,X-X;X;XW.h + 2 ^ q o 4 7 I 8 o X O ; * Z C $ = ; Z C = # # ; $ O r p 2 =XJXHX/ @XrXrXyXuXtXwXeXpX6X6XwXrXtX",
"0XoX' v FX<X>X>X:X;X;X:X>X;XE.h @ @ X e h h Z.R.R.Y.=X=X=X1X2X-X2X2XLX2X=X=XY.Y.Y.A.C.0 o 0 ,XJX2Xt +XwX6X6XwX4XXX8X4X8XOX8X6XXX",
"wX8X .Z.GX,X;X;X,X;X;X;X>X-XW.h O @ O h V.~.Q.!.T.=X1X-X:XJXJX,XLXLXIXJX1X1XQ.W.T.!.U.w X 0 Y.FX-X6  XwXXX6XwXwXrXXXXXrXwXtXwXuX",
"eXoX_ Z.<X:X>X>X:X;X,X>X>X>XW.h 1 5 2 u 0 O 0 $ $ 0 1 1 1 3 3 1 q 3 3 2 1 0 1 1 1 $ : 1 2 u V.E./.t {.6XwXwXeXXX5X5XqX[.OX:.:.`.",
"eX8XX.N JX>X>X>X>X>X:X;X>X;XE.h f |.+X`.[ $ O O $ @ @ @ @ o o @ X O + O O &   o $ $ @ T |.{.c 0 x |.fXXXtXeX}.|.L.}.uX|.&X{ ^ n ",
"4X8X' j <X<X<X<X>X;X:X<XFX>XE.h L wXwX8X{ 4 , , : O O O $ & O O O $ O @ X @ O : , , > _ uXoXh.J.).wXwX6XwXwXpXrXXXfXgX8XcXhXtXwX",
"`.'.! N FX,X,X,X>X>X;XFX>X;XE.h z J.'.'.! > , > p I T T T ! s 5 5 i R T I ! T p > , > z _.`.).'.`.{.).g.).(.)..X)..X_.)._._._._.",
"c / u h FX,X=XT.=X;X-X=XQ.-XE.w 2 m n n u : , 0 k N M M m b n b m b n n m m m q > < w s b ^ U z y s d T n ^ n z T n ^ ^ ^ } ^ n ",
"$XwXX.M Q.W.Y.!.E.E.E.E.U.E.A.w R }.$XiXH.# k yXvXCXVXVXnXzXrXXXwX6X6X7XwXwXwX'.= 6 ..eXwXyXuX(.U X.[.0XtXpXfXtXzXcXbXnXVXnXvXvX",
"6X5X|.} v h e w q e e q q w q w 5XaX7X[.yX)..X5X4X4X[.[.5X7X6X5XwX4XeXeX6X4X X[.'.(. X4X XwX}.&Xc :.rX7X6X6X8X4X6X4X X$X6X6X4X5X",
";.@.<.%.Y I Y Y R _ ..X.S.X./ E tX6X[.6XuX+X).L.I.I.*.$.#.$.$.$.0XeXuXwX}.P.P.;.pXrX).pX&XI a c l ^.iXwXXXwX$X XL.G.#.;.#.$.$.I.",
"#.;.;.<.*.*.&.&.&.1.4XqXeX0X:.R oXoXrXtX4X'.=.@.*.@.;.;.;.$.$.G.>.XX6X6XwXrXgXrXg.tXhXgXgXhXpX.Xz J.eXeX6XwX X2.;.=.;.;.<.<.*.@.",
"$.$.@.&.*.&.$.*.@.$.'.6XwXyX(.! $XXX$XwXXX1.$.F.;.@.@.;.;.$.] ] '.pXrXwXrXwXrX6XrXrX6XwXXX[.iXXX! H.wXwXwXwX}.$.<.*.*.*.<.;.F.#.",
"r d ( #.G.@.L.%.@.$.[.6X8XrX(.T qXeXeX4X6X3.*.*.;.@.<.-.] I p i -.wXwX XrX6XwX6XwXwXwX8XwXrXoXeXT (.wX8XXXwX|.@.;.;.$.$.$.#.~ p "
};
