/* XPM */
static char *_50298bb96e245afe6fbcbc29989dfd5fBrP1ENURZtdnoxT[] = {
/* columns rows colors chars-per-pixel */
"64 64 192 2 ",
"   c None",
".  c #372F49",
"X  c #3C344E",
"o  c #37314C",
"O  c #3E3750",
"+  c #3F3851",
"@  c #3D3F5A",
"#  c #44364F",
"$  c #4F384D",
"%  c #413751",
"&  c #413A52",
"*  c #4C3E54",
"=  c #533753",
"-  c #553A51",
";  c #5A3852",
":  c #5B3A4C",
">  c #61394E",
",  c #633753",
"<  c #773854",
"1  c #39425B",
"2  c #37455E",
"3  c #374C63",
"4  c #2F576E",
"5  c #2C6578",
"6  c #326776",
"7  c #5F404F",
"8  c #45435B",
"9  c #4A455C",
"0  c #4D495F",
"q  c #5E4452",
"w  c #574A5C",
"e  c #574756",
"r  c #634B59",
"t  c #624A55",
"y  c #72575F",
"u  c #754954",
"i  c #4C4960",
"p  c #484D67",
"a  c #524D63",
"s  c #4B526B",
"d  c #55556B",
"f  c #555A71",
"g  c #615565",
"h  c #705D68",
"j  c #605C70",
"k  c #5C657B",
"l  c #5F6A7F",
"z  c #586176",
"x  c #77676B",
"c  c #63697D",
"v  c #696679",
"b  c #756973",
"n  c #823B52",
"m  c #813556",
"M  c #993B53",
"N  c #983E4A",
"B  c #B13E51",
"V  c #BD3C55",
"C  c #A93A53",
"Z  c #C23C53",
"A  c #9D4A47",
"S  c #AB444E",
"D  c #BB4449",
"F  c #B54A4E",
"G  c #BE4F4E",
"H  c #B7464B",
"J  c #A55B58",
"K  c #B87D5F",
"L  c #B67A5F",
"P  c #A56E59",
"I  c #8D7362",
"U  c #987C67",
"Y  c #847776",
"T  c #9D7E7B",
"R  c #A26E69",
"E  c #A77760",
"W  c #B6796B",
"Q  c #BF7967",
"!  c #A77E77",
"~  c #CE434D",
"^  c #D64B4A",
"/  c #DD4A49",
"(  c #D6454B",
")  c #C15447",
"_  c #D9534E",
"`  c #C05F59",
"'  c #E24D4A",
"]  c #E5544E",
"[  c #E35D52",
"{  c #C8685C",
"}  c #D4625B",
"|  c #EB714E",
" . c #E76255",
".. c #E96656",
"X. c #E96B5A",
"o. c #ED735E",
"O. c #EA7A53",
"+. c #F1765E",
"@. c #F1785F",
"#. c #C76F62",
"$. c #ED7D65",
"%. c #E37965",
"&. c #F17B61",
"*. c #F07760",
"=. c #A78467",
"-. c #A98769",
";. c #AB8969",
":. c #A78668",
">. c #BC8E6A",
",. c #BE966E",
"<. c #A88F72",
"1. c #AE9B7C",
"2. c #B89571",
"3. c #EA875A",
"4. c #CB8863",
"5. c #CD9067",
"6. c #D4846A",
"7. c #EF846C",
"8. c #F48365",
"9. c #F6886C",
"0. c #F4886C",
"q. c #FC9F65",
"w. c #F18E76",
"e. c #D1A775",
"r. c #D2A976",
"t. c #F6A76C",
"y. c #F6B977",
"u. c #FAB372",
"i. c #F6C37E",
"p. c #FDC77E",
"a. c #5E6B81",
"s. c #576E85",
"d. c #726E80",
"f. c #65778B",
"g. c #757386",
"h. c #917F81",
"j. c #6B8295",
"k. c #788896",
"l. c #7F919E",
"z. c #7B95A5",
"x. c #7E99AA",
"c. c #938385",
"v. c #89929E",
"b. c #93939F",
"n. c #A48E8C",
"m. c #BF8F84",
"M. c #A0908E",
"N. c #A89591",
"B. c #BCAC87",
"V. c #839DAB",
"C. c #8B9FA9",
"Z. c #8599A5",
"A. c #999AA6",
"S. c #8DA3AC",
"D. c #89A5B2",
"F. c #8CA9B5",
"G. c #8BA8B5",
"H. c #96AFB7",
"J. c #90ADB9",
"K. c #90A7B0",
"L. c #94B1BB",
"P. c #99B4BB",
"I. c #A8A7B1",
"U. c #A7B4BC",
"Y. c #C49689",
"T. c #EF9B84",
"R. c #CEB384",
"E. c #D6BA86",
"W. c #CBA293",
"Q. c #D4AA98",
"!. c #D2A090",
"~. c #DAB09D",
"^. c #C1ADA3",
"/. c #C5B0A5",
"(. c #D1BCAD",
"). c #D8C28F",
"_. c #D7C997",
"`. c #FFDD94",
"'. c #F0DC9D",
"]. c #F0C7AE",
"[. c #E6C9B5",
"{. c #F0D3BC",
"}. c #FFECA1",
"|. c #9BB9C1",
" X c #ABC6CC",
".X c #B8C7CC",
"XX c #BACFD5",
"oX c #CBD3D6",
"OX c #C7D8DC",
"+X c #C3C6CC",
"@X c #F4D8C0",
"#X c #E1E4E5",
/* pixels */
"                                                                                                                                ",
"                                                                                                                                ",
"                                                                                                                                ",
"                                                                                                                                ",
"                                                                                                                                ",
"                                                                                                                                ",
"                                                                                                                                ",
"                                                                                                                                ",
"                                                                                                                                ",
"                                                                                                                                ",
"                                                                                                                                ",
"                                                                                                                                ",
"                                                                                                                                ",
"                                                                                                                                ",
"                                                                                                                                ",
"                                                                                                                                ",
"                                                                                                                                ",
"                                                                                                                                ",
"                                                                                                                                ",
"                                                                                                                                ",
"                                                                                                                                ",
"                                                                                                                                ",
"                                      & & X     & & & & & &   & &                                                               ",
"                                    : ) 5.4.q t 4.e.r.).r.E.Y B.2.&                                                             ",
"                                    q O.t.u.e e y.p.U x U `.Y _.).&                                                             ",
"                                    t 3.t.y.L ,.p.i.L $ K `.R.'._.&                                                             ",
"                                    > | t.`.q.p.p.p.u.>.u.`.`.}.E.&                                                             ",
"                                    $ A E :.P :.:.:.:.:.;.<.<.1.I X                                                             ",
"                                    p p 1 s d d 8 k z f 0 g.c & g.b                                                             ",
"                                  & s.k s f.j.k.z K.K.v.v oXU.f +XA.                                                            ",
"                                  + & = - - - - w w w w w w w q - +                                                             ",
"                                  + = V ^ ^ ^ } W.Q.~.~.~.Q.W.} F +                                                             ",
"                                    = ~ _ X.X.m.9 N.{.[.{.c.9 Y.G 8                                                             ",
"                                    = B  .*.$.[.(.[.T.7.9.o.!.].#.&                                                             ",
"                                    + A ] [ o.w.w.w.7.u q J 9.w.#.&                                                             ",
"                . o . . o o X     o X # S ' o.@.@.8.7.#.W 6.8.@.{ &                                                             ",
"                b.v.I.I.Z.A.k.k O c.T h m M }  .@.8.8.8.0.0.8.@.{ #                                                             ",
"              & U. XOXOX XXX|.g.O ^.].! ; = ) ] @.o...o.@.o. ...G g b                                                           ",
"              & C.J.J.D.D.J.D.a.X ^.{.Y.w + C F ..[ _  ... .F _ D Y c.                                                          ",
"              & C.L.L.F.F.L.D.c # ^.^.Y.R - < > ( / D ~ / / < C N Y c.                                                          ",
"              & C.F.V.F.G.x.D.a.X M.8 e W r O = C D > M D C , m % h b i f                                                       ",
"              + C.J.D.F.F.F.D.a.O & 8 8 i i i i a a a a a i 0 9 * @ % Z.oX9                                                     ",
"              & C.J.F.F.F.F.D.a.X & s.j.V.V.H.L..X.XoX#XoXP.D.V.x.f % k.H.8                                                     ",
"              + S.J.F.F.F.F.D.a.O + & 8 8 8 9 9 0 0 a a a 9 9 8 i & O a.x.&                                                     ",
"              & C.J.F.F.G.G.D.l X     & % % + + O O O X O O O & O O   8 i                                                       ",
"              & C.L.P.F.F.|.D.l       3 5 2 + + + + + + + + % 4 5 +                                                             ",
"              & C.J.D.F.F.D.D.a.      3 5 1                   3 5 O                                                             ",
"              + z.D.z.V.V.z.x.k       @ 1                     & 3                                                               ",
"                c l k k k k k s       %                                                                                         ",
"                  X X X X X X                                                                                                   ",
"                                                                                                                                ",
"                                                                                                                                ",
"                                                                                                                                ",
"                                                                                                                                ",
"                                                                                                                                ",
"                                                                                                                                ",
"                                                                                                                                ",
"                                                                                                                                ",
"                                                                                                                                ",
"                                                                                                                                ",
"                                                                                                                                ",
"                                                                                                                                ",
"                                                                                                                                ",
"                                                                                                                                "
};
