/* XPM */
static char *_37f450e12164478bd39534d69d886f0Kf87LHDAQBc7bsdD[] = {
/* columns rows colors chars-per-pixel */
"64 60 171 2 ",
"   c None",
".  c #000000",
"X  c #090302",
"o  c #0C0907",
"O  c #0E0B08",
"+  c #110D0A",
"@  c #1C0403",
"#  c #19140F",
"$  c #251E16",
"%  c #2A100C",
"&  c #282017",
"*  c #2A2219",
"=  c #31251B",
"-  c #32291E",
";  c #3A2F22",
":  c #3F3225",
">  c #6B120D",
",  c #71130E",
"<  c #6E2017",
"1  c #7F3F23",
"2  c #7B433E",
"3  c #70465B",
"4  c #774F4E",
"5  c #7A6247",
"6  c #7A6348",
"7  c #6B4665",
"8  c #69476D",
"9  c #69486F",
"0  c #6D4573",
"q  c #A21A14",
"w  c #BB1F17",
"e  c #BC2118",
"r  c #8D3E24",
"t  c #BC2935",
"y  c #B62B3D",
"u  c #B82B3B",
"i  c #AF3627",
"p  c #D01F17",
"a  c #C9261B",
"s  c #CA291E",
"d  c #D32217",
"f  c #D1231A",
"g  c #D22A1F",
"h  c #CA2524",
"j  c #C3272B",
"k  c #CA2925",
"l  c #D32D22",
"z  c #CD3128",
"x  c #D43326",
"c  c #D53A2B",
"v  c #D6382B",
"b  c #C02830",
"n  c #C53335",
"m  c #824226",
"M  c #844529",
"N  c #87492E",
"B  c #8A4C2E",
"V  c #8E4127",
"C  c #884C31",
"Z  c #874A30",
"A  c #9C4F32",
"S  c #8E5031",
"D  c #935636",
"F  c #955838",
"G  c #995D3B",
"H  c #9D613F",
"J  c #D74432",
"K  c #D94E39",
"L  c #D84B37",
"P  c #AA2F4C",
"I  c #B42C40",
"U  c #A73051",
"Y  c #A53455",
"T  c #B0334B",
"R  c #91376F",
"E  c #995E40",
"W  c #9E6341",
"Q  c #82694C",
"!  c #AE754F",
"~  c #A66B47",
"^  c #DC5E44",
"/  c #DE6D4F",
"(  c #DF6F51",
")  c #E17959",
"_  c #E07555",
"`  c #FFEF1E",
"'  c #FFF01C",
"]  c #DED13D",
"[  c #EEDF2E",
"{  c #E8DA34",
"}  c #E3D639",
"|  c #E7D936",
" . c #EFE02D",
".. c #FDEC21",
"X. c #A0805D",
"o. c #BC865D",
"O. c #BE885E",
"+. c #BD986E",
"@. c #BD976E",
"#. c #E2805E",
"$. c #C6BD54",
"%. c #C28A64",
"&. c #CA9569",
"*. c #C19B71",
"=. c #D29F71",
"-. c #E38461",
";. c #E58F68",
":. c #E6946C",
">. c #E7996F",
",. c #E79C72",
"<. c #E89E73",
"1. c #CEA578",
"2. c #C9A276",
"3. c #D6A374",
"4. c #DBAD7D",
"5. c #D2A97B",
"6. c #E9A376",
"7. c #E5A47A",
"8. c #EBAC7D",
"9. c #E2A074",
"0. c #DBCE42",
"q. c #CDC24E",
"w. c #7F3C86",
"e. c #7B3E8B",
"r. c #5A4A97",
"t. c #6D429D",
"y. c #704199",
"u. c #7E7F9C",
"i. c #5C47B3",
"p. c #5549BD",
"a. c #5849B9",
"s. c #5746BA",
"d. c #5A5EBD",
"f. c #6145AD",
"g. c #6A47A5",
"h. c #6451B4",
"j. c #5E62BA",
"k. c #6366B5",
"l. c #6468B3",
"z. c #4F4BC6",
"x. c #494DCD",
"c. c #474ECF",
"v. c #524AC1",
"b. c #4B52CC",
"n. c #555AC3",
"m. c #5257CC",
"M. c #5656C3",
"N. c #474ED0",
"B. c #484FD0",
"V. c #4A52D2",
"C. c #837490",
"Z. c #8C8A8D",
"A. c #858394",
"S. c #DBAF80",
"D. c #DCB080",
"F. c #CFAB98",
"G. c #CFAB97",
"H. c #D2AA94",
"J. c #E5B583",
"K. c #ECB483",
"L. c #EBB987",
"P. c #EEBF8B",
"I. c #E7BA87",
"U. c #EFC08C",
"Y. c #EEC08C",
"T. c #EEC28D",
"R. c #EEC18D",
"E. c #F1C18D",
"W. c #F1C38E",
"Q. c #F1C18C",
"!. c #EFC391",
/* pixels */
"                                        f f f f f f f f f f f f f f f f f f f f                 !.P.P.P.P.P.P.P.P.P.U.P.        ",
"                                        f f f f f s f f f f f f f f f f f f f f                 T.P.P.P.P.P.P.P.P.P.P.P.        ",
"                                        f f f f f f f f f f a f f f f f f f f f                 !.T.T.T.P.P.P.P.P.P.P.P.        ",
"                                      x f f f f f f f f f f d f f f f f f f f s x               ) -.) -.K.U.P.P.U.P.P.P.        ",
"                                g d f f f f a d f f f f f f f f f f f f f f f f f f f l p l p l f f f g ,.T.P.P.P.P.P.P.        ",
"                                g d f f f f f d f f f f f f f f f f f f f f f f f f f f f f p f f f f g ,.T.P.P.P.P.P.P.        ",
"                                f a f f d f d d f f f f f d f f f f f f f f f f f f p p f f p p f f f g ,.T.T.P.T.P.P.P.        ",
"                                s a a a a a a a a a a h x x x x x x x k a w w w l x x l l l l l f f f l ;.8.8.K.8.K.K.8.        ",
"                                V r r r r r r r r r r D 9.8.8.4.8.8.8.%.% @ @ % O.K.8.8.        l f f f x v v v v v v v         ",
"                                M m 2 m m m m m m 1 1 D 4.W.W.W.P.P.E.*.+ . . O +.E.P.P.        f f f f p f p f p f d a         ",
"                                M m m m m m m m m m 1 H 8.W.8.W.P.P.E.*.+ . . O +.E.P.P.        l p f f f f f f f f f f         ",
"                                m m m m m m m m m 1 1 H 4.W.Y.Y.P.U.E.*.+ . . O +.P.P.P.        l p f f f f f f f f f f         ",
"                          C Z E o.O.O.! m 2 1 S o.O.O.&.8.W.W.T.P.U.E.*.+ . . O +.P.P.P.!.!.!.P.) ) ) _ v a d f f f f f         ",
"                        M m m F J.Q.E.3.M 1 1 H 8.W.T.T.T.T.T.T.P.P.E.*.+ . . o *.W.P.P.P.P.P.P.!.!.T.L.J p f f f f f f         ",
"                        M m m F J.Q.Q.9.M m 1 H 4.W.T.T.W.T.T.T.P.P.E.*.+ . . + +.P.P.P.P.P.P.P.P.P.P.K.J f f f f f f f         ",
"                        M m m F J.Q.Q.$.M m 1 H T.W.8.T.8.T.T.T.P.P.E.*.O . . o *.W.P.W.P.P.P.P.P.P.P.L.J p f f f f f f         ",
"                        M M 1 F J.P.E.=.M m r S =.3.3.3.8.W.8.W.P.P.T.2.: ; ; ; X.+.+.*.I.P.P.P.P.P.P.L.^ c L c l f f l         ",
"                        M m m F J.E.E.=.N m M M M m B G 8.W.Y.Y.P.P.P.P.D.D.D.5.; o o & 1.E.P.P.P.P.P.P.L.L.L.K.K f f f         ",
"                        M M 1 F J.P.E.=.m m 2 m m m 2 D Y.W.W.T.P.P.P.P.T.T.E.J.- . . # 1.E.P.P.P.P.P.P.P.P.P.L.K p f f         ",
"                        M m 1 F I.P.E.=.m m m m 1 m m D 4.W.Q.T.P.P.P.P.E.T.W.D.- . . # 1.E.T.T.E.P.E.E.P.P.P.L.K p f f         ",
"                        M m m D 4.8.4.2.S S B B B B B H J.U.P.P.P.P.P.P.S.4.D.1.* . . # @.4.S.4.4.D.4.4.K.K.I.K.K f f l         ",
"                        M m m M D F F ~ 3.4.4.7.4.4.4.7.P.P.P.U.P.P.P.2.; $ & $ o . . . $ & & & & & $ = i c c c                 ",
"                        M m m M 1 m 1 H 8.Q.Q.Q.U.U.U.U.P.P.P.P.P.P.E.+.O . . . . . . . . . . . . . . X q d f f                 ",
"                        M m m m m m 1 H Y.Y.Y.Q.P.P.P.P.P.P.P.P.U.P.E.*.+ . . . . . . . . . . . . . . X q d f f                 ",
"                        M M m m M M M H L.P.P.P.Y.P.P.P.P.U.P.P.P.P.E.+.O . . . . . . . . . . . . . X X q f p a                 ",
"                                        P.P.P.P.P.P.P.P.P.P.P.P.P.P.T.4.Q 6 6 6 5 5 5 5 6 6 6 5 < > > , w f f l                 ",
"                                        Y.P.Y.Y.P.P.P.P.P.P.P.U.P.P.U.U.E.E.E.E.U.Q.E.Q.E.Q.E.K.c f f f f f f f                 ",
"                                        Y.Y.Y.U.P.Y.P.P.P.P.P.P.P.P.P.P.Q.P.P.P.U.U.U.U.U.P.T.K.c f f f f f p f                 ",
"                                        T.T.W.W.Y.U.Q.U.T.U.Q.U.U.U.U.E.U.U.U.U.E.Q.Q.U.E.E.E.K.J f f f f f f l                 ",
"                                        6.6.6.7.H.H.H.H.7.6.6.6.6.6.6.6.6.6.6.7.H.F.H.H.7.6.6.,.v d p l x   l                   ",
"                f f f f f f f f g g g g l l g T d.m.m.f.n l l l x g l l l l g z g.m.m.h.n l l l f f f l                   M N M ",
"                f f f f f f f f f f d f f f d y z.c.N.i.h d a d a d f f f d a k i.N.N.p.t f p f f f p l                 Z r M m ",
"                f f f f f d f f f f f f f f f I z.c.N.i.j f f f f f f f f f f h f.N.N.s.b f f f f f f l                 Z m m m ",
"                f f f f f a f f f f f f f f d u p.z.z.f.t h h h f f f f f f f h g.z.z.i.u h k h l f h l                 C m m m ",
"T.!.T.!.!.!.!.-.f f f f f f f f f f f f f f f h u u u P g.f.f.t.j f f f f f f a t u u P g.f.f.f.                  B M N M m m m ",
"P.P.P.P.P.P.T.:.f f f f f f f f f f f f f f f f d d d t z.N.N.p.b f f f f f f d f d d j s.N.N.V.                C m M m m M m m ",
"P.P.P.P.P.P.P.:.g f f f f f f f f f f f f f f f f f d u v.N.N.p.b d f d f f f f f f d j p.N.N.V.                M m m m m m m m ",
"P.P.P.P.P.P.T.:.f f f p f f f f f f f f f f f f f f d u v.N.N.p.j d d p d d d d p p d j p.N.N.N.                B m m m m m M m ",
"P.P.P.P.P.P.P.8.( / ( ^ g f f f f f a p f f f d f f d u v.N.N.v.R P U U U U U U U U U Y C.u.u.u.                4 r m m m m 2 m ",
"P.P.P.P.P.P.P.P.T.T.T.,.g f f f f f f d f f f a f d d t v.N.N.N.x.z.x.x.x.x.x.x.x.c.N.d.} ....] n.V.B.B.B.B.B.B.7 m m m m m m m ",
"P.P.P.P.P.P.P.P.P.P.T.,.g f f f f f f f f f f f f f f t v.N.N.N.B.N.N.N.c.N.N.N.N.N.N.j.| ` ` ] n.N.c.N.N.N.N.N.8 m m m m m m m ",
"P.P.P.P.P.P.P.P.P.P.P.,.g f f f d f f f f f f f d f d t v.N.N.N.N.N.N.N.N.c.N.c.N.x.N.d.| ` ' ] n.N.N.N.N.N.N.N.8 m m m m m m m ",
"T.T.P.!.P.P.P.P.P.L.P.,.g f f h t t t t f f f h t t t U v.N.N.b.k.k.k.j.b.c.N.N.N.N.N.n.q.} } $.n.N.c.c.N.N.N.N.8 m m m m m m m ",
"        P.P.P.                  v.p.v.R f f f u i.v.v.v.x.N.N.j.0.[ [ 0.j.N.N.N.N.N.N.b.n.d.d.M.N.N.V.N.c.N.N.N.8 m m m m m m m ",
"        P.P.P.                  N.N.N.w.f f d I z.N.N.N.N.N.N.j.| ..`  .l.N.N.N.N.N.N.B.N.N.N.N.N.c.N.N.N.N.c.N.3 m m m m m M m ",
"        P.P.P.                  N.N.N.w.d f f I z.N.N.N.N.N.N.j.{ ` ` [ k.N.N.N.N.N.N.c.N.N.N.B.N.N.N.c.c.N.N.N.7 m m m m m m m ",
"        P.T.T.                  N.N.N.w.f h d I v.N.N.N.N.N.N.j.{ ..` [ k.N.N.N.N.N.c.N.N.N.N.N.N.c.N.N.c.c.c.c.8 m m m m m m m ",
"                m r m m r m r 2 7 8 7 0 e.e.e.e.x.N.c.N.N.N.N.b.A.Z.Z.A.M.N.N.N.N.N.N.B.N.c.c.N.N.N.N.c.c.c.c.c.8 m 2 M m m m m ",
"                M M m m m m m m m m m 3 c.N.N.N.N.N.N.N.N.c.N.b.N.N.N.N.N.N.B.N.N.N.B.N.N.B.N.N.N.N.B.c.c.N.N.N.8 m m m m m m m ",
"                M m m m m m m m m m m 3 c.c.c.c.N.N.N.N.N.c.N.N.N.N.N.c.N.c.N.c.x.c.N.N.c.N.c.N.c.N.N.N.N.N.B.N.8 m m m m m m m ",
"                M m m m m m m m 2 m r 8 N.N.N.c.N.N.N.N.N.N.N.c.N.N.N.N.c.N.N.N.B.B.B.B.B.B.B.B.B.B.B.B.B.B.V.N.8 m m M M m M m ",
"              B m 2 m m m m m 2 8 8 8 r.N.N.N.c.N.N.N.N.N.c.N.N.N.N.B.N.c.N.x.V.                                                ",
"        M M m m m m m m m m m 4 c.N.N.N.N.N.N.N.c.N.N.c.N.N.N.N.N.N.N.N.N.N.c.V.                                                ",
"        M m m m m m m m m m 1 3 x.B.N.N.N.B.N.N.N.N.c.c.c.N.c.c.N.N.N.N.B.N.N.V.                                                ",
"        m 2 1 m m M m m m m m 3 x.B.B.B.B.B.B.B.c.V.V.V.N.V.c.V.B.B.N.N.B.B.N.V.                                                ",
"        M r 1 m m m m m                                                                                                         ",
"        M m m m m m m m                                                                                                         ",
"        m m m m m m m m                                                                                                         ",
"        M m m m m m m m                                                                                                         ",
"        m m m m m m M 2                                                                                                         "
};
