/* XPM */
static char *c18662160f23476bfa78be3d5e3dbcb6SZCn34j3jaSHfXHW[] = {
/* columns rows colors chars-per-pixel */
"64 64 204 2 ",
"   c None",
".  c #3D2D4B",
"X  c #3E324E",
"o  c #3F3651",
"O  c #3E3A53",
"+  c #393D58",
"@  c #402E4B",
"#  c #40344E",
"$  c #413D53",
"%  c #403750",
"&  c #3E4156",
"*  c #3C445A",
"=  c #3D4B5C",
"-  c #37425C",
";  c #3F525A",
":  c #354D64",
">  c #3A4D61",
",  c #334763",
"<  c #2F506A",
"1  c #375366",
"2  c #3A5264",
"3  c #3E5B65",
"4  c #33556A",
"5  c #355C6E",
"6  c #3A5C69",
"7  c #2C5D74",
"8  c #335E70",
"9  c #3F6363",
"0  c #3B636D",
"q  c #35606E",
"w  c #37726F",
"e  c #2F6D7C",
"r  c #2B6579",
"t  c #336373",
"y  c #3B6670",
"u  c #356B75",
"i  c #3B6B73",
"p  c #326C79",
"a  c #2E727F",
"s  c #3B7A7B",
"d  c #3A7477",
"f  c #414255",
"g  c #454459",
"h  c #414B59",
"j  c #49485C",
"k  c #44525C",
"l  c #4D545D",
"z  c #415A5F",
"x  c #4E585F",
"c  c #4D4B62",
"v  c #414F61",
"b  c #524C63",
"n  c #405D63",
"m  c #56596C",
"M  c #5B5E73",
"N  c #565A71",
"B  c #625E71",
"V  c #436362",
"C  c #436C66",
"Z  c #4C6B66",
"A  c #4A6967",
"S  c #546563",
"D  c #566A66",
"F  c #42726A",
"G  c #427C6D",
"H  c #4B756A",
"J  c #58746A",
"K  c #5B7B6D",
"L  c #557369",
"P  c #586475",
"I  c #417177",
"U  c #417D72",
"Y  c #4D7A75",
"T  c #5B7278",
"R  c #456D79",
"E  c #627E6E",
"W  c #636679",
"Q  c #6C6B7F",
"!  c #616677",
"~  c #3B867B",
"^  c #3F907F",
"/  c #44806D",
"(  c #5E806F",
")  c #438673",
"_  c #448A72",
"`  c #478776",
"'  c #588976",
"]  c #449D79",
"[  c #469678",
"{  c #549276",
"}  c #5C9678",
"|  c #64836F",
" . c #658872",
".. c #69997A",
"X. c #709F7C",
"o. c #45A47D",
"O. c #46AA7F",
"+. c #4EA57E",
"@. c #72A27E",
"#. c #2A7584",
"$. c #2D7984",
"%. c #297987",
"&. c #656E81",
"*. c #697B84",
"=. c #7A7486",
"-. c #777586",
";. c #807C8C",
":. c #2B828B",
">. c #2F8C8B",
",. c #348484",
"<. c #3A8482",
"1. c #388D85",
"2. c #3B948B",
"3. c #3A9B8C",
"4. c #3A9688",
"5. c #2A8B91",
"6. c #268993",
"7. c #2E9791",
"8. c #2F9992",
"9. c #2D9B99",
"0. c #289598",
"q. c #349D92",
"w. c #359991",
"e. c #3BA88E",
"r. c #3FB18C",
"t. c #3AA292",
"y. c #3CAC94",
"u. c #37AD99",
"i. c #39AA9A",
"p. c #37A497",
"a. c #3EB393",
"s. c #3CB59B",
"d. c #3EBB97",
"f. c #419B80",
"g. c #798C9C",
"h. c #7B8998",
"j. c #6C828C",
"k. c #45AD84",
"l. c #48A988",
"z. c #5CAC81",
"x. c #45B285",
"c. c #47BB86",
"v. c #48BB86",
"b. c #41B48C",
"n. c #43BA8C",
"m. c #48BD88",
"M. c #48B181",
"N. c #58B484",
"B. c #41BC93",
"V. c #43B598",
"C. c #5BB994",
"Z. c #63AF8C",
"A. c #7BBD89",
"S. c #76BA89",
"D. c #6BB585",
"F. c #7F92A1",
"G. c #46C38C",
"H. c #49C58A",
"J. c #47C88C",
"K. c #49C98C",
"L. c #52CA8D",
"P. c #5AC78C",
"I. c #43C292",
"U. c #48C796",
"Y. c #5DD391",
"T. c #54C79E",
"R. c #65CD8F",
"E. c #79C58C",
"W. c #60C997",
"Q. c #7FCD90",
"!. c #6DDB95",
"~. c #6CD191",
"^. c #72DE97",
"/. c #7BDC99",
"(. c #838694",
"). c #88959E",
"_. c #889AA5",
"`. c #9A9FA8",
"'. c #9EA2AB",
"]. c #A5A6AF",
"[. c #ACABB4",
"{. c #A0B6BF",
"}. c #ACB2BA",
"|. c #80C58C",
" X c #85CE90",
".X c #82DD96",
"XX c #87D392",
"oX c #82E49A",
"OX c #8AE198",
"+X c #B8BBC2",
"@X c #ABBCC4",
"#X c #B2C5C8",
"$X c #B3C6C9",
"%X c #CCDBDC",
"&X c #C4D1D4",
"*X c #D7DBDC",
"=X c #DDE1E2",
"-X c #D8EEE9",
";X c #DCF0EB",
":X c #E2E7E7",
">X c #E9F2EF",
",X c #F3FEF9",
"<X c #F2F9F6",
"1X c #EAF4F1",
/* pixels */
"                                                                                                                                ",
"                                                                                                                                ",
"                                                                                                                                ",
"                                                                                                                                ",
"                                                                                                                                ",
"                                                                                                                                ",
"                                                                                                                                ",
"                                                                                                                                ",
"                                                                                                                                ",
"                                                                                                                                ",
"                                                                                                                                ",
"                                                                                                                                ",
"                                                                                                                                ",
"                                                                                                                                ",
"                                                                                                                                ",
"                                                                                                                                ",
"                                                                                                                                ",
"                                                                                                                                ",
"                                                                                                                                ",
"                                                                                                                                ",
"                                                                                                                                ",
"                                                                                                                                ",
"                                                                                                                                ",
"                                                                                                                                ",
"                                                                                                                                ",
"                                                                                                                                ",
"                                                                                                                                ",
"                                                                                                                                ",
"                                                                                                                                ",
"                                                                                                                                ",
"                                              o O O X #                                       o o O o % O                       ",
"                                            m D D D A z h                                     S D D S V z                       ",
"                                          $ E S.|.A.+.[ n X X X X o X X X X X X @ # X X X . x X.A.A.D.+.s f                     ",
"                                          $ J |. X XR.k.F h h ; h h l x l l k k h l l k k & Z S.oXXXE.N./ f #                   ",
"                                          % x ( E | l.V.f._ / _ _ { ..@.@.@.@.} _ } ..{ _ ~ [ C.C. .K F z O o                   ",
"                                          % $ $ f v <.y.n.G.H.c.m.P./.OXOXOX.XR.H.~.oXR.c.H.v.b.2.n & + O % o                   ",
"                                            X o > i 2.B.G.J.J.H.K.L.!.^.^.^.^.Y.L.Y.!.Y.J.J.H.d.3.u - O X O                     ",
"                                            X O y 3.b.n.H.H.G.G.H.H.H.H.L.L.L.H.H.K.L.H.H.H.H.H.b.>.p * X                       ",
"                                            . $ d V.I.H.H.H.H.H.H.H.G.G.H.H.G.G.J.J.H.o.] M.H.H.n.8.e * #                       ",
"                                          X X & / n.K.G.H.J.H.H.H.H.G.G.H.G.G.H.J.J.O.w 9 ] H.H.a.8.e * #                       ",
"                                        M B b $ U n.U.n.x.o.o.k.c.G.G.v.O.o.o.x.n.x.] T ! ' k.H.r.7.e * #                       ",
"                                      % =.[.;.f w s.d.y.) V V I e.B.G.o.F V C [ y.~ A ).[. .F O.r.w.e * #                       ",
"                                      % (.*X[.M R q.p.2.6 $ o > <.y.x._ * X O i 2.I ! }.*X=.; ] n.8.e * #                       ",
"                                      % (.:X*X].*.i u i * . . O 6 i F z o . O = R j.].:X=XQ ; ] d.8.e * #                       ",
"                                      % ;.=X<X=X_.j O $ O f $ f g * h f f $ % O j '.=X,X*X-.; ] r.7.e * #                       ",
"                                      % =.%X,X<X}.W $ $ D | | | | J H H E S $ j &.}.<X,X&X&.h ] G.7.e * @                       ",
"                                      $ Q #X;X>X$X_.m j .. XXXXX XE.M.N.E. .j P _.&X1X-X@XW k ] r.7.e * #                       ",
"                                      $ T _.#X%X@Xh.m j  .E.oX/.oX!.L.P.A.| g N ).#X%X#X).T F O.n.p.~ 9 z                       ",
"                                        b P ).{.).N $ $ l K N.R.Y.Y.L.l.J j $ g M _.{.h.P ` o.c.J.r.r.o.G f                     ",
"                                          h T g.P $ o $ * 9 ] G.G.H.G.[ n $ % o $ &.h.P n ] H.H.J.G.G.G.[ n f                   ",
"                                        V / Y P c o . + y <.x.J.H.J.G.x.<.6 % . # c P R ~ k.J.H.G.d.d.H.M._ C f                 ",
"                                      % C k._ f o O o v s t.b.v.v.c.v.b.q.s > $ + $ v <.y.B.H.H.n.y.y.c.G.v.U f                 ",
"                                      O F c._ & + , 4 5 u s U / G G / G I u t 5 5 5 i 3.B.G.H.H.k.~ <.a.U.d.U * #               ",
"                                      O F O.) & , r %.%.5 h * g h h h f g 6 $.:.:.w.t.b.G.H.G.H.] n 0 3.s.u.d f                 ",
"                                      o V _ C & < %.6.:.t > 1 1 1 : 1 1 4 #.6.0.p.s.T.U.H.H.G.G.4.6 4 s ,.<.0 f                 ",
"                                        h z g O 8 :.6.6.%.$.$.$.$.$.$.$.%.:.6.9.i.W./.R.H.H.n.d.3.e 4 2 2 > =                   ",
"                                          % % O 5 $.>.7.9.5.:.$.$.$.$.$.$.$.$.,.2.Z.A.z.l.x.a.u.7.e < O # #                     ",
"                                                > 6 ~ y.u.w.u 1 1 1 1 1 1 1 1 6 V Z J A w 1.q.9.$.5 -                           ",
"                                                . g ) n.y.2.3 % % O % O O O O O O % $ % g e :.6.#.* %                           ",
"                                                . & ` b.1.y =                           O 1 t #.r * #                           ",
"                                                  & s q.0 f                               $ , 7 7 * %                           ",
"                                                  & y d 2 X                               # O : < +                             ",
"                                                    h * O %                               % $ O +                               ",
"                                                    # % o %                               O % % %                               "
};
