/* XPM */
static char *b78cc44702eb4fd7d07c565d93b36a36tjhNRDLfBpT4YzN8[] = {
/* columns rows colors chars-per-pixel */
"64 64 169 2 ",
"   c #3C3751",
".  c #3F3851",
"X  c #423751",
"o  c #4C3752",
"O  c #443951",
"+  c #4D3A52",
"@  c #533753",
"#  c #5B3754",
"$  c #533B52",
"%  c #5B3B52",
"&  c #723D4F",
"*  c #7B3E4F",
"=  c #643B52",
"-  c #6C3B52",
";  c #733D51",
":  c #7B3E51",
">  c #554155",
",  c #5D4456",
"<  c #634354",
"1  c #6C4353",
"2  c #6E4855",
"3  c #734453",
"4  c #7B4453",
"5  c #734A56",
"6  c #7C4B55",
"7  c #7D4F58",
"8  c #7E5259",
"9  c #833D52",
"0  c #8C3E52",
"q  c #933F51",
"w  c #94434F",
"e  c #9B424F",
"r  c #844454",
"t  c #8A4453",
"y  c #834C55",
"u  c #8B4C55",
"i  c #854D58",
"p  c #884F58",
"a  c #944452",
"s  c #9B4150",
"d  c #934B55",
"f  c #9B4D55",
"g  c #9F4C58",
"h  c #855057",
"j  c #8D5057",
"k  c #845258",
"l  c #8C5459",
"z  c #8E585B",
"x  c #925157",
"c  c #9A5356",
"v  c #935559",
"b  c #9A5659",
"n  c #945A5C",
"m  c #9C5C5B",
"M  c #A2454F",
"N  c #AC454F",
"B  c #B0474F",
"V  c #A54250",
"C  c #AA4250",
"Z  c #A34E57",
"A  c #AD4D54",
"S  c #A44E58",
"D  c #A55155",
"F  c #AB5355",
"G  c #A65259",
"H  c #AC5358",
"J  c #A35C5B",
"K  c #AA5E5C",
"L  c #B55656",
"P  c #B95253",
"I  c #BB5856",
"U  c #B65959",
"Y  c #BB5D5A",
"T  c #9F605D",
"R  c #A4625E",
"E  c #AB645E",
"W  c #B3635D",
"Q  c #BB665E",
"!  c #BD695F",
"~  c #965E60",
"^  c #995F60",
"/  c #976061",
"(  c #9B6362",
")  c #9D6966",
"_  c #A56462",
"`  c #A96663",
"'  c #A46966",
"]  c #AB6B66",
"[  c #AF6F68",
"{  c #B46561",
"}  c #B96662",
"|  c #B66A62",
" . c #BB6C63",
".. c #AD726A",
"X. c #BF7067",
"o. c #B4736A",
"O. c #BE7A6D",
"+. c #BB7F70",
"@. c #C05F5B",
"#. c #C2635C",
"$. c #C2695F",
"%. c #C46D62",
"&. c #C96E61",
"*. c #C27065",
"=. c #CC7263",
"-. c #C57368",
";. c #CC766A",
":. c #C37C6E",
">. c #D17367",
",. c #D27669",
"<. c #D2786B",
"1. c #DA7D6C",
"2. c #BE8372",
"3. c #C9806F",
"4. c #DD816E",
"5. c #C38472",
"6. c #CC8370",
"7. c #CD8B76",
"8. c #D18873",
"9. c #DF9177",
"0. c #D49279",
"q. c #DC9278",
"w. c #E0846F",
"e. c #E58670",
"r. c #E68A73",
"t. c #E98D74",
"y. c #E79076",
"u. c #EB9176",
"i. c #E1957A",
"p. c #EA9579",
"a. c #E59A7C",
"s. c #EC9D7E",
"d. c #EEA17F",
"f. c #C59E82",
"g. c #C89D81",
"h. c #E19F80",
"j. c #CAA283",
"k. c #E6A382",
"l. c #EFA381",
"z. c #EEA481",
"x. c #EEA783",
"c. c #EDAB86",
"v. c #EEAE88",
"b. c #F0A682",
"n. c #F1A784",
"m. c #F1AA85",
"M. c #F2AC86",
"N. c #F2AD86",
"B. c #F3AE88",
"V. c #F3B088",
"C. c #F3B189",
"Z. c #F3B289",
"A. c #F3B78C",
"S. c #F6B68C",
"D. c #F6BB8E",
"F. c #F7BE90",
"G. c #F9BF91",
"H. c #F9C192",
"J. c #F9C292",
"K. c #FAC493",
"L. c #FBC493",
"P. c #F9C594",
"I. c #FAC695",
"U. c #FAC896",
"Y. c #FBC997",
"T. c #FBCA97",
"R. c #FBCB97",
"E. c #FCCB97",
"W. c #FBCB98",
/* pixels */
"T.T.T.T.f.' A.T.W.P.W.W.T.T.P.T.P.7.~ k.W.W.T.W.P.T.T.T.P.5.( B.T.T.W.W.T.J.7.( c.W.T.T.T.T.T.J.o.' S.T.T.W.T.W.W.S.) j.T.W.W.W.",
"T.T.T.T.f.) n.T.W.W.W.W.T.T.T.T.D.6.~ i.J.T.T.T.T.T.T.T.S.:.^ h.J.T.W.W.T.S.:.~ p.P.T.T.T.T.T.Z.[ ' x.P.W.W.P.T.P.m.( j.T.T.T.W.",
"J.T.T.D.2.( e.x.B.Z.Z.Z.Z.Z.Z.B.p.;.~ 1.s.B.Z.Z.Z.Z.Z.B.t.%.m e.l.Z.B.Z.N.u.-.~ 1.a.Z.Z.Z.Z.c.t.` _ e.l.Z.Z.Z.Z.n.r.^ 5.G.K.P.K.",
"p.s.s.p.| v >.<.<.<.<.<.<.<.<.<.<.{ i %.<.<.<.<.<.<.<.<.<.` u -.<.<.<.<.<.<.` u -.<.<.<.,.<.,.<.m b ;.<.<.<.,.<.<.>.j  .p.b.h.p.",
" . . .} l $ , < , < , < < , < , < % + , , , , < < , < , , > o , , , , < < , $ $ , , < < , < < , $ $ , < , , , , , , $ v  . .|  .",
"/ / ~ p $ X O O X X @ - ; ; = $ = ; ; ; % $ - & ; - o X O O O X o - ; ; ; @ X O O X X O = & & & # # - ; ; - o X O X X $ u ~ ~ ( ",
"A.x.e.=., @ ; : 4 # - q s s 9 = 9 q e q * = q e s q = = : : : - = 0 a s q - # 4 : : - # 9 s e w - - q s s 0 = = : ; @ , ;.e.n.S.",
"W.P.l.;., . @ - ; 3 3 ; # = 4 ; - % = * & * 3 = % 3 ; - # - 3 ; 3 ; = # ; ; ; = = 3 ; ; 4 = $ & ; 3 = # ; 3 ; ; - @ X , ,.l.W.W.",
"T.T.B.;.,   % q P %.#.U 4 d @.%.L 3 c #.#.#.Y y u Y #.I 4 d #.#.#.Y u r W #.Y t t Y #.#.#.f 4 L #.#.d 4 U #.#.P s $ X , <.Z.W.T.",
"T.W.B.;., X @ 9 c J ( b ; y m J c 1 h R T T m 3 4 m T c 3 6 J R ( J 4 3 b R b 4 5 m R R R y 1 c R J 4 3 b R R b 9 o   , <.Z.T.T.",
"T.T.N.;., @ * 9 r 3 1 v n n p = 6 n n v 3 1 z v n j 1 6 v z n 6 = j n n z 1 3 z n v y < y n n v 3 1 z z n j < 4 9 4 # , ;.Z.T.T.",
"T.T.N.;., ; N N I x v &.=.=.Q 6 W =.=.=.c j &.=.=.$.h J =.=.=.K y %.=.=.&.j b &.=.=.W 6 Q =.=.=.c j =.=.=.$.6 H C C - < ,.Z.T.T.",
"T.P.l.;., $ & 4 y 3 3 z z z i 1 6 j j n 6 1 j j z j 1 5 j z z 6 < j z z z 1 3 l n n k < y z l z 3 1 l l l j < 4 4 ; $ , <.x.P.W.",
"D.x.e.-., X + t R R R m 3 y J R x 1 j R R R T 6 6 J E m 3 6 R R R R 4 3 b _ J 4 6 J R R R h 3 c R R y 3 J R R R r o   , =.r.x.D.",
"] ' ` v +   $ S $.=.&.! 4 3 x n 6 1 R =.&.=.$.j 1 j v u 1 c &.&.=.%.b 1 u n j 1 j $.=.&.=.J 1 y n x 3 4 %.%.-.%.S $   $ b ' ` ] ",
"..] ` b $ O $ 3 h 6 7 i < > +     > < 2 5 5 1 > O . . . O > 5 5 5 5 , X X X   X % 2 5 5 5 < O . X   X < k k 6 y ; $ X $ b ` ] ..",
"G.N.t.;., - q V F y 6 W ! W 3 . . .           . . . . . .           . . . . . . .         . . .     , J ! E 5 w M e = < >.u.V.J.",
"T.P.n.;., - a M F u u Q ! W 6 . . . . . . . . . . . . . . . . . . . . . . . . . . . . . . . . .     % K ! W 5 f M e = , <.d.T.R.",
"T.P.Z.;., X = 3 8 5 5 8 5 5 5 , O   . . . . . . . . . . . . . . . . . . . . . . . . . . . . . . + < % 1 8 8 2 6 3 % X , ,.V.R.R.",
"T.W.B.;.,   @ G %.&.&.Q 8 c &.c >   . . . . . . . . . . . . . . . . . . . . . . . . . . . . .   < Q c y ! %.%.$.D + X , ,.V.E.Y.",
"T.T.B.;.,   @ v W E W R 3 j W x O . . . . . . . . . . O . . . . . . . . . . . . . . . . . . . . < J j 6 R W E W u + . , <.Z.R.R.",
"T.W.N.;., o - ; y 1 2 h h h 6 $ O . . . . . . . . . . . . . . . . . . . . . . . . . . . . . . . . 1 7 h h h 1 3 * - $ , <.Z.T.R.",
"T.J.d.;., ; C B I x j &.=.=.Q <   . . . . . . . . . . . . . . . . . . . . . . . . . . . . . . . . y $.=.=.$.6 D N N - , >.V.R.R.",
"v.a.4.%.% # 9 t d 3 5 T T T x % . . . . . . . . . . . . . . . . . . . . . . . . . . . . . . . . . 1 J T T n 1 u w 9 % , <.V.T.T.",
"/ ^ ^ p + . + 4 v n n v 1 6 v 6 O   . . . . . . . . . . . . . . . . . . . . . . . . . . . . . . > j 5 1 z n z z 4 +   , <.Z.T.T.",
"5.:.X.K $   $ D &.=.=.%.y J &.K >   . . . . . . . . . . . . . . . . . . . . . . . . . . . . .   1 Q J u $.=.=.=.Z o . , <.Z.T.T.",
"J.S.y.;., X @ 4 z z l l 1 6 z 3 O . . . . . . . . . . . . . . . . . . . . . . . . . . . . . . . $ y 6 2 v z z l 4 o X < ;.V.T.T.",
"Y.T.n.;., # 0 a f 5 4 J R R v % . . . . . . . . . . O . . . . . . . . . . . . . . . . . . . . . . 3 J R R J 1 y w 0 # , <.N.T.T.",
"Y.Y.B.;., ; C C L u j %.&.&.W <   . . . . . . . . . . . . . . . . . . . . . . . . . . . . . . . . y $.&.*.! 4 D A V - < <.p.D.P.",
"T.Y.Z.;., + = 3 y 3 5 k 7 8 y , . . . . . . . . . . . . . . . . . . . X . . . . . . . . . . . X O 1 6 7 k k 2 4 * = o $ W *.3.7.",
"Y.Y.B.;.,   o d W ! W E 5 x Q v O . . . . . . . . . . . . . . . . . . . . . . . . . . . . X     < E j 5 W Q | W u o   + k n n / ",
"W.P.s.;.,   @ f Q ! *.E 6 x Q b + O . . . . . . . . . . . . . . . . . . . . . . . . . . . .     < W v y W  . .Q f o   , %.4.a.c.",
"Z.h.e.-., + % & 6 5 5 h 5 6 6 % X . . . . . . . . . . . . . . . . . . . . . . . . . . . . . . . O 1 6 5 k k 5 6 3 % O < =.s.G.T.",
"_ ( _ j + & M N P h j $.&.$.W < . . . . . . . . . . . . . . . . . . . . . . . . . . . . . . . . . y ! &.$.Q 5 c N M = < <.Z.R.T.",
"O.o.| m $ = w w c 6 6 E E E m < . . . . . . . . . . . . . . . . . . . . . . . . . . . . . . . . . 5 E E E R 3 u e w = < <.V.P.R.",
"H.Z.t.=., X $ 3 h h k h 5 5 j 1 O . . . . . . . . . . . . . . X . . . . . . . . . . . . . . . . > 6 3 1 h l h h 3 + X , <.Z.R.R.",
"W.T.c.;., . + N &.=.=.$.u c =.J > . . . . . . . . . . . . . . . . . . . . . . . . . . . . . .   1 Q c h $.=.=.&.D @ . , <.N.T.R.",
"W.T.B.;., . + t c J J n 1 h m y X . . . . . . . . . . . . . . . . . . . . . . . . . . . . . . . > x h 5 b T m m r o   , <.p.J.L.",
"T.T.B.;., $ r * u 3 2 n n n h $ . . . . . . . . . . . . . . . . . . . . . . . X . . . . . . . . X 1 j n m v 1 6 r * $ , | -.8.0.",
"T.P.B.;.< 1 N B P x x &.=.=.Y 1   . . . X . . . . . . . . . . . . . . . . . . . . . . . . . . . . u $.=.=.! 6 D N M - + y T n n ",
"T.T.B.;., @ ; 4 y 2 3 v l l h > . . . . . . . . . . . . . . . . . . . . . . . . . . . . . . . . O 1 l l n l 1 6 9 ; @ , %.1.q.k.",
"T.T.B.;.,   @ t R R R m 1 h E h X . . . . . . . . . . . . . . . . . . . . . . . . . . . . . . . , b h 3 m R R R t o   , ;.p.D.T.",
"T.T.B.;., . @ D $.=.=.! y c &.m > . . . . . . . . . . . . . . . . . . . . . . . . . . . . . . . < Q m y ! %.%.$.Z @   , ;.B.T.T.",
"T.T.B.;., O @ 3 h 6 6 h 2 6 h 1 . . . . . . . . . . . . . . . . . . . . . . . . . . . . . . . . + 3 6 2 h l 6 y 3 $ X , <.Z.T.T.",
"T.T.B.;., = q V D y 6 W | | D < . . . . . . . . . . . . . . . . . . X . . . . . . . . . . . . . X 6 W W ! R 5 d M a = < <.Z.T.T.",
"T.W.B.;., - a V F h h Q ! ! E < . . . . . . . . . . . . . . . . . . . . . . . . . X . . . . . . . 6 Q ! ! W 5 f M e = , <.Z.T.T.",
"T.T.m.;., O = ; h 6 6 h 1 , > X . . . . . . . . . . . . . . . . . . . . . . . . . . . . . . . . . + , 2 k k 6 6 ; % X , <.m.T.T.",
"J.Z.t.;., . @ f ! %.%.Q 2 .   . . . . . . . . . . . . . . . . . . . . . . . . . . . . . . . . . . .   5 ! *.*.Q g @ X , <.u.Z.J.",
"5.:. .J $ . + t E E E R 1 . . . X   X     X . . . . . . . . . . . . . . . X . . X   . X . . . . . X . 1 E E E E t +   $ E  .O.5.",
"/ ( ( i + @ ; 4 y 3 > > + X O + 1 8 8 8 < O O X O O X 1 8 8 8 2 + O O O O O < 7 8 8 3 + O O O X X > 6 h z y 1 6 4 1 + + u m T R ",
"Z.s.e.%., - C C I u 3 c T m u 1 W =.=.*.b 1 x R m x 3 J &.=.&.K 1 j m T c 1 n &.=.=.W 3 u m T c 3 h =.&.=.! 6 F N N & % *.4.d.c.",
"T.P.a.;.< # 9 t d 3 3 b m m x 1 k m T m y 3 c m m x 1 y m T T y 1 x T m b 3 4 b m T z < j m m m 4 3 n m m x 1 y t 9 $ < <.d.P.T.",
"T.T.B.;.,   o r c n T z 1 6 m n x 1 y m m n n 3 5 b T v 1 6 m n n m 6 3 n m n 6 5 b T n m 6 1 v T v 6 3 v T n n 4 + . , <.V.T.R.",
"W.P.Z.;.,   $ S &.=.=.! y J &.=.Q 6 K =.=.=.&.j x =.=.$.u b &.=.=.&.c u $.=.$.x x $.=.=.=.J y ! =.=.c h ! =.=.=.G $ . , <.V.T.T.",
"T.T.B.;.,   @ 4 l l j l 1 6 z l i 1 6 v l l j 2 5 l l y 1 5 z z l z 2 2 j l h 3 3 z z k z 6 1 j l l 5 2 l v l j 4 o . , ;.V.T.T.",
"T.P.B.;., = t a c 6 4 R R R c 1 x R E R y 1 J _ E b 3 y R E E u 1 b R E J 3 6 R E R v 1 c R R R 6 3 c E R m 1 j w t = , <.V.T.T.",
"T.L.x.;., - V C A y 4 I Y Q D & c Y Y Y u 4 L Y Y H ; d Y Q U f 3 F W I L 4 t I Y Y G 1 G Y Y I t 4 L } Y H 3 a N M - , <.b.P.W.",
"G.N.r.-., o = ; 3 = - & - = % + % - ; ; - = 3 - - ; = - - = = $ + = = ; 3 = = - ; ; - = - ; < = o $ = - 3 ; = - * = + , <.r.N.D.",
"..] ] b $ X O = & & & = +     X . X = - - - - @ % - ; = @       . . . $ = & & $ @ - ; - ; = X . X . . o - ; ; - = X . $ m ` ....",
"_ ` _ _ y + $ , < > > < > > + + > @ > , , % , > o $ , , > > > $ $ O + > % , , , $ , , % > o + > > > > $ $ , % , $ $ + y _ ` _ _ ",
"t.p.p.t.{ i %.*.*. .-. .X. .j v %.%.*.*.-. .-.{ y J *.X.-.X.X.-.} y J %.X. .-.X.-.X.X.-.{ 6 K *.X.*.X.X.-.-.*.X.-. .y | r.p.p.t.",
"D.P.P.A.+.^ e.s.m.n.c.x.p.w._ | r.l.x.c.n.x.p.1.n -.p.x.n.n.b.p.4.~  .t.l.x.m.n.n.n.x.p.1.~ ;.u.x.n.m.n.n.N.x.n.h.e.( 2.S.L.P.F.",
"T.T.R.T.g.) h.J.W.W.T.T.J.d.( o.B.P.P.W.W.P.G.9.~ 6.Z.T.W.W.W.G.a.( :.Z.P.T.W.T.W.P.T.G.q.l 6.Z.T.T.W.W.Y.Y.T.T.G.l.( f.T.T.W.W.",
"T.T.T.T.g.' S.W.W.W.T.T.T.Z.' o.H.T.W.W.W.W.T.k.~ 7.J.T.W.P.W.T.v.~ 5.P.T.T.T.T.W.T.W.W.k.z 0.J.W.T.T.W.Y.Y.P.T.T.S.( j.T.T.T.W."
};
